<?xml version="1.0" encoding="utf-8" standalone="no"?>
<!DOCTYPE svg PUBLIC "-//W3C//DTD SVG 1.1//EN"
  "http://www.w3.org/Graphics/SVG/1.1/DTD/svg11.dtd">
<!-- Created with matplotlib (https://matplotlib.org/) -->
<svg height="504pt" version="1.1" viewBox="0 0 504 504" width="504pt" xmlns="http://www.w3.org/2000/svg" xmlns:xlink="http://www.w3.org/1999/xlink">
 <defs>
  <style type="text/css">
*{stroke-linecap:butt;stroke-linejoin:round;}
  </style>
 </defs>
 <g id="figure_1">
  <g id="patch_1">
   <path d="M 0 504 
L 504 504 
L 504 0 
L 0 0 
z
" style="fill:#ffffff;"/>
  </g>
  <g id="axes_1">
   <g id="patch_2">
    <path d="M 54.02 462.04 
L 479.025 462.04 
L 479.025 25.44 
L 54.02 25.44 
z
" style="fill:#ffffff;"/>
   </g>
   <g id="matplotlib.axis_1">
    <g id="xtick_1">
     <g id="line2d_1">
      <defs>
       <path d="M 0 0 
L 0 3.5 
" id="md67a6391af" style="stroke:#000000;stroke-width:0.8;"/>
      </defs>
      <g>
       <use style="stroke:#000000;stroke-width:0.8;" x="54.02" xlink:href="#md67a6391af" y="462.04"/>
      </g>
     </g>
     <g id="text_1">
      <!-- 0.000 -->
      <defs>
       <path d="M 31.78125 66.40625 
Q 24.171875 66.40625 20.328125 58.90625 
Q 16.5 51.421875 16.5 36.375 
Q 16.5 21.390625 20.328125 13.890625 
Q 24.171875 6.390625 31.78125 6.390625 
Q 39.453125 6.390625 43.28125 13.890625 
Q 47.125 21.390625 47.125 36.375 
Q 47.125 51.421875 43.28125 58.90625 
Q 39.453125 66.40625 31.78125 66.40625 
z
M 31.78125 74.21875 
Q 44.046875 74.21875 50.515625 64.515625 
Q 56.984375 54.828125 56.984375 36.375 
Q 56.984375 17.96875 50.515625 8.265625 
Q 44.046875 -1.421875 31.78125 -1.421875 
Q 19.53125 -1.421875 13.0625 8.265625 
Q 6.59375 17.96875 6.59375 36.375 
Q 6.59375 54.828125 13.0625 64.515625 
Q 19.53125 74.21875 31.78125 74.21875 
z
" id="DejaVuSans-48"/>
       <path d="M 10.6875 12.40625 
L 21 12.40625 
L 21 0 
L 10.6875 0 
z
" id="DejaVuSans-46"/>
      </defs>
      <g transform="translate(39.705938 476.638438)scale(0.1 -0.1)">
       <use xlink:href="#DejaVuSans-48"/>
       <use x="63.623047" xlink:href="#DejaVuSans-46"/>
       <use x="95.410156" xlink:href="#DejaVuSans-48"/>
       <use x="159.033203" xlink:href="#DejaVuSans-48"/>
       <use x="222.65625" xlink:href="#DejaVuSans-48"/>
      </g>
     </g>
    </g>
    <g id="xtick_2">
     <g id="line2d_2">
      <g>
       <use style="stroke:#000000;stroke-width:0.8;" x="107.145625" xlink:href="#md67a6391af" y="462.04"/>
      </g>
     </g>
     <g id="text_2">
      <!-- 0.025 -->
      <defs>
       <path d="M 19.1875 8.296875 
L 53.609375 8.296875 
L 53.609375 0 
L 7.328125 0 
L 7.328125 8.296875 
Q 12.9375 14.109375 22.625 23.890625 
Q 32.328125 33.6875 34.8125 36.53125 
Q 39.546875 41.84375 41.421875 45.53125 
Q 43.3125 49.21875 43.3125 52.78125 
Q 43.3125 58.59375 39.234375 62.25 
Q 35.15625 65.921875 28.609375 65.921875 
Q 23.96875 65.921875 18.8125 64.3125 
Q 13.671875 62.703125 7.8125 59.421875 
L 7.8125 69.390625 
Q 13.765625 71.78125 18.9375 73 
Q 24.125 74.21875 28.421875 74.21875 
Q 39.75 74.21875 46.484375 68.546875 
Q 53.21875 62.890625 53.21875 53.421875 
Q 53.21875 48.921875 51.53125 44.890625 
Q 49.859375 40.875 45.40625 35.40625 
Q 44.1875 33.984375 37.640625 27.21875 
Q 31.109375 20.453125 19.1875 8.296875 
z
" id="DejaVuSans-50"/>
       <path d="M 10.796875 72.90625 
L 49.515625 72.90625 
L 49.515625 64.59375 
L 19.828125 64.59375 
L 19.828125 46.734375 
Q 21.96875 47.46875 24.109375 47.828125 
Q 26.265625 48.1875 28.421875 48.1875 
Q 40.625 48.1875 47.75 41.5 
Q 54.890625 34.8125 54.890625 23.390625 
Q 54.890625 11.625 47.5625 5.09375 
Q 40.234375 -1.421875 26.90625 -1.421875 
Q 22.3125 -1.421875 17.546875 -0.640625 
Q 12.796875 0.140625 7.71875 1.703125 
L 7.71875 11.625 
Q 12.109375 9.234375 16.796875 8.0625 
Q 21.484375 6.890625 26.703125 6.890625 
Q 35.15625 6.890625 40.078125 11.328125 
Q 45.015625 15.765625 45.015625 23.390625 
Q 45.015625 31 40.078125 35.4375 
Q 35.15625 39.890625 26.703125 39.890625 
Q 22.75 39.890625 18.8125 39.015625 
Q 14.890625 38.140625 10.796875 36.28125 
z
" id="DejaVuSans-53"/>
      </defs>
      <g transform="translate(92.831563 476.638438)scale(0.1 -0.1)">
       <use xlink:href="#DejaVuSans-48"/>
       <use x="63.623047" xlink:href="#DejaVuSans-46"/>
       <use x="95.410156" xlink:href="#DejaVuSans-48"/>
       <use x="159.033203" xlink:href="#DejaVuSans-50"/>
       <use x="222.65625" xlink:href="#DejaVuSans-53"/>
      </g>
     </g>
    </g>
    <g id="xtick_3">
     <g id="line2d_3">
      <g>
       <use style="stroke:#000000;stroke-width:0.8;" x="160.27125" xlink:href="#md67a6391af" y="462.04"/>
      </g>
     </g>
     <g id="text_3">
      <!-- 0.050 -->
      <g transform="translate(145.957188 476.638438)scale(0.1 -0.1)">
       <use xlink:href="#DejaVuSans-48"/>
       <use x="63.623047" xlink:href="#DejaVuSans-46"/>
       <use x="95.410156" xlink:href="#DejaVuSans-48"/>
       <use x="159.033203" xlink:href="#DejaVuSans-53"/>
       <use x="222.65625" xlink:href="#DejaVuSans-48"/>
      </g>
     </g>
    </g>
    <g id="xtick_4">
     <g id="line2d_4">
      <g>
       <use style="stroke:#000000;stroke-width:0.8;" x="213.396875" xlink:href="#md67a6391af" y="462.04"/>
      </g>
     </g>
     <g id="text_4">
      <!-- 0.075 -->
      <defs>
       <path d="M 8.203125 72.90625 
L 55.078125 72.90625 
L 55.078125 68.703125 
L 28.609375 0 
L 18.3125 0 
L 43.21875 64.59375 
L 8.203125 64.59375 
z
" id="DejaVuSans-55"/>
      </defs>
      <g transform="translate(199.082812 476.638438)scale(0.1 -0.1)">
       <use xlink:href="#DejaVuSans-48"/>
       <use x="63.623047" xlink:href="#DejaVuSans-46"/>
       <use x="95.410156" xlink:href="#DejaVuSans-48"/>
       <use x="159.033203" xlink:href="#DejaVuSans-55"/>
       <use x="222.65625" xlink:href="#DejaVuSans-53"/>
      </g>
     </g>
    </g>
    <g id="xtick_5">
     <g id="line2d_5">
      <g>
       <use style="stroke:#000000;stroke-width:0.8;" x="266.5225" xlink:href="#md67a6391af" y="462.04"/>
      </g>
     </g>
     <g id="text_5">
      <!-- 0.100 -->
      <defs>
       <path d="M 12.40625 8.296875 
L 28.515625 8.296875 
L 28.515625 63.921875 
L 10.984375 60.40625 
L 10.984375 69.390625 
L 28.421875 72.90625 
L 38.28125 72.90625 
L 38.28125 8.296875 
L 54.390625 8.296875 
L 54.390625 0 
L 12.40625 0 
z
" id="DejaVuSans-49"/>
      </defs>
      <g transform="translate(252.208437 476.638438)scale(0.1 -0.1)">
       <use xlink:href="#DejaVuSans-48"/>
       <use x="63.623047" xlink:href="#DejaVuSans-46"/>
       <use x="95.410156" xlink:href="#DejaVuSans-49"/>
       <use x="159.033203" xlink:href="#DejaVuSans-48"/>
       <use x="222.65625" xlink:href="#DejaVuSans-48"/>
      </g>
     </g>
    </g>
    <g id="xtick_6">
     <g id="line2d_6">
      <g>
       <use style="stroke:#000000;stroke-width:0.8;" x="319.648125" xlink:href="#md67a6391af" y="462.04"/>
      </g>
     </g>
     <g id="text_6">
      <!-- 0.125 -->
      <g transform="translate(305.334063 476.638438)scale(0.1 -0.1)">
       <use xlink:href="#DejaVuSans-48"/>
       <use x="63.623047" xlink:href="#DejaVuSans-46"/>
       <use x="95.410156" xlink:href="#DejaVuSans-49"/>
       <use x="159.033203" xlink:href="#DejaVuSans-50"/>
       <use x="222.65625" xlink:href="#DejaVuSans-53"/>
      </g>
     </g>
    </g>
    <g id="xtick_7">
     <g id="line2d_7">
      <g>
       <use style="stroke:#000000;stroke-width:0.8;" x="372.77375" xlink:href="#md67a6391af" y="462.04"/>
      </g>
     </g>
     <g id="text_7">
      <!-- 0.150 -->
      <g transform="translate(358.459688 476.638438)scale(0.1 -0.1)">
       <use xlink:href="#DejaVuSans-48"/>
       <use x="63.623047" xlink:href="#DejaVuSans-46"/>
       <use x="95.410156" xlink:href="#DejaVuSans-49"/>
       <use x="159.033203" xlink:href="#DejaVuSans-53"/>
       <use x="222.65625" xlink:href="#DejaVuSans-48"/>
      </g>
     </g>
    </g>
    <g id="xtick_8">
     <g id="line2d_8">
      <g>
       <use style="stroke:#000000;stroke-width:0.8;" x="425.899375" xlink:href="#md67a6391af" y="462.04"/>
      </g>
     </g>
     <g id="text_8">
      <!-- 0.175 -->
      <g transform="translate(411.585313 476.638438)scale(0.1 -0.1)">
       <use xlink:href="#DejaVuSans-48"/>
       <use x="63.623047" xlink:href="#DejaVuSans-46"/>
       <use x="95.410156" xlink:href="#DejaVuSans-49"/>
       <use x="159.033203" xlink:href="#DejaVuSans-55"/>
       <use x="222.65625" xlink:href="#DejaVuSans-53"/>
      </g>
     </g>
    </g>
    <g id="xtick_9">
     <g id="line2d_9">
      <g>
       <use style="stroke:#000000;stroke-width:0.8;" x="479.025" xlink:href="#md67a6391af" y="462.04"/>
      </g>
     </g>
     <g id="text_9">
      <!-- 0.200 -->
      <g transform="translate(464.710938 476.638438)scale(0.1 -0.1)">
       <use xlink:href="#DejaVuSans-48"/>
       <use x="63.623047" xlink:href="#DejaVuSans-46"/>
       <use x="95.410156" xlink:href="#DejaVuSans-50"/>
       <use x="159.033203" xlink:href="#DejaVuSans-48"/>
       <use x="222.65625" xlink:href="#DejaVuSans-48"/>
      </g>
     </g>
    </g>
    <g id="text_10">
     <!-- Distance from focus [m] -->
     <defs>
      <path d="M 19.671875 64.796875 
L 19.671875 8.109375 
L 31.59375 8.109375 
Q 46.6875 8.109375 53.6875 14.9375 
Q 60.6875 21.78125 60.6875 36.53125 
Q 60.6875 51.171875 53.6875 57.984375 
Q 46.6875 64.796875 31.59375 64.796875 
z
M 9.8125 72.90625 
L 30.078125 72.90625 
Q 51.265625 72.90625 61.171875 64.09375 
Q 71.09375 55.28125 71.09375 36.53125 
Q 71.09375 17.671875 61.125 8.828125 
Q 51.171875 0 30.078125 0 
L 9.8125 0 
z
" id="DejaVuSans-68"/>
      <path d="M 9.421875 54.6875 
L 18.40625 54.6875 
L 18.40625 0 
L 9.421875 0 
z
M 9.421875 75.984375 
L 18.40625 75.984375 
L 18.40625 64.59375 
L 9.421875 64.59375 
z
" id="DejaVuSans-105"/>
      <path d="M 44.28125 53.078125 
L 44.28125 44.578125 
Q 40.484375 46.53125 36.375 47.5 
Q 32.28125 48.484375 27.875 48.484375 
Q 21.1875 48.484375 17.84375 46.4375 
Q 14.5 44.390625 14.5 40.28125 
Q 14.5 37.15625 16.890625 35.375 
Q 19.28125 33.59375 26.515625 31.984375 
L 29.59375 31.296875 
Q 39.15625 29.25 43.1875 25.515625 
Q 47.21875 21.78125 47.21875 15.09375 
Q 47.21875 7.46875 41.1875 3.015625 
Q 35.15625 -1.421875 24.609375 -1.421875 
Q 20.21875 -1.421875 15.453125 -0.5625 
Q 10.6875 0.296875 5.421875 2 
L 5.421875 11.28125 
Q 10.40625 8.6875 15.234375 7.390625 
Q 20.0625 6.109375 24.8125 6.109375 
Q 31.15625 6.109375 34.5625 8.28125 
Q 37.984375 10.453125 37.984375 14.40625 
Q 37.984375 18.0625 35.515625 20.015625 
Q 33.0625 21.96875 24.703125 23.78125 
L 21.578125 24.515625 
Q 13.234375 26.265625 9.515625 29.90625 
Q 5.8125 33.546875 5.8125 39.890625 
Q 5.8125 47.609375 11.28125 51.796875 
Q 16.75 56 26.8125 56 
Q 31.78125 56 36.171875 55.265625 
Q 40.578125 54.546875 44.28125 53.078125 
z
" id="DejaVuSans-115"/>
      <path d="M 18.3125 70.21875 
L 18.3125 54.6875 
L 36.8125 54.6875 
L 36.8125 47.703125 
L 18.3125 47.703125 
L 18.3125 18.015625 
Q 18.3125 11.328125 20.140625 9.421875 
Q 21.96875 7.515625 27.59375 7.515625 
L 36.8125 7.515625 
L 36.8125 0 
L 27.59375 0 
Q 17.1875 0 13.234375 3.875 
Q 9.28125 7.765625 9.28125 18.015625 
L 9.28125 47.703125 
L 2.6875 47.703125 
L 2.6875 54.6875 
L 9.28125 54.6875 
L 9.28125 70.21875 
z
" id="DejaVuSans-116"/>
      <path d="M 34.28125 27.484375 
Q 23.390625 27.484375 19.1875 25 
Q 14.984375 22.515625 14.984375 16.5 
Q 14.984375 11.71875 18.140625 8.90625 
Q 21.296875 6.109375 26.703125 6.109375 
Q 34.1875 6.109375 38.703125 11.40625 
Q 43.21875 16.703125 43.21875 25.484375 
L 43.21875 27.484375 
z
M 52.203125 31.203125 
L 52.203125 0 
L 43.21875 0 
L 43.21875 8.296875 
Q 40.140625 3.328125 35.546875 0.953125 
Q 30.953125 -1.421875 24.3125 -1.421875 
Q 15.921875 -1.421875 10.953125 3.296875 
Q 6 8.015625 6 15.921875 
Q 6 25.140625 12.171875 29.828125 
Q 18.359375 34.515625 30.609375 34.515625 
L 43.21875 34.515625 
L 43.21875 35.40625 
Q 43.21875 41.609375 39.140625 45 
Q 35.0625 48.390625 27.6875 48.390625 
Q 23 48.390625 18.546875 47.265625 
Q 14.109375 46.140625 10.015625 43.890625 
L 10.015625 52.203125 
Q 14.9375 54.109375 19.578125 55.046875 
Q 24.21875 56 28.609375 56 
Q 40.484375 56 46.34375 49.84375 
Q 52.203125 43.703125 52.203125 31.203125 
z
" id="DejaVuSans-97"/>
      <path d="M 54.890625 33.015625 
L 54.890625 0 
L 45.90625 0 
L 45.90625 32.71875 
Q 45.90625 40.484375 42.875 44.328125 
Q 39.84375 48.1875 33.796875 48.1875 
Q 26.515625 48.1875 22.3125 43.546875 
Q 18.109375 38.921875 18.109375 30.90625 
L 18.109375 0 
L 9.078125 0 
L 9.078125 54.6875 
L 18.109375 54.6875 
L 18.109375 46.1875 
Q 21.34375 51.125 25.703125 53.5625 
Q 30.078125 56 35.796875 56 
Q 45.21875 56 50.046875 50.171875 
Q 54.890625 44.34375 54.890625 33.015625 
z
" id="DejaVuSans-110"/>
      <path d="M 48.78125 52.59375 
L 48.78125 44.1875 
Q 44.96875 46.296875 41.140625 47.34375 
Q 37.3125 48.390625 33.40625 48.390625 
Q 24.65625 48.390625 19.8125 42.84375 
Q 14.984375 37.3125 14.984375 27.296875 
Q 14.984375 17.28125 19.8125 11.734375 
Q 24.65625 6.203125 33.40625 6.203125 
Q 37.3125 6.203125 41.140625 7.25 
Q 44.96875 8.296875 48.78125 10.40625 
L 48.78125 2.09375 
Q 45.015625 0.34375 40.984375 -0.53125 
Q 36.96875 -1.421875 32.421875 -1.421875 
Q 20.0625 -1.421875 12.78125 6.34375 
Q 5.515625 14.109375 5.515625 27.296875 
Q 5.515625 40.671875 12.859375 48.328125 
Q 20.21875 56 33.015625 56 
Q 37.15625 56 41.109375 55.140625 
Q 45.0625 54.296875 48.78125 52.59375 
z
" id="DejaVuSans-99"/>
      <path d="M 56.203125 29.59375 
L 56.203125 25.203125 
L 14.890625 25.203125 
Q 15.484375 15.921875 20.484375 11.0625 
Q 25.484375 6.203125 34.421875 6.203125 
Q 39.59375 6.203125 44.453125 7.46875 
Q 49.3125 8.734375 54.109375 11.28125 
L 54.109375 2.78125 
Q 49.265625 0.734375 44.1875 -0.34375 
Q 39.109375 -1.421875 33.890625 -1.421875 
Q 20.796875 -1.421875 13.15625 6.1875 
Q 5.515625 13.8125 5.515625 26.8125 
Q 5.515625 40.234375 12.765625 48.109375 
Q 20.015625 56 32.328125 56 
Q 43.359375 56 49.78125 48.890625 
Q 56.203125 41.796875 56.203125 29.59375 
z
M 47.21875 32.234375 
Q 47.125 39.59375 43.09375 43.984375 
Q 39.0625 48.390625 32.421875 48.390625 
Q 24.90625 48.390625 20.390625 44.140625 
Q 15.875 39.890625 15.1875 32.171875 
z
" id="DejaVuSans-101"/>
      <path id="DejaVuSans-32"/>
      <path d="M 37.109375 75.984375 
L 37.109375 68.5 
L 28.515625 68.5 
Q 23.6875 68.5 21.796875 66.546875 
Q 19.921875 64.59375 19.921875 59.515625 
L 19.921875 54.6875 
L 34.71875 54.6875 
L 34.71875 47.703125 
L 19.921875 47.703125 
L 19.921875 0 
L 10.890625 0 
L 10.890625 47.703125 
L 2.296875 47.703125 
L 2.296875 54.6875 
L 10.890625 54.6875 
L 10.890625 58.5 
Q 10.890625 67.625 15.140625 71.796875 
Q 19.390625 75.984375 28.609375 75.984375 
z
" id="DejaVuSans-102"/>
      <path d="M 41.109375 46.296875 
Q 39.59375 47.171875 37.8125 47.578125 
Q 36.03125 48 33.890625 48 
Q 26.265625 48 22.1875 43.046875 
Q 18.109375 38.09375 18.109375 28.8125 
L 18.109375 0 
L 9.078125 0 
L 9.078125 54.6875 
L 18.109375 54.6875 
L 18.109375 46.1875 
Q 20.953125 51.171875 25.484375 53.578125 
Q 30.03125 56 36.53125 56 
Q 37.453125 56 38.578125 55.875 
Q 39.703125 55.765625 41.0625 55.515625 
z
" id="DejaVuSans-114"/>
      <path d="M 30.609375 48.390625 
Q 23.390625 48.390625 19.1875 42.75 
Q 14.984375 37.109375 14.984375 27.296875 
Q 14.984375 17.484375 19.15625 11.84375 
Q 23.34375 6.203125 30.609375 6.203125 
Q 37.796875 6.203125 41.984375 11.859375 
Q 46.1875 17.53125 46.1875 27.296875 
Q 46.1875 37.015625 41.984375 42.703125 
Q 37.796875 48.390625 30.609375 48.390625 
z
M 30.609375 56 
Q 42.328125 56 49.015625 48.375 
Q 55.71875 40.765625 55.71875 27.296875 
Q 55.71875 13.875 49.015625 6.21875 
Q 42.328125 -1.421875 30.609375 -1.421875 
Q 18.84375 -1.421875 12.171875 6.21875 
Q 5.515625 13.875 5.515625 27.296875 
Q 5.515625 40.765625 12.171875 48.375 
Q 18.84375 56 30.609375 56 
z
" id="DejaVuSans-111"/>
      <path d="M 52 44.1875 
Q 55.375 50.25 60.0625 53.125 
Q 64.75 56 71.09375 56 
Q 79.640625 56 84.28125 50.015625 
Q 88.921875 44.046875 88.921875 33.015625 
L 88.921875 0 
L 79.890625 0 
L 79.890625 32.71875 
Q 79.890625 40.578125 77.09375 44.375 
Q 74.3125 48.1875 68.609375 48.1875 
Q 61.625 48.1875 57.5625 43.546875 
Q 53.515625 38.921875 53.515625 30.90625 
L 53.515625 0 
L 44.484375 0 
L 44.484375 32.71875 
Q 44.484375 40.625 41.703125 44.40625 
Q 38.921875 48.1875 33.109375 48.1875 
Q 26.21875 48.1875 22.15625 43.53125 
Q 18.109375 38.875 18.109375 30.90625 
L 18.109375 0 
L 9.078125 0 
L 9.078125 54.6875 
L 18.109375 54.6875 
L 18.109375 46.1875 
Q 21.1875 51.21875 25.484375 53.609375 
Q 29.78125 56 35.6875 56 
Q 41.65625 56 45.828125 52.96875 
Q 50 49.953125 52 44.1875 
z
" id="DejaVuSans-109"/>
      <path d="M 8.5 21.578125 
L 8.5 54.6875 
L 17.484375 54.6875 
L 17.484375 21.921875 
Q 17.484375 14.15625 20.5 10.265625 
Q 23.53125 6.390625 29.59375 6.390625 
Q 36.859375 6.390625 41.078125 11.03125 
Q 45.3125 15.671875 45.3125 23.6875 
L 45.3125 54.6875 
L 54.296875 54.6875 
L 54.296875 0 
L 45.3125 0 
L 45.3125 8.40625 
Q 42.046875 3.421875 37.71875 1 
Q 33.40625 -1.421875 27.6875 -1.421875 
Q 18.265625 -1.421875 13.375 4.4375 
Q 8.5 10.296875 8.5 21.578125 
z
M 31.109375 56 
z
" id="DejaVuSans-117"/>
      <path d="M 8.59375 75.984375 
L 29.296875 75.984375 
L 29.296875 69 
L 17.578125 69 
L 17.578125 -6.203125 
L 29.296875 -6.203125 
L 29.296875 -13.1875 
L 8.59375 -13.1875 
z
" id="DejaVuSans-91"/>
      <path d="M 30.421875 75.984375 
L 30.421875 -13.1875 
L 9.71875 -13.1875 
L 9.71875 -6.203125 
L 21.390625 -6.203125 
L 21.390625 69 
L 9.71875 69 
L 9.71875 75.984375 
z
" id="DejaVuSans-93"/>
     </defs>
     <g transform="translate(206.035 490.316563)scale(0.1 -0.1)">
      <use xlink:href="#DejaVuSans-68"/>
      <use x="77.001953" xlink:href="#DejaVuSans-105"/>
      <use x="104.785156" xlink:href="#DejaVuSans-115"/>
      <use x="156.884766" xlink:href="#DejaVuSans-116"/>
      <use x="196.09375" xlink:href="#DejaVuSans-97"/>
      <use x="257.373047" xlink:href="#DejaVuSans-110"/>
      <use x="320.751953" xlink:href="#DejaVuSans-99"/>
      <use x="375.732422" xlink:href="#DejaVuSans-101"/>
      <use x="437.255859" xlink:href="#DejaVuSans-32"/>
      <use x="469.042969" xlink:href="#DejaVuSans-102"/>
      <use x="504.248047" xlink:href="#DejaVuSans-114"/>
      <use x="545.330078" xlink:href="#DejaVuSans-111"/>
      <use x="606.511719" xlink:href="#DejaVuSans-109"/>
      <use x="703.923828" xlink:href="#DejaVuSans-32"/>
      <use x="735.710938" xlink:href="#DejaVuSans-102"/>
      <use x="770.916016" xlink:href="#DejaVuSans-111"/>
      <use x="832.097656" xlink:href="#DejaVuSans-99"/>
      <use x="887.078125" xlink:href="#DejaVuSans-117"/>
      <use x="950.457031" xlink:href="#DejaVuSans-115"/>
      <use x="1002.556641" xlink:href="#DejaVuSans-32"/>
      <use x="1034.34375" xlink:href="#DejaVuSans-91"/>
      <use x="1073.357422" xlink:href="#DejaVuSans-109"/>
      <use x="1170.769531" xlink:href="#DejaVuSans-93"/>
     </g>
    </g>
   </g>
   <g id="matplotlib.axis_2">
    <g id="ytick_1">
     <g id="line2d_10">
      <defs>
       <path d="M 0 0 
L -3.5 0 
" id="m40db73d99b" style="stroke:#000000;stroke-width:0.8;"/>
      </defs>
      <g>
       <use style="stroke:#000000;stroke-width:0.8;" x="54.02" xlink:href="#m40db73d99b" y="462.04"/>
      </g>
     </g>
     <g id="text_11">
      <!-- 0.20 -->
      <g transform="translate(24.754375 465.839219)scale(0.1 -0.1)">
       <use xlink:href="#DejaVuSans-48"/>
       <use x="63.623047" xlink:href="#DejaVuSans-46"/>
       <use x="95.410156" xlink:href="#DejaVuSans-50"/>
       <use x="159.033203" xlink:href="#DejaVuSans-48"/>
      </g>
     </g>
    </g>
    <g id="ytick_2">
     <g id="line2d_11">
      <g>
       <use style="stroke:#000000;stroke-width:0.8;" x="54.02" xlink:href="#m40db73d99b" y="389.273333"/>
      </g>
     </g>
     <g id="text_12">
      <!-- 0.25 -->
      <g transform="translate(24.754375 393.072552)scale(0.1 -0.1)">
       <use xlink:href="#DejaVuSans-48"/>
       <use x="63.623047" xlink:href="#DejaVuSans-46"/>
       <use x="95.410156" xlink:href="#DejaVuSans-50"/>
       <use x="159.033203" xlink:href="#DejaVuSans-53"/>
      </g>
     </g>
    </g>
    <g id="ytick_3">
     <g id="line2d_12">
      <g>
       <use style="stroke:#000000;stroke-width:0.8;" x="54.02" xlink:href="#m40db73d99b" y="316.506667"/>
      </g>
     </g>
     <g id="text_13">
      <!-- 0.30 -->
      <defs>
       <path d="M 40.578125 39.3125 
Q 47.65625 37.796875 51.625 33 
Q 55.609375 28.21875 55.609375 21.1875 
Q 55.609375 10.40625 48.1875 4.484375 
Q 40.765625 -1.421875 27.09375 -1.421875 
Q 22.515625 -1.421875 17.65625 -0.515625 
Q 12.796875 0.390625 7.625 2.203125 
L 7.625 11.71875 
Q 11.71875 9.328125 16.59375 8.109375 
Q 21.484375 6.890625 26.8125 6.890625 
Q 36.078125 6.890625 40.9375 10.546875 
Q 45.796875 14.203125 45.796875 21.1875 
Q 45.796875 27.640625 41.28125 31.265625 
Q 36.765625 34.90625 28.71875 34.90625 
L 20.21875 34.90625 
L 20.21875 43.015625 
L 29.109375 43.015625 
Q 36.375 43.015625 40.234375 45.921875 
Q 44.09375 48.828125 44.09375 54.296875 
Q 44.09375 59.90625 40.109375 62.90625 
Q 36.140625 65.921875 28.71875 65.921875 
Q 24.65625 65.921875 20.015625 65.03125 
Q 15.375 64.15625 9.8125 62.3125 
L 9.8125 71.09375 
Q 15.4375 72.65625 20.34375 73.4375 
Q 25.25 74.21875 29.59375 74.21875 
Q 40.828125 74.21875 47.359375 69.109375 
Q 53.90625 64.015625 53.90625 55.328125 
Q 53.90625 49.265625 50.4375 45.09375 
Q 46.96875 40.921875 40.578125 39.3125 
z
" id="DejaVuSans-51"/>
      </defs>
      <g transform="translate(24.754375 320.305885)scale(0.1 -0.1)">
       <use xlink:href="#DejaVuSans-48"/>
       <use x="63.623047" xlink:href="#DejaVuSans-46"/>
       <use x="95.410156" xlink:href="#DejaVuSans-51"/>
       <use x="159.033203" xlink:href="#DejaVuSans-48"/>
      </g>
     </g>
    </g>
    <g id="ytick_4">
     <g id="line2d_13">
      <g>
       <use style="stroke:#000000;stroke-width:0.8;" x="54.02" xlink:href="#m40db73d99b" y="243.74"/>
      </g>
     </g>
     <g id="text_14">
      <!-- 0.35 -->
      <g transform="translate(24.754375 247.539219)scale(0.1 -0.1)">
       <use xlink:href="#DejaVuSans-48"/>
       <use x="63.623047" xlink:href="#DejaVuSans-46"/>
       <use x="95.410156" xlink:href="#DejaVuSans-51"/>
       <use x="159.033203" xlink:href="#DejaVuSans-53"/>
      </g>
     </g>
    </g>
    <g id="ytick_5">
     <g id="line2d_14">
      <g>
       <use style="stroke:#000000;stroke-width:0.8;" x="54.02" xlink:href="#m40db73d99b" y="170.973333"/>
      </g>
     </g>
     <g id="text_15">
      <!-- 0.40 -->
      <defs>
       <path d="M 37.796875 64.3125 
L 12.890625 25.390625 
L 37.796875 25.390625 
z
M 35.203125 72.90625 
L 47.609375 72.90625 
L 47.609375 25.390625 
L 58.015625 25.390625 
L 58.015625 17.1875 
L 47.609375 17.1875 
L 47.609375 0 
L 37.796875 0 
L 37.796875 17.1875 
L 4.890625 17.1875 
L 4.890625 26.703125 
z
" id="DejaVuSans-52"/>
      </defs>
      <g transform="translate(24.754375 174.772552)scale(0.1 -0.1)">
       <use xlink:href="#DejaVuSans-48"/>
       <use x="63.623047" xlink:href="#DejaVuSans-46"/>
       <use x="95.410156" xlink:href="#DejaVuSans-52"/>
       <use x="159.033203" xlink:href="#DejaVuSans-48"/>
      </g>
     </g>
    </g>
    <g id="ytick_6">
     <g id="line2d_15">
      <g>
       <use style="stroke:#000000;stroke-width:0.8;" x="54.02" xlink:href="#m40db73d99b" y="98.206667"/>
      </g>
     </g>
     <g id="text_16">
      <!-- 0.45 -->
      <g transform="translate(24.754375 102.005885)scale(0.1 -0.1)">
       <use xlink:href="#DejaVuSans-48"/>
       <use x="63.623047" xlink:href="#DejaVuSans-46"/>
       <use x="95.410156" xlink:href="#DejaVuSans-52"/>
       <use x="159.033203" xlink:href="#DejaVuSans-53"/>
      </g>
     </g>
    </g>
    <g id="ytick_7">
     <g id="line2d_16">
      <g>
       <use style="stroke:#000000;stroke-width:0.8;" x="54.02" xlink:href="#m40db73d99b" y="25.44"/>
      </g>
     </g>
     <g id="text_17">
      <!-- 0.50 -->
      <g transform="translate(24.754375 29.239219)scale(0.1 -0.1)">
       <use xlink:href="#DejaVuSans-48"/>
       <use x="63.623047" xlink:href="#DejaVuSans-46"/>
       <use x="95.410156" xlink:href="#DejaVuSans-53"/>
       <use x="159.033203" xlink:href="#DejaVuSans-48"/>
      </g>
     </g>
    </g>
    <g id="text_18">
     <!-- Chopper radius [m] -->
     <defs>
      <path d="M 64.40625 67.28125 
L 64.40625 56.890625 
Q 59.421875 61.53125 53.78125 63.8125 
Q 48.140625 66.109375 41.796875 66.109375 
Q 29.296875 66.109375 22.65625 58.46875 
Q 16.015625 50.828125 16.015625 36.375 
Q 16.015625 21.96875 22.65625 14.328125 
Q 29.296875 6.6875 41.796875 6.6875 
Q 48.140625 6.6875 53.78125 8.984375 
Q 59.421875 11.28125 64.40625 15.921875 
L 64.40625 5.609375 
Q 59.234375 2.09375 53.4375 0.328125 
Q 47.65625 -1.421875 41.21875 -1.421875 
Q 24.65625 -1.421875 15.125 8.703125 
Q 5.609375 18.84375 5.609375 36.375 
Q 5.609375 53.953125 15.125 64.078125 
Q 24.65625 74.21875 41.21875 74.21875 
Q 47.75 74.21875 53.53125 72.484375 
Q 59.328125 70.75 64.40625 67.28125 
z
" id="DejaVuSans-67"/>
      <path d="M 54.890625 33.015625 
L 54.890625 0 
L 45.90625 0 
L 45.90625 32.71875 
Q 45.90625 40.484375 42.875 44.328125 
Q 39.84375 48.1875 33.796875 48.1875 
Q 26.515625 48.1875 22.3125 43.546875 
Q 18.109375 38.921875 18.109375 30.90625 
L 18.109375 0 
L 9.078125 0 
L 9.078125 75.984375 
L 18.109375 75.984375 
L 18.109375 46.1875 
Q 21.34375 51.125 25.703125 53.5625 
Q 30.078125 56 35.796875 56 
Q 45.21875 56 50.046875 50.171875 
Q 54.890625 44.34375 54.890625 33.015625 
z
" id="DejaVuSans-104"/>
      <path d="M 18.109375 8.203125 
L 18.109375 -20.796875 
L 9.078125 -20.796875 
L 9.078125 54.6875 
L 18.109375 54.6875 
L 18.109375 46.390625 
Q 20.953125 51.265625 25.265625 53.625 
Q 29.59375 56 35.59375 56 
Q 45.5625 56 51.78125 48.09375 
Q 58.015625 40.1875 58.015625 27.296875 
Q 58.015625 14.40625 51.78125 6.484375 
Q 45.5625 -1.421875 35.59375 -1.421875 
Q 29.59375 -1.421875 25.265625 0.953125 
Q 20.953125 3.328125 18.109375 8.203125 
z
M 48.6875 27.296875 
Q 48.6875 37.203125 44.609375 42.84375 
Q 40.53125 48.484375 33.40625 48.484375 
Q 26.265625 48.484375 22.1875 42.84375 
Q 18.109375 37.203125 18.109375 27.296875 
Q 18.109375 17.390625 22.1875 11.75 
Q 26.265625 6.109375 33.40625 6.109375 
Q 40.53125 6.109375 44.609375 11.75 
Q 48.6875 17.390625 48.6875 27.296875 
z
" id="DejaVuSans-112"/>
      <path d="M 45.40625 46.390625 
L 45.40625 75.984375 
L 54.390625 75.984375 
L 54.390625 0 
L 45.40625 0 
L 45.40625 8.203125 
Q 42.578125 3.328125 38.25 0.953125 
Q 33.9375 -1.421875 27.875 -1.421875 
Q 17.96875 -1.421875 11.734375 6.484375 
Q 5.515625 14.40625 5.515625 27.296875 
Q 5.515625 40.1875 11.734375 48.09375 
Q 17.96875 56 27.875 56 
Q 33.9375 56 38.25 53.625 
Q 42.578125 51.265625 45.40625 46.390625 
z
M 14.796875 27.296875 
Q 14.796875 17.390625 18.875 11.75 
Q 22.953125 6.109375 30.078125 6.109375 
Q 37.203125 6.109375 41.296875 11.75 
Q 45.40625 17.390625 45.40625 27.296875 
Q 45.40625 37.203125 41.296875 42.84375 
Q 37.203125 48.484375 30.078125 48.484375 
Q 22.953125 48.484375 18.875 42.84375 
Q 14.796875 37.203125 14.796875 27.296875 
z
" id="DejaVuSans-100"/>
     </defs>
     <g transform="translate(18.674688 292.34625)rotate(-90)scale(0.1 -0.1)">
      <use xlink:href="#DejaVuSans-67"/>
      <use x="69.824219" xlink:href="#DejaVuSans-104"/>
      <use x="133.203125" xlink:href="#DejaVuSans-111"/>
      <use x="194.384766" xlink:href="#DejaVuSans-112"/>
      <use x="257.861328" xlink:href="#DejaVuSans-112"/>
      <use x="321.337891" xlink:href="#DejaVuSans-101"/>
      <use x="382.861328" xlink:href="#DejaVuSans-114"/>
      <use x="423.974609" xlink:href="#DejaVuSans-32"/>
      <use x="455.761719" xlink:href="#DejaVuSans-114"/>
      <use x="496.875" xlink:href="#DejaVuSans-97"/>
      <use x="558.154297" xlink:href="#DejaVuSans-100"/>
      <use x="621.630859" xlink:href="#DejaVuSans-105"/>
      <use x="649.414062" xlink:href="#DejaVuSans-117"/>
      <use x="712.792969" xlink:href="#DejaVuSans-115"/>
      <use x="764.892578" xlink:href="#DejaVuSans-32"/>
      <use x="796.679688" xlink:href="#DejaVuSans-91"/>
      <use x="835.693359" xlink:href="#DejaVuSans-109"/>
      <use x="933.105469" xlink:href="#DejaVuSans-93"/>
     </g>
    </g>
   </g>
   <g id="LineCollection_1">
    <path clip-path="url(#p11430cae20)" d="M 54.02 364.532667 
L 56.145025 364.532667 
L 58.27005 364.532667 
L 60.395075 364.532667 
L 62.5201 364.532667 
L 64.645125 364.532667 
L 66.77015 364.532667 
L 68.895175 364.532667 
L 71.0202 364.532667 
L 73.145225 364.532667 
L 75.27025 364.532667 
L 77.395275 364.532667 
L 79.5203 364.532667 
L 81.645325 364.532667 
L 83.77035 364.532667 
L 85.895375 364.532667 
L 88.0204 364.532667 
L 90.145425 364.532667 
L 92.27045 364.532667 
L 94.395475 364.532667 
L 96.5205 364.532667 
L 98.645525 364.532667 
L 100.77055 364.532667 
L 102.895575 364.532667 
L 105.0206 364.532667 
L 107.145625 364.532667 
L 109.27065 364.532667 
L 111.395675 364.532667 
L 113.5207 364.532667 
L 115.645725 364.532667 
L 117.77075 364.532667 
L 119.895775 364.532667 
L 122.0208 364.532667 
L 124.145825 364.532667 
L 126.27085 364.532667 
L 128.395875 363.077333 
L 130.5209 363.077333 
L 132.645925 363.077333 
L 134.77095 363.077333 
L 136.895975 363.077333 
L 139.021 363.077333 
L 141.146025 363.077333 
L 143.27105 363.077333 
L 145.396075 363.077333 
L 147.5211 363.077333 
L 149.646125 363.077333 
L 151.77115 363.077333 
L 153.896175 363.077333 
L 156.0212 363.077333 
L 158.146225 363.077333 
L 160.27125 363.077333 
L 162.396275 361.622 
L 164.5213 361.622 
L 166.646325 361.622 
L 168.77135 361.622 
L 170.896375 361.622 
L 173.0214 361.622 
L 175.146425 361.622 
L 177.27145 361.622 
L 179.396475 361.622 
L 181.5215 361.622 
L 183.646525 361.622 
L 185.77155 360.166667 
L 187.896575 360.166667 
L 190.0216 360.166667 
L 192.146625 360.166667 
L 194.27165 360.166667 
L 196.396675 360.166667 
L 198.5217 360.166667 
L 200.646725 360.166667 
L 202.77175 360.166667 
L 204.896775 360.166667 
L 207.0218 358.711333 
L 209.146825 358.711333 
L 211.27185 358.711333 
L 213.396875 358.711333 
L 215.5219 358.711333 
L 217.646925 358.711333 
L 219.77195 358.711333 
L 221.896975 358.711333 
L 224.022 357.256 
L 226.147025 357.256 
L 228.27205 357.256 
L 230.397075 357.256 
L 232.5221 357.256 
L 234.647125 357.256 
L 236.77215 357.256 
L 238.897175 357.256 
L 241.0222 355.800667 
L 243.147225 355.800667 
L 245.27225 355.800667 
L 247.397275 355.800667 
L 249.5223 355.800667 
L 251.381974 355.800667 
" style="fill:none;stroke:#0000ff;stroke-width:1.5;"/>
    <path clip-path="url(#p11430cae20)" d="M 290.587005 351.434667 
L 292.0228 351.434667 
L 294.147825 349.979333 
L 296.27285 349.979333 
L 298.397875 349.979333 
L 300.5229 349.979333 
L 302.647925 349.979333 
L 304.77295 348.524 
L 306.897975 348.524 
L 309.023 348.524 
L 311.148025 348.524 
L 313.27305 348.524 
L 315.398075 347.068667 
L 317.5231 347.068667 
L 319.648125 347.068667 
L 321.77315 347.068667 
L 323.898175 347.068667 
L 326.0232 347.068667 
L 328.148225 345.613333 
L 330.27325 345.613333 
L 332.398275 345.613333 
L 334.5233 345.613333 
L 336.648325 344.158 
L 338.77335 344.158 
L 340.898375 344.158 
L 343.0234 344.158 
L 345.148425 344.158 
L 347.27345 342.702667 
L 349.398475 342.702667 
L 351.5235 342.702667 
L 353.648525 342.702667 
L 355.77355 342.702667 
L 357.898575 341.247333 
L 360.0236 341.247333 
L 362.148625 341.247333 
L 364.27365 341.247333 
L 366.398675 339.792 
L 368.5237 339.792 
L 370.648725 339.792 
L 372.77375 339.792 
L 374.898775 338.336667 
L 377.0238 338.336667 
L 379.148825 338.336667 
L 381.27385 338.336667 
L 383.398875 338.336667 
L 385.5239 336.881333 
L 387.648925 336.881333 
L 389.77395 336.881333 
L 391.898975 336.881333 
L 394.024 335.426 
L 396.149025 335.426 
L 398.27405 335.426 
L 400.399075 335.426 
L 402.5241 333.970667 
L 404.649125 333.970667 
L 406.77415 333.970667 
L 408.899175 333.970667 
L 411.0242 332.515333 
L 413.149225 332.515333 
L 415.27425 332.515333 
L 417.399275 331.06 
L 419.5243 331.06 
L 421.649325 331.06 
L 423.77435 331.06 
L 425.899375 329.604667 
L 428.0244 329.604667 
L 430.149425 329.604667 
L 432.27445 329.604667 
L 434.399475 328.149333 
L 436.5245 328.149333 
L 438.649525 328.149333 
L 440.77455 328.149333 
L 442.899575 326.694 
L 445.0246 326.694 
L 447.149625 326.694 
L 449.27465 325.238667 
L 451.399675 325.238667 
L 453.5247 325.238667 
L 455.649725 325.238667 
L 457.77475 323.783333 
L 459.899775 323.783333 
L 462.0248 323.783333 
L 464.149825 322.328 
L 466.27485 322.328 
L 468.399875 322.328 
L 470.5249 322.328 
L 472.649925 320.872667 
L 474.77495 320.872667 
L 476.899975 320.872667 
L 479.025 319.417333 
" style="fill:none;stroke:#0000ff;stroke-width:1.5;"/>
   </g>
   <g id="LineCollection_2">
    <path clip-path="url(#p11430cae20)" d="M 54.02 359.074892 
L 102.895575 359.074884 
L 105.0206 357.619568 
L 145.396075 357.619549 
L 147.5211 356.164232 
L 173.0214 356.164214 
L 175.146425 354.708897 
L 194.27165 354.70888 
L 196.396675 353.253563 
L 213.396875 353.253545 
L 215.5219 351.798228 
L 230.397075 351.798211 
L 232.5221 350.342893 
L 245.27225 350.342877 
L 247.397275 348.887559 
L 260.147425 348.887542 
L 262.27245 347.432224 
L 272.897575 347.432208 
L 275.0226 345.97689 
L 285.647725 345.976874 
L 287.77275 344.521556 
L 296.27285 344.521542 
L 298.397875 343.066223 
L 309.023 343.066205 
L 311.148025 341.610887 
L 319.648125 341.610872 
L 321.77315 340.155553 
L 330.27325 340.155537 
L 332.398275 338.700219 
L 340.898375 338.700202 
L 343.0234 337.244884 
L 349.398475 337.244871 
L 351.5235 335.789552 
L 360.0236 335.789535 
L 362.148625 334.334216 
L 368.5237 334.334202 
L 370.648725 332.878883 
L 377.0238 332.87887 
L 379.148825 331.42355 
L 381.008484 331.423546 
L 381.008484 331.423546 
" style="fill:none;stroke:#0000ff;stroke-width:1.5;"/>
    <path clip-path="url(#p11430cae20)" d="M 419.745536 325.450685 
L 420.05512 325.238667 
L 421.649325 324.146879 
L 423.77435 324.146874 
L 425.899375 324.146869 
L 428.0244 324.146864 
L 428.555217 323.783333 
L 430.149425 322.691544 
L 432.27445 322.691539 
L 434.399475 322.691533 
L 434.930297 322.328 
L 436.5245 321.236213 
L 438.649525 321.236208 
L 440.77455 321.236203 
L 442.899575 321.236197 
L 443.430393 320.872667 
L 445.0246 319.780877 
L 447.149625 319.780872 
L 449.27465 319.780866 
L 449.805471 319.417333 
L 451.399675 318.325546 
L 453.5247 318.325541 
L 455.649725 318.325535 
L 457.77475 318.32553 
L 458.305566 317.962 
L 459.899775 316.87021 
L 462.0248 316.870204 
L 464.149825 316.870198 
L 464.680644 316.506667 
L 466.27485 315.414878 
L 468.399875 315.414873 
L 470.5249 315.414867 
L 472.649925 315.414861 
L 473.180738 315.051333 
L 474.77495 313.959541 
L 476.899975 313.959535 
L 479.025 313.959529 
" style="fill:none;stroke:#0000ff;stroke-width:1.5;"/>
   </g>
   <g id="LineCollection_3">
    <path clip-path="url(#p11430cae20)" d="M 54.02 351.434232 
L 56.145025 351.434232 
L 58.27005 351.434232 
L 60.395075 351.434232 
L 62.5201 351.434232 
L 64.645125 351.434232 
L 66.77015 351.434232 
L 68.895175 351.434232 
L 71.0202 351.434231 
L 73.145225 351.434231 
L 75.27025 351.434231 
L 76.282167 351.434231 
" style="fill:none;stroke:#0000ff;stroke-width:1.5;"/>
    <path clip-path="url(#p11430cae20)" d="M 116.334966 349.978906 
L 145.396075 349.978887 
L 147.5211 348.523574 
L 173.0214 348.523552 
L 175.146425 347.068238 
L 194.27165 347.068217 
L 196.396675 345.612904 
L 213.396875 345.612882 
L 215.5219 344.157568 
L 230.397075 344.157547 
L 232.5221 342.702233 
L 245.27225 342.702213 
L 247.397275 341.246898 
L 258.0224 341.246881 
L 260.147425 339.791566 
L 270.77255 339.791547 
L 272.897575 338.336232 
L 283.5227 338.336212 
L 285.647725 336.880897 
L 296.27285 336.880876 
L 298.397875 335.425561 
L 306.897975 335.425543 
L 309.023 333.970227 
L 317.5231 333.970209 
L 319.648125 332.514893 
L 328.148225 332.514874 
L 330.27325 331.059559 
L 338.77335 331.059539 
L 340.898375 329.604223 
L 347.27345 329.604208 
L 349.398475 328.148892 
L 357.898575 328.14887 
L 360.0236 326.693554 
L 366.398675 326.693538 
L 368.5237 325.238222 
L 374.898775 325.238205 
L 377.0238 323.782889 
L 383.398875 323.782872 
L 385.5239 322.327555 
L 391.898975 322.327538 
L 394.024 320.872221 
L 400.399075 320.872203 
L 402.5241 319.416886 
L 408.899175 319.416868 
L 411.0242 317.961551 
L 417.399275 317.961532 
L 419.5243 316.506216 
L 423.77435 316.506203 
L 425.899375 315.050886 
L 432.27445 315.050866 
L 434.399475 313.595549 
L 438.649525 313.595536 
L 440.77455 312.140219 
L 447.149625 312.140199 
L 449.27465 310.684882 
L 453.5247 310.684868 
L 455.649725 309.22955 
L 462.0248 309.22953 
L 464.149825 307.774212 
L 468.399875 307.774198 
L 470.5249 306.318881 
L 474.77495 306.318867 
L 476.899975 304.863549 
L 479.025 304.863542 
L 479.025 304.863542 
" style="fill:none;stroke:#0000ff;stroke-width:1.5;"/>
   </g>
   <g id="LineCollection_4">
    <path clip-path="url(#p11430cae20)" d="M 54.02 343.793606 
L 122.0208 343.793587 
L 124.145825 342.338275 
L 156.0212 342.338251 
L 158.146225 340.882938 
L 179.396475 340.882916 
L 181.5215 339.427603 
L 200.646725 339.42758 
L 202.77175 337.972267 
L 217.646925 337.972246 
L 219.77195 336.516932 
L 234.647125 336.516909 
L 236.77215 335.061596 
L 249.5223 335.061574 
L 251.647325 333.60626 
L 262.27245 333.606241 
L 264.397475 332.150927 
L 275.0226 332.150906 
L 277.147625 330.695592 
L 287.77275 330.69557 
L 289.897775 329.240256 
L 298.397875 329.240237 
L 300.5229 327.784923 
L 309.023 327.784904 
L 310.573403 326.723116 
L 310.573403 326.723116 
" style="fill:none;stroke:#0000ff;stroke-width:1.5;"/>
    <path clip-path="url(#p11430cae20)" d="M 349.619715 321.81205 
L 350.991384 320.872667 
L 351.5235 320.50825 
L 353.648525 320.508244 
L 355.77355 320.508239 
L 357.898575 320.508233 
L 359.491486 319.417333 
L 360.0236 319.052917 
L 362.148625 319.052912 
L 364.27365 319.052906 
L 366.398675 319.0529 
L 367.991586 317.962 
L 368.5237 317.597584 
L 370.648725 317.597579 
L 372.77375 317.597573 
L 374.898775 317.597567 
L 377.0238 317.59756 
L 378.616702 316.506667 
L 379.148825 316.142245 
L 381.27385 316.142239 
L 383.398875 316.142233 
L 385.5239 316.142226 
L 387.116801 315.051333 
L 387.648925 314.68691 
L 389.77395 314.686904 
L 391.898975 314.686898 
L 393.491883 313.596 
L 394.024 313.231582 
L 396.149025 313.231576 
L 398.27405 313.231569 
L 400.399075 313.231563 
L 401.99198 312.140667 
L 402.5241 311.776247 
L 404.649125 311.77624 
L 406.77415 311.776234 
L 408.899175 311.776227 
L 410.492077 310.685333 
L 411.0242 310.320911 
L 413.149225 310.320904 
L 415.27425 310.320898 
L 417.399275 310.320891 
L 418.992172 309.23 
L 419.5243 308.865575 
L 421.649325 308.865568 
L 423.77435 308.865561 
L 425.367252 307.774667 
L 425.899375 307.410244 
L 428.0244 307.410238 
L 430.149425 307.410231 
L 432.27445 307.410224 
L 433.867347 306.319333 
L 434.399475 305.954907 
L 436.5245 305.954901 
L 438.649525 305.954894 
L 440.242425 304.864 
L 440.77455 304.499576 
L 442.899575 304.49957 
L 445.0246 304.499563 
L 447.149625 304.499555 
L 448.742519 303.408667 
L 449.27465 303.044239 
L 451.399675 303.044232 
L 453.5247 303.044224 
L 455.117596 301.953333 
L 455.649725 301.588907 
L 457.77475 301.5889 
L 459.899775 301.588893 
L 461.492674 300.498 
L 462.0248 300.133575 
L 464.149825 300.133568 
L 466.27485 300.133561 
L 468.399875 300.133553 
L 469.992765 299.042667 
L 470.5249 298.678236 
L 472.649925 298.678229 
L 474.77495 298.678221 
L 476.367842 297.587333 
L 476.899975 297.222904 
L 479.025 297.222897 
" style="fill:none;stroke:#0000ff;stroke-width:1.5;"/>
   </g>
   <g id="LineCollection_5">
    <path clip-path="url(#p11430cae20)" d="M 54.02 336.152982 
L 56.145025 336.152982 
L 58.27005 336.152982 
L 60.395075 336.152982 
L 62.5201 336.152982 
L 64.645125 336.152982 
L 66.77015 336.152982 
L 68.895175 336.152981 
L 71.0202 336.152981 
L 73.145225 336.152981 
L 75.27025 336.15298 
L 77.395275 336.15298 
L 79.5203 336.152979 
L 81.645325 336.152979 
L 83.77035 336.152978 
L 85.895375 336.152978 
L 88.0204 336.152977 
L 90.145425 336.152976 
L 92.27045 336.152976 
L 94.395475 336.152975 
L 96.5205 336.152974 
L 98.645525 336.152973 
L 100.77055 336.152972 
L 102.895575 336.152971 
L 105.0206 336.15297 
L 106.08211 335.426 
L 107.145625 334.697657 
L 109.27065 334.697656 
L 111.395675 334.697655 
L 113.5207 334.697654 
L 115.645725 334.697653 
L 117.77075 334.697652 
L 119.895775 334.697651 
L 122.0208 334.69765 
L 124.145825 334.697648 
L 126.27085 334.697647 
L 128.395875 334.697646 
L 130.5209 334.697644 
L 132.645925 334.697643 
L 134.77095 334.697641 
L 136.895975 334.69764 
L 139.021 334.697638 
L 141.146025 334.697636 
L 143.27105 334.697635 
L 145.396075 334.697633 
L 147.5211 334.697631 
L 148.582601 333.970667 
L 149.646125 333.242318 
L 151.77115 333.242316 
L 153.896175 333.242314 
L 156.0212 333.242312 
L 157.456985 333.242311 
" style="fill:none;stroke:#0000ff;stroke-width:1.5;"/>
    <path clip-path="url(#p11430cae20)" d="M 197.085915 330.331644 
L 213.396875 330.331622 
L 215.5219 328.876308 
L 228.27205 328.876289 
L 230.397075 327.420974 
L 243.147225 327.420953 
L 245.27225 325.965638 
L 258.0224 325.965616 
L 260.147425 324.510301 
L 270.77255 324.510281 
L 272.897575 323.054966 
L 281.397675 323.054949 
L 283.5227 321.599634 
L 294.147825 321.599612 
L 296.27285 320.144296 
L 304.77295 320.144278 
L 306.897975 318.688962 
L 315.398075 318.688943 
L 317.5231 317.233627 
L 326.0232 317.233607 
L 328.148225 315.778291 
L 334.5233 315.778275 
L 336.648325 314.322959 
L 345.148425 314.322938 
L 347.27345 312.867622 
L 353.648525 312.867605 
L 355.77355 311.412289 
L 362.148625 311.412272 
L 364.27365 309.956955 
L 370.648725 309.956938 
L 372.77375 308.501621 
L 379.148825 308.501604 
L 381.27385 307.046287 
L 387.648925 307.046269 
L 389.77395 305.590952 
L 396.149025 305.590933 
L 398.27405 304.135616 
L 404.649125 304.135597 
L 406.77415 302.68028 
L 411.0242 302.680267 
L 413.149225 301.22495 
L 419.5243 301.22493 
L 421.649325 299.769613 
L 428.0244 299.769593 
L 430.149425 298.314275 
L 434.399475 298.314262 
L 436.5245 296.858944 
L 440.77455 296.858931 
L 442.899575 295.403613 
L 449.27465 295.403592 
L 451.399675 293.948274 
L 455.649725 293.94826 
L 457.77475 292.492942 
L 462.0248 292.492928 
L 464.149825 291.037609 
L 470.5249 291.037588 
L 472.649925 289.58227 
L 476.899975 289.582255 
L 479.025 288.126937 
L 479.025 288.126937 
" style="fill:none;stroke:#0000ff;stroke-width:1.5;"/>
   </g>
   <g id="LineCollection_6">
    <path clip-path="url(#p11430cae20)" d="M 54.02 327.057035 
L 102.895575 327.057023 
L 105.0206 325.601708 
L 145.396075 325.601682 
L 147.5211 324.146367 
L 170.896375 324.146346 
L 173.0214 322.69103 
L 192.146625 322.691009 
L 194.27165 321.235693 
L 211.27185 321.235671 
L 213.396875 319.780355 
L 228.27205 319.780333 
L 230.397075 318.325017 
L 241.0222 318.325001 
L 243.147225 316.869684 
L 255.897375 316.869663 
L 258.0224 315.414346 
L 268.647525 315.414327 
L 270.77255 313.959011 
L 279.27265 313.958994 
L 281.397675 312.503678 
L 292.0228 312.503656 
L 294.147825 311.04834 
L 302.647925 311.048322 
L 304.77295 309.593005 
L 313.27305 309.592986 
L 315.398075 308.137669 
L 323.898175 308.13765 
L 326.0232 306.682333 
L 332.398275 306.682318 
L 334.5233 305.227 
L 340.898375 305.226985 
L 343.0234 303.771667 
L 351.5235 303.771646 
L 353.648525 302.316329 
L 360.0236 302.316312 
L 362.148625 300.860995 
L 368.5237 300.860978 
L 370.648725 299.40566 
L 377.0238 299.405643 
L 379.148825 297.950325 
L 385.5239 297.950307 
L 387.648925 296.494989 
L 394.024 296.494971 
L 396.149025 295.039653 
L 400.399075 295.039641 
L 402.5241 293.584323 
L 408.899175 293.584304 
L 411.0242 292.128986 
L 415.27425 292.128973 
L 417.399275 290.673654 
L 423.77435 290.673636 
L 425.899375 289.218317 
L 430.149425 289.218304 
L 432.27445 287.762985 
L 438.649525 287.762965 
L 440.77455 286.307646 
L 445.0246 286.307633 
L 446.928388 285.003828 
L 446.928388 285.003828 
" style="fill:none;stroke:#0000ff;stroke-width:1.5;"/>
   </g>
   <g id="LineCollection_7">
    <path clip-path="url(#p11430cae20)" d="M 54.02 312.139805 
L 113.5207 312.139788 
L 115.645725 310.684467 
L 151.77115 310.684446 
L 153.896175 309.229125 
L 175.146425 309.229109 
L 177.27145 307.773788 
L 196.396675 307.77377 
L 198.5217 306.318449 
L 213.396875 306.318434 
L 215.5219 304.863113 
L 228.27205 304.863098 
L 230.397075 303.407777 
L 243.147225 303.407761 
L 245.27225 301.95244 
L 255.897375 301.952426 
L 258.0224 300.497104 
L 268.647525 300.49709 
L 270.77255 299.041768 
L 279.27265 299.041756 
L 281.397675 297.586434 
L 289.897775 297.586421 
L 292.0228 296.131099 
L 300.5229 296.131086 
L 302.647925 294.675763 
L 311.148025 294.67575 
L 313.27305 293.220427 
L 321.77315 293.220413 
L 323.898175 291.765091 
L 330.27325 291.76508 
L 332.398275 290.309757 
L 338.77335 290.309746 
L 340.898375 288.854423 
L 349.398475 288.854408 
L 351.5235 287.399085 
L 357.898575 287.399073 
L 360.0236 285.94375 
L 366.398675 285.943738 
L 368.5237 284.488415 
L 374.898775 284.488403 
L 377.0238 283.03308 
L 378.883463 283.033076 
L 378.883463 283.033076 
" style="fill:none;stroke:#0000ff;stroke-width:1.5;"/>
    <path clip-path="url(#p11430cae20)" d="M 417.240764 275.756402 
L 417.399275 275.756402 
L 419.5243 275.756397 
L 421.647972 274.302 
L 421.649325 274.301074 
L 423.77435 274.301069 
L 425.899375 274.301064 
L 428.023048 272.846667 
L 428.0244 272.845741 
L 430.149425 272.845736 
L 432.27445 272.845731 
L 434.399475 272.845726 
L 436.523141 271.391333 
L 436.5245 271.390403 
L 438.649525 271.390398 
L 440.77455 271.390393 
L 442.898216 269.936 
L 442.899575 269.935069 
L 445.0246 269.935065 
L 447.149625 269.93506 
L 449.273291 268.480667 
L 449.27465 268.479736 
L 451.399675 268.479731 
L 453.5247 268.479726 
L 455.648365 267.025333 
L 455.649725 267.024402 
L 457.77475 267.024397 
L 459.899775 267.024392 
L 462.02344 265.57 
L 462.0248 265.569068 
L 464.149825 265.569063 
L 466.27485 265.569058 
L 468.398513 264.114667 
L 468.399875 264.113734 
L 470.5249 264.113729 
L 472.649925 264.113724 
L 474.773587 262.659333 
L 474.77495 262.6584 
L 476.899975 262.658395 
L 479.025 262.65839 
" style="fill:none;stroke:#0000ff;stroke-width:1.5;"/>
   </g>
   <g id="LineCollection_8">
    <path clip-path="url(#p11430cae20)" d="M 54.02 298.677863 
L 56.145025 298.677862 
L 58.27005 298.677862 
L 60.395075 298.677862 
L 62.5201 298.677861 
L 64.645125 298.677861 
L 66.77015 298.67786 
L 68.895175 298.67786 
L 71.0202 298.677859 
L 73.145225 298.677859 
L 75.27025 298.677858 
L 77.395275 298.677858 
L 79.5203 298.677857 
L 81.645325 298.677856 
L 83.77035 298.677856 
L 85.895375 298.677855 
L 88.0204 298.677854 
L 90.145425 298.677854 
L 92.27045 298.677853 
L 94.395475 298.677852 
L 96.5205 298.677851 
L 98.645525 298.677851 
L 100.77055 298.67785 
L 102.895575 298.677849 
L 105.0206 298.677848 
L 107.145625 298.677847 
L 109.27065 298.677846 
L 111.395675 298.677845 
L 113.5207 298.677844 
L 115.645725 298.677843 
L 117.77075 298.677842 
L 119.895775 298.677841 
L 122.0208 298.67784 
L 124.145825 298.677838 
L 126.27085 298.677837 
L 128.395875 298.677836 
L 130.5209 298.677835 
L 132.113222 297.587333 
L 132.645925 297.222513 
L 134.77095 297.222512 
L 136.895975 297.22251 
L 139.021 297.222509 
L 141.146025 297.222508 
L 143.27105 297.222506 
L 145.396075 297.222505 
L 147.5211 297.222504 
L 149.646125 297.222502 
L 151.77115 297.222501 
L 153.896175 297.222499 
L 156.0212 297.222498 
L 158.146225 297.222496 
L 160.27125 297.222494 
L 161.863562 296.132 
L 162.396275 295.767172 
L 164.5213 295.767171 
L 166.646325 295.767169 
L 168.77135 295.767167 
L 170.896375 295.767166 
L 173.0214 295.767164 
L 175.146425 295.767162 
L 177.27145 295.76716 
L 179.396475 295.767159 
L 181.5215 295.767157 
L 183.113805 294.676667 
L 183.646525 294.311834 
L 185.77155 294.311833 
L 187.896575 294.311831 
L 190.0216 294.311829 
L 192.146625 294.311827 
L 194.27165 294.311825 
L 196.396675 294.311823 
L 198.5217 294.311821 
L 200.646725 294.311818 
L 202.239023 293.221333 
L 202.77175 292.856496 
L 204.896775 292.856494 
L 207.0218 292.856492 
L 209.146825 292.85649 
L 211.27185 292.856488 
L 213.396875 292.856485 
L 215.5219 292.856483 
L 217.646925 292.856481 
L 219.239216 291.766 
L 219.77195 291.401158 
L 221.896975 291.401156 
L 224.022 291.401153 
L 226.147025 291.401151 
L 228.27205 291.401149 
L 230.397075 291.401146 
L 232.5221 291.401144 
L 234.114386 290.310667 
L 234.647125 289.945821 
L 236.082915 289.945819 
" style="fill:none;stroke:#0000ff;stroke-width:1.5;"/>
    <path clip-path="url(#p11430cae20)" d="M 275.287962 285.579808 
L 277.147625 285.579806 
L 279.27265 285.579803 
L 281.397675 285.579799 
L 282.989945 284.489333 
L 283.5227 284.124476 
L 285.647725 284.124473 
L 287.77275 284.12447 
L 289.897775 284.124467 
L 292.0228 284.124464 
L 293.615066 283.034 
L 294.147825 282.669141 
L 296.27285 282.669138 
L 298.397875 282.669134 
L 300.5229 282.669131 
L 302.647925 282.669128 
L 304.240187 281.578667 
L 304.77295 281.213804 
L 306.897975 281.213801 
L 309.023 281.213798 
L 311.148025 281.213794 
L 312.740287 280.123333 
L 313.27305 279.758471 
L 315.398075 279.758468 
L 317.5231 279.758464 
L 319.648125 279.758461 
L 321.77315 279.758457 
L 323.365406 278.668 
L 323.898175 278.303134 
L 326.0232 278.30313 
L 328.148225 278.303127 
L 330.27325 278.303123 
L 331.865505 277.212667 
L 332.398275 276.847799 
L 334.5233 276.847796 
L 336.648325 276.847792 
L 338.77335 276.847788 
L 340.365603 275.757333 
L 340.898375 275.392465 
L 343.0234 275.392461 
L 345.148425 275.392457 
L 347.27345 275.392453 
L 349.398475 275.39245 
L 350.99072 274.302 
L 351.5235 273.937126 
L 353.648525 273.937122 
L 355.77355 273.937118 
L 357.365797 272.846667 
L 357.898575 272.481794 
L 360.0236 272.481791 
L 362.148625 272.481787 
L 364.27365 272.481783 
L 365.865894 271.391333 
L 366.398675 271.026459 
L 368.5237 271.026455 
L 370.648725 271.026451 
L 372.77375 271.026447 
L 374.36599 269.936 
L 374.898775 269.571123 
L 377.0238 269.571119 
L 379.148825 269.571115 
L 381.27385 269.57111 
L 382.866086 268.480667 
L 383.398875 268.115786 
L 385.5239 268.115782 
L 387.648925 268.115778 
L 389.241162 267.025333 
L 389.77395 266.660454 
L 391.898975 266.66045 
L 394.024 266.660445 
L 396.149025 266.660441 
L 397.741257 265.57 
L 398.27405 265.205117 
L 400.399075 265.205113 
L 402.5241 265.205108 
L 404.116332 264.114667 
L 404.649125 263.749784 
L 406.77415 263.74978 
L 408.899175 263.749775 
L 411.0242 263.749771 
L 412.616426 262.659333 
L 413.149225 262.294447 
L 415.27425 262.294442 
L 417.399275 262.294438 
L 418.991501 261.204 
L 419.5243 260.839113 
L 421.649325 260.839109 
L 423.77435 260.839104 
L 425.366576 259.748667 
L 425.899375 259.38378 
L 428.0244 259.383775 
L 430.149425 259.383771 
L 432.27445 259.383766 
L 433.866669 258.293333 
L 434.399475 257.928441 
L 436.5245 257.928437 
L 438.649525 257.928432 
L 440.241743 256.838 
L 440.77455 256.473107 
L 442.899575 256.473103 
L 445.0246 256.473098 
L 446.616817 255.382667 
L 447.149625 255.017773 
L 449.27465 255.017769 
L 451.399675 255.017764 
L 452.991891 253.927333 
L 453.5247 253.562439 
L 455.649725 253.562434 
L 457.77475 253.562429 
L 459.366964 252.472 
L 459.899775 252.107105 
L 462.0248 252.1071 
L 464.149825 252.107095 
L 465.742037 251.016667 
L 466.27485 250.65177 
L 468.399875 250.651765 
L 470.5249 250.65176 
L 472.11711 249.561333 
L 472.649925 249.196435 
L 474.77495 249.19643 
L 476.899975 249.196425 
L 478.492183 248.106 
L 479.025 247.7411 
" style="fill:none;stroke:#0000ff;stroke-width:1.5;"/>
   </g>
   <g id="LineCollection_9">
    <path clip-path="url(#p11430cae20)" d="M 54.02 283.760579 
L 126.27085 283.760551 
L 128.395875 282.305229 
L 156.0212 282.30521 
L 158.146225 280.849887 
L 179.396475 280.84987 
L 181.5215 279.394547 
L 198.5217 279.394531 
L 200.646725 277.939208 
L 213.396875 277.939194 
L 215.5219 276.483871 
L 228.27205 276.483857 
L 230.397075 275.028533 
L 243.147225 275.028518 
L 245.27225 273.573195 
L 253.77235 273.573184 
L 255.897375 272.11786 
L 266.5225 272.117846 
L 268.647525 270.662522 
L 277.147625 270.66251 
L 279.27265 269.207187 
L 287.77275 269.207174 
L 289.897775 267.75185 
L 298.397875 267.751837 
L 300.5229 266.296513 
L 306.897975 266.296504 
L 307.737554 265.721517 
L 307.737554 265.721517 
" style="fill:none;stroke:#0000ff;stroke-width:1.5;"/>
    <path clip-path="url(#p11430cae20)" d="M 346.262321 259.019834 
L 347.27345 259.019832 
L 349.398475 259.019829 
L 351.5235 259.019825 
L 352.584302 258.293333 
L 353.648525 257.5645 
L 355.77355 257.564496 
L 357.898575 257.564493 
L 360.0236 257.564489 
L 361.084398 256.838 
L 362.148625 256.109164 
L 364.27365 256.10916 
L 366.398675 256.109156 
L 368.5237 256.109152 
L 369.584493 255.382667 
L 370.648725 254.653828 
L 372.77375 254.653824 
L 374.898775 254.653819 
L 375.959569 253.927333 
L 377.0238 253.198495 
L 379.148825 253.198491 
L 381.27385 253.198487 
L 383.398875 253.198482 
L 384.459664 252.472 
L 385.5239 251.743158 
L 387.648925 251.743154 
L 389.77395 251.743149 
L 390.834739 251.016667 
L 391.898975 250.287824 
L 394.024 250.28782 
L 396.149025 250.287816 
L 398.27405 250.287812 
L 399.334832 249.561333 
L 400.399075 248.832487 
L 402.5241 248.832483 
L 404.649125 248.832478 
L 405.709907 248.106 
L 406.77415 247.377153 
L 408.899175 247.377149 
L 411.0242 247.377144 
L 412.084982 246.650667 
L 413.149225 245.921819 
L 415.27425 245.921815 
L 417.399275 245.921811 
L 419.5243 245.921806 
L 420.585074 245.195333 
L 421.649325 244.466481 
L 423.77435 244.466477 
L 425.899375 244.466472 
L 426.960148 243.74 
L 428.0244 243.011147 
L 430.149425 243.011142 
L 432.27445 243.011138 
L 433.335221 242.284667 
L 434.399475 241.555812 
L 436.5245 241.555808 
L 438.649525 241.555803 
L 439.710295 240.829333 
L 440.77455 240.100478 
L 442.899575 240.100473 
L 445.0246 240.100468 
L 446.085368 239.374 
L 447.149625 238.645143 
L 449.27465 238.645138 
L 451.399675 238.645134 
L 452.460441 237.918667 
L 453.5247 237.189808 
L 455.649725 237.189804 
L 457.77475 237.189799 
L 458.835513 236.463333 
L 459.899775 235.734473 
L 462.0248 235.734468 
L 464.149825 235.734463 
L 465.210585 235.008 
L 466.27485 234.279138 
L 468.399875 234.279133 
L 470.5249 234.279128 
L 471.585658 233.552667 
L 472.649925 232.823803 
L 474.77495 232.823798 
L 475.835712 232.097333 
L 476.899975 231.368472 
L 479.025 231.368467 
" style="fill:none;stroke:#0000ff;stroke-width:1.5;"/>
   </g>
   <g id="LineCollection_10">
    <path clip-path="url(#p11430cae20)" d="M 54.02 265.93263 
L 130.5209 265.932597 
L 132.645925 264.477273 
L 158.146225 264.477255 
L 160.27125 263.021931 
L 179.396475 263.021915 
L 181.5215 261.566591 
L 198.5217 261.566575 
L 200.646725 260.111251 
L 213.396875 260.111237 
L 215.5219 258.655913 
L 228.27205 258.655899 
L 230.397075 257.200575 
L 241.0222 257.200562 
L 243.147225 255.745238 
L 253.77235 255.745224 
L 255.897375 254.2899 
L 264.397475 254.289888 
L 266.5225 252.834564 
L 275.0226 252.834552 
L 277.147625 251.379227 
L 285.647725 251.379215 
L 287.77275 249.92389 
L 296.27285 249.923878 
L 298.397875 248.468553 
L 304.77295 248.468543 
L 306.897975 247.013218 
L 313.27305 247.013208 
L 315.398075 245.557883 
L 323.898175 245.557869 
L 326.0232 244.102544 
L 332.398275 244.102533 
L 334.5233 242.647208 
L 340.898375 242.647197 
L 343.0234 241.191872 
L 347.27345 241.191865 
L 349.398475 239.73654 
L 355.77355 239.736528 
L 357.898575 238.281203 
L 364.27365 238.281191 
L 366.398675 236.825866 
L 370.648725 236.825858 
L 372.77375 235.370533 
L 375.05729 235.370528 
L 375.05729 235.370528 
" style="fill:none;stroke:#0000ff;stroke-width:1.5;"/>
    <path clip-path="url(#p11430cae20)" d="M 413.370456 227.942335 
L 413.678554 227.731333 
L 415.27425 226.63852 
L 417.399275 226.638516 
L 419.5243 226.638511 
L 420.053627 226.276 
L 421.649325 225.183185 
L 423.77435 225.183181 
L 425.899375 225.183176 
L 426.4287 224.820667 
L 428.0244 223.72785 
L 430.149425 223.727846 
L 432.27445 223.727841 
L 432.803773 223.365333 
L 434.399475 222.272515 
L 436.5245 222.272511 
L 438.649525 222.272506 
L 439.178845 221.91 
L 440.77455 220.81718 
L 442.899575 220.817176 
L 445.0246 220.817171 
L 445.553917 220.454667 
L 447.149625 219.361845 
L 449.27465 219.36184 
L 451.399675 219.361835 
L 451.928989 218.999333 
L 453.5247 217.906509 
L 455.649725 217.906505 
L 457.77475 217.9065 
L 458.304061 217.544 
L 459.899775 216.451174 
L 462.0248 216.451169 
L 462.554114 216.088667 
L 464.149825 214.995843 
L 466.27485 214.995838 
L 468.399875 214.995833 
L 468.929186 214.633333 
L 470.5249 213.540507 
L 472.649925 213.540502 
L 474.77495 213.540497 
L 475.304257 213.178 
L 476.899975 212.085171 
L 479.025 212.085166 
" style="fill:none;stroke:#0000ff;stroke-width:1.5;"/>
   </g>
   <g id="LineCollection_11">
    <path clip-path="url(#p11430cae20)" d="M 54.02 235.006733 
L 117.77075 235.006709 
L 119.895775 233.551381 
L 149.646125 233.551365 
L 151.77115 232.096037 
L 170.896375 232.096025 
L 173.0214 230.640697 
L 190.0216 230.640685 
L 192.146625 229.185357 
L 204.896775 229.185347 
L 207.0218 227.730019 
L 219.77195 227.730009 
L 221.896975 226.27468 
L 232.5221 226.274671 
L 234.647125 224.819343 
L 243.147225 224.819335 
L 245.27225 223.364007 
L 255.897375 223.363997 
L 258.0224 221.908669 
L 266.5225 221.908661 
L 268.647525 220.453332 
L 277.147625 220.453324 
L 279.27265 218.997995 
L 285.647725 218.997989 
L 287.77275 217.54266 
L 294.147825 217.542653 
L 296.27285 216.087324 
L 304.905109 215.996806 
L 304.905109 215.996806 
" style="fill:none;stroke:#0000ff;stroke-width:1.5;"/>
    <path clip-path="url(#p11430cae20)" d="M 343.288756 208.810639 
L 345.148425 208.810637 
L 347.271466 207.356667 
L 347.27345 207.355308 
L 349.398475 207.355306 
L 351.5235 207.355303 
L 353.64654 205.901333 
L 353.648525 205.899974 
L 355.77355 205.899971 
L 357.898575 205.899969 
L 360.0236 205.899966 
L 362.146635 204.446 
L 362.148625 204.444637 
L 364.27365 204.444635 
L 366.398675 204.444632 
L 368.521708 202.990667 
L 368.5237 202.989303 
L 370.648725 202.9893 
L 372.77375 202.989297 
L 374.896782 201.535333 
L 374.898775 201.533968 
L 377.0238 201.533966 
L 379.148825 201.533963 
L 381.271855 200.08 
L 381.27385 200.078634 
L 383.398875 200.078631 
L 385.5239 200.078628 
L 387.648925 200.078625 
L 389.771949 198.624667 
L 389.77395 198.623296 
L 391.898975 198.623293 
L 394.024 198.623291 
L 396.147022 197.169333 
L 396.149025 197.167961 
L 398.27405 197.167958 
L 400.399075 197.167956 
L 402.522094 195.714 
L 402.5241 195.712626 
L 404.649125 195.712624 
L 406.77415 195.712621 
L 408.897167 194.258667 
L 408.899175 194.257291 
L 411.0242 194.257288 
L 413.149225 194.257286 
L 415.272239 192.803333 
L 415.27425 192.801956 
L 417.399275 192.801953 
L 419.5243 192.80195 
L 421.647311 191.348 
L 421.649325 191.346621 
L 423.77435 191.346618 
L 425.897362 189.892667 
L 425.899375 189.891288 
L 428.0244 189.891286 
L 430.149425 189.891283 
L 432.272434 188.437333 
L 432.27445 188.435953 
L 434.399475 188.43595 
L 436.5245 188.435947 
L 438.647506 186.982 
L 438.649525 186.980618 
L 440.77455 186.980615 
L 442.899575 186.980612 
L 445.022578 185.526667 
L 445.0246 185.525282 
L 447.149625 185.525279 
L 449.27465 185.525276 
L 451.39765 184.071333 
L 451.399675 184.069946 
L 453.5247 184.069943 
L 455.647701 182.616 
L 455.649725 182.614614 
L 457.77475 182.614611 
L 459.899775 182.614607 
L 462.022772 181.160667 
L 462.0248 181.159278 
L 464.149825 181.159275 
L 466.272823 179.705333 
L 466.27485 179.703945 
L 468.399875 179.703942 
L 470.5249 179.703939 
L 472.647894 178.25 
L 472.649925 178.248609 
L 474.77495 178.248606 
L 476.899975 178.248603 
L 479.022965 176.794667 
L 479.025 176.793273 
" style="fill:none;stroke:#0000ff;stroke-width:1.5;"/>
   </g>
   <g id="LineCollection_12">
    <path clip-path="url(#p11430cae20)" d="M 54.02 206.99145 
L 122.0208 206.991421 
L 124.145825 205.536093 
L 149.646125 205.536078 
L 151.77115 204.080749 
L 170.896375 204.080737 
L 173.0214 202.625408 
L 187.896575 202.625397 
L 190.0216 201.170069 
L 202.77175 201.170059 
L 204.896775 199.71473 
L 217.646925 199.71472 
L 219.77195 198.259391 
L 230.397075 198.259382 
L 232.5221 196.804053 
L 241.0222 196.804045 
L 243.147225 195.348716 
L 251.647325 195.348708 
L 253.77235 193.893379 
L 262.27245 193.893371 
L 264.397475 192.438042 
L 272.897575 192.438034 
L 275.0226 190.982705 
L 281.397675 190.982698 
L 283.5227 189.527369 
L 289.897775 189.527362 
L 292.0228 188.072033 
L 298.397875 188.072026 
L 300.5229 186.616697 
L 306.897975 186.61669 
L 309.023 185.161361 
L 315.398075 185.161353 
L 317.5231 183.706024 
L 323.898175 183.706017 
L 326.0232 182.250687 
L 330.27325 182.250682 
L 332.398275 180.795353 
L 338.77335 180.795345 
L 340.898375 179.340016 
L 345.148425 179.340011 
L 347.27345 177.884681 
L 351.5235 177.884676 
L 353.648525 176.429347 
L 360.0236 176.429339 
L 362.148625 174.974009 
L 366.398675 174.974004 
L 368.5237 173.518674 
L 370.807247 173.518671 
L 370.807247 173.518671 
" style="fill:none;stroke:#0000ff;stroke-width:1.5;"/>
    <path clip-path="url(#p11430cae20)" d="M 408.740653 164.78666 
L 408.899175 164.78666 
L 411.0242 164.786657 
L 412.615767 163.696667 
L 413.149225 163.331327 
L 415.27425 163.331324 
L 416.865818 162.241333 
L 417.399275 161.875994 
L 419.5243 161.875991 
L 421.649325 161.875988 
L 423.240889 160.786 
L 423.77435 160.420658 
L 425.899375 160.420655 
L 428.0244 160.420652 
L 429.61596 159.330667 
L 430.149425 158.965322 
L 432.27445 158.965319 
L 433.866011 157.875333 
L 434.399475 157.509989 
L 436.5245 157.509986 
L 438.649525 157.509983 
L 440.241082 156.42 
L 440.77455 156.054653 
L 442.899575 156.05465 
L 445.0246 156.054647 
L 446.616153 154.964667 
L 447.149625 154.599317 
L 449.27465 154.599314 
L 450.866203 153.509333 
L 451.399675 153.143984 
L 453.5247 153.143981 
L 455.649725 153.143978 
L 457.241274 152.054 
L 457.77475 151.688648 
L 459.899775 151.688645 
L 461.491324 150.598667 
L 462.0248 150.233315 
L 464.149825 150.233311 
L 466.27485 150.233308 
L 467.866395 149.143333 
L 468.399875 148.777978 
L 470.5249 148.777975 
L 472.116445 147.688 
L 472.649925 147.322645 
L 474.77495 147.322642 
L 476.366495 146.232667 
L 476.899975 145.867311 
L 479.025 145.867308 
" style="fill:none;stroke:#0000ff;stroke-width:1.5;"/>
   </g>
   <g id="LineCollection_13">
    <path clip-path="url(#p11430cae20)" d="M 54.02 173.15483 
L 107.145625 173.154806 
L 109.27065 171.699478 
L 141.146025 171.699459 
L 143.27105 170.244131 
L 162.396275 170.244118 
L 164.5213 168.788789 
L 179.396475 168.788778 
L 181.5215 167.333449 
L 194.27165 167.333439 
L 196.396675 165.87811 
L 209.146825 165.878099 
L 211.27185 164.42277 
L 221.896975 164.42276 
L 224.022 162.967431 
L 232.5221 162.967423 
L 234.647125 161.512094 
L 243.147225 161.512086 
L 245.27225 160.056757 
L 253.77235 160.056748 
L 255.897375 158.601419 
L 262.27245 158.601413 
L 264.397475 157.146083 
L 272.897575 157.146074 
L 275.0226 155.690745 
L 281.397675 155.690738 
L 283.5227 154.235409 
L 289.897775 154.235401 
L 292.0228 152.780072 
L 296.27285 152.780067 
L 298.397875 151.324738 
L 304.77295 151.32473 
L 306.897975 149.869401 
L 313.27305 149.869393 
L 315.398075 148.414064 
L 319.648125 148.414058 
L 321.77315 146.958729 
L 328.148225 146.958721 
L 330.27325 145.503391 
L 334.5233 145.503386 
L 336.648325 144.048056 
L 340.898375 144.048051 
L 343.0234 142.592721 
L 347.27345 142.592716 
L 349.398475 141.137386 
L 353.648525 141.137381 
L 355.77355 139.682051 
L 360.0236 139.682045 
L 362.148625 138.226715 
L 366.398675 138.22671 
L 368.5237 136.77138 
L 372.77375 136.771374 
L 374.898775 135.316044 
L 379.148825 135.316038 
L 381.27385 133.860708 
L 385.5239 133.860702 
L 387.648925 132.405373 
L 391.898975 132.405367 
L 394.024 130.950037 
L 396.149025 130.950034 
L 398.27405 129.494704 
L 402.5241 129.494697 
L 404.649125 128.039367 
L 408.899175 128.039361 
L 411.0242 126.584031 
L 413.149225 126.584028 
L 415.27425 125.128698 
L 419.5243 125.128692 
L 421.649325 123.673362 
L 425.899375 123.673355 
L 428.0244 122.218025 
L 430.149425 122.218022 
L 430.634973 121.885493 
L 430.634973 121.885493 
" style="fill:none;stroke:#0000ff;stroke-width:1.5;"/>
    <path clip-path="url(#p11430cae20)" d="M 467.914327 110.907876 
L 468.399875 110.575347 
L 470.5249 110.575343 
L 471.584995 109.849333 
L 472.649925 109.120013 
L 474.77495 109.12001 
L 475.835044 108.394 
L 476.899975 107.664679 
L 479.025 107.664676 
" style="fill:none;stroke:#0000ff;stroke-width:1.5;"/>
   </g>
   <g id="LineCollection_14">
    <path clip-path="url(#p11430cae20)" d="M 54.02 129.13088 
L 66.77015 129.130875 
L 68.895175 130.586202 
L 75.27025 130.586199 
L 77.395275 129.13087 
L 128.395875 129.130842 
L 130.5209 127.675513 
L 151.77115 127.675498 
L 153.896175 126.220169 
L 170.896375 126.220156 
L 173.0214 124.764827 
L 185.77155 124.764817 
L 187.896575 123.309488 
L 198.5217 123.309478 
L 200.646725 121.854149 
L 211.27185 121.854139 
L 213.396875 120.39881 
L 221.896975 120.398802 
L 224.022 118.943473 
L 232.5221 118.943464 
L 234.647125 117.488135 
L 243.147225 117.488126 
L 245.27225 116.032797 
L 251.647325 116.03279 
L 253.77235 114.57746 
L 260.147425 114.577453 
L 262.27245 113.122124 
L 268.647525 113.122116 
L 270.77255 111.666787 
L 277.147625 111.66678 
L 279.27265 110.21145 
L 285.647725 110.211442 
L 287.77275 108.756113 
L 294.147825 108.756105 
L 296.27285 107.300775 
L 296.64168 107.300775 
L 296.64168 107.300775 
" style="fill:none;stroke:#0000ff;stroke-width:1.5;"/>
    <path clip-path="url(#p11430cae20)" d="M 334.919862 99.752504 
L 335.052012 99.662 
L 336.648325 98.568761 
L 338.77335 98.568758 
L 340.898375 98.568755 
L 341.427084 98.206667 
L 343.0234 97.113425 
L 345.148425 97.113422 
L 347.27345 97.113419 
L 347.802155 96.751333 
L 349.398475 95.658089 
L 351.5235 95.658086 
L 353.648525 95.658083 
L 354.177226 95.296 
L 355.77355 94.202753 
L 357.898575 94.20275 
L 360.0236 94.202747 
L 360.552297 93.840667 
L 362.148625 92.747417 
L 364.27365 92.747414 
L 364.802348 92.385333 
L 366.398675 91.292084 
L 368.5237 91.292081 
L 370.648725 91.292078 
L 371.177418 90.93 
L 372.77375 89.836748 
L 374.898775 89.836745 
L 377.0238 89.836741 
L 377.552489 89.474667 
L 379.148825 88.381411 
L 381.27385 88.381408 
L 383.398875 88.381405 
L 383.927559 88.019333 
L 385.5239 86.926075 
L 387.648925 86.926072 
L 388.177609 86.564 
L 389.77395 85.470741 
L 391.898975 85.470738 
L 394.024 85.470735 
L 394.552679 85.108667 
L 396.149025 84.015405 
L 398.27405 84.015401 
L 398.802729 83.653333 
L 400.399075 82.560071 
L 402.5241 82.560068 
L 404.649125 82.560064 
L 405.177799 82.198 
L 406.77415 81.104734 
L 408.899175 81.104731 
L 409.427849 80.742667 
L 411.0242 79.649401 
L 413.149225 79.649397 
L 415.27425 79.649394 
L 415.802918 79.287333 
L 417.399275 78.194064 
L 419.5243 78.19406 
L 420.052968 77.832 
L 421.649325 76.73873 
L 423.77435 76.738726 
L 424.303017 76.376667 
L 425.899375 75.283396 
L 428.0244 75.283393 
L 430.149425 75.283389 
L 430.678086 74.921333 
L 432.27445 73.828059 
L 434.399475 73.828055 
L 434.928135 73.466 
L 436.5245 72.372725 
L 438.649525 72.372721 
L 439.178184 72.010667 
L 440.77455 70.917391 
L 442.899575 70.917387 
L 443.428233 70.555333 
L 445.0246 69.462057 
L 447.149625 69.462053 
L 449.27465 69.46205 
L 449.803302 69.1 
L 451.399675 68.006719 
L 453.5247 68.006716 
L 454.053351 67.644667 
L 455.649725 66.551385 
L 457.77475 66.551381 
L 458.3034 66.189333 
L 459.899775 65.096051 
L 462.0248 65.096047 
L 462.553449 64.734 
L 464.149825 63.640717 
L 466.27485 63.640713 
L 466.803497 63.278667 
L 468.399875 62.185382 
L 470.5249 62.185379 
L 471.053546 61.823333 
L 472.649925 60.730048 
L 474.77495 60.730044 
L 476.899975 60.730041 
L 477.428614 60.368 
L 479.025 59.27471 
" style="fill:none;stroke:#0000ff;stroke-width:1.5;"/>
   </g>
   <g id="LineCollection_15">
    <path clip-path="url(#p11430cae20)" d="M 54.02 41.447004 
L 56.145025 41.447003 
L 58.27005 41.447003 
L 60.395075 41.447002 
L 62.5201 41.447001 
L 64.645125 41.447 
L 66.77015 41.446999 
L 68.895175 41.446998 
L 71.0202 41.446997 
L 73.145225 41.446996 
L 75.27025 41.446995 
L 76.282167 41.446995 
" style="fill:none;stroke:#0000ff;stroke-width:1.5;"/>
    <path clip-path="url(#p11430cae20)" d="M 116.334955 39.991644 
L 117.77075 39.991644 
L 119.895775 39.991643 
L 122.0208 39.991641 
L 124.145825 39.99164 
L 126.27085 39.991639 
L 128.395875 39.991638 
L 130.5209 39.991637 
L 132.645925 39.991636 
L 134.77095 39.991635 
L 136.895975 39.991634 
L 139.01852 38.538 
L 139.021 38.536301 
L 141.146025 38.5363 
L 143.27105 38.536299 
L 145.396075 38.536298 
L 147.5211 38.536297 
L 149.646125 38.536296 
L 151.77115 38.536294 
L 153.896175 38.536293 
L 156.0212 38.536292 
L 158.143733 37.082667 
L 158.146225 37.08096 
L 160.27125 37.080958 
L 162.396275 37.080957 
L 164.5213 37.080956 
L 166.646325 37.080955 
L 168.77135 37.080954 
L 170.896375 37.080952 
L 173.018898 35.627333 
L 173.0214 35.62562 
L 175.146425 35.625619 
L 177.27145 35.625617 
L 179.396475 35.625616 
L 181.5215 35.625615 
L 183.646525 35.625614 
L 185.76904 34.172 
L 185.77155 34.170281 
L 187.896575 34.17028 
L 190.0216 34.170279 
L 192.146625 34.170277 
L 194.27165 34.170276 
L 196.396675 34.170275 
L 198.519182 32.716667 
L 198.5217 32.714942 
L 200.646725 32.714941 
L 202.77175 32.71494 
L 204.896775 32.714938 
L 207.0218 32.714937 
L 209.144301 31.261333 
L 209.146825 31.259605 
L 211.27185 31.259603 
L 213.396875 31.259602 
L 215.5219 31.259601 
L 217.646925 31.259599 
L 219.769419 29.806 
L 219.77195 29.804267 
L 221.896975 29.804265 
L 224.022 29.804264 
L 226.147025 29.804263 
L 228.269514 28.350667 
L 228.27205 28.34893 
L 230.397075 28.348929 
L 232.5221 28.348927 
L 234.647125 28.348926 
L 236.769609 26.895333 
L 236.77215 26.893593 
L 238.897175 26.893592 
L 241.0222 26.893591 
L 243.147225 26.893589 
L 245.269704 25.44 
" style="fill:none;stroke:#0000ff;stroke-width:1.5;"/>
   </g>
   <g id="LineCollection_16"/>
   <g id="LineCollection_17"/>
   <g id="LineCollection_18"/>
   <g id="LineCollection_19"/>
   <g id="patch_3">
    <path d="M 54.02 462.04 
L 54.02 25.44 
" style="fill:none;stroke:#000000;stroke-linecap:square;stroke-linejoin:miter;stroke-width:0.8;"/>
   </g>
   <g id="patch_4">
    <path d="M 479.025 462.04 
L 479.025 25.44 
" style="fill:none;stroke:#000000;stroke-linecap:square;stroke-linejoin:miter;stroke-width:0.8;"/>
   </g>
   <g id="patch_5">
    <path d="M 54.02 462.04 
L 479.025 462.04 
" style="fill:none;stroke:#000000;stroke-linecap:square;stroke-linejoin:miter;stroke-width:0.8;"/>
   </g>
   <g id="patch_6">
    <path d="M 54.02 25.44 
L 479.025 25.44 
" style="fill:none;stroke:#000000;stroke-linecap:square;stroke-linejoin:miter;stroke-width:0.8;"/>
   </g>
   <g id="text_19">
    <g clip-path="url(#p11430cae20)">
     <!-- 0.000 -->
     <g style="fill:#0000ff;" transform="translate(256.757627 356.901043)rotate(-5.059743)scale(0.1 -0.1)">
      <use xlink:href="#DejaVuSans-48"/>
      <use x="63.623047" xlink:href="#DejaVuSans-46"/>
      <use x="95.410156" xlink:href="#DejaVuSans-48"/>
      <use x="159.033203" xlink:href="#DejaVuSans-48"/>
      <use x="222.65625" xlink:href="#DejaVuSans-48"/>
     </g>
    </g>
   </g>
   <g id="text_20">
    <g clip-path="url(#p11430cae20)">
     <!-- 0.050 -->
     <g style="fill:#0000ff;" transform="translate(386.81008 333.789781)rotate(-10.311021)scale(0.1 -0.1)">
      <use xlink:href="#DejaVuSans-48"/>
      <use x="63.623047" xlink:href="#DejaVuSans-46"/>
      <use x="95.410156" xlink:href="#DejaVuSans-48"/>
      <use x="159.033203" xlink:href="#DejaVuSans-53"/>
      <use x="222.65625" xlink:href="#DejaVuSans-48"/>
     </g>
    </g>
   </g>
   <g id="text_21">
    <g clip-path="url(#p11430cae20)">
     <!-- 0.100 -->
     <g style="fill:#0000ff;" transform="translate(82.340511 354.815713)rotate(-2.501488)scale(0.1 -0.1)">
      <use xlink:href="#DejaVuSans-48"/>
      <use x="63.623047" xlink:href="#DejaVuSans-46"/>
      <use x="95.410156" xlink:href="#DejaVuSans-49"/>
      <use x="159.033203" xlink:href="#DejaVuSans-48"/>
      <use x="222.65625" xlink:href="#DejaVuSans-48"/>
     </g>
    </g>
   </g>
   <g id="text_22">
    <g clip-path="url(#p11430cae20)">
     <!-- 0.150 -->
     <g style="fill:#0000ff;" transform="translate(316.455227 329.518452)rotate(-7.66615)scale(0.1 -0.1)">
      <use xlink:href="#DejaVuSans-48"/>
      <use x="63.623047" xlink:href="#DejaVuSans-46"/>
      <use x="95.410156" xlink:href="#DejaVuSans-49"/>
      <use x="159.033203" xlink:href="#DejaVuSans-53"/>
      <use x="222.65625" xlink:href="#DejaVuSans-48"/>
     </g>
    </g>
   </g>
   <g id="text_23">
    <g clip-path="url(#p11430cae20)">
     <!-- 0.200 -->
     <g style="fill:#0000ff;" transform="translate(163.091464 335.168477)rotate(-2.50153)scale(0.1 -0.1)">
      <use xlink:href="#DejaVuSans-48"/>
      <use x="63.623047" xlink:href="#DejaVuSans-46"/>
      <use x="95.410156" xlink:href="#DejaVuSans-50"/>
      <use x="159.033203" xlink:href="#DejaVuSans-48"/>
      <use x="222.65625" xlink:href="#DejaVuSans-48"/>
     </g>
    </g>
   </g>
   <g id="text_24">
    <g clip-path="url(#p11430cae20)">
     <!-- 0.250 -->
     <g style="fill:#0000ff;" transform="translate(452.777184 287.447947)rotate(-11.281534)scale(0.1 -0.1)">
      <use xlink:href="#DejaVuSans-48"/>
      <use x="63.623047" xlink:href="#DejaVuSans-46"/>
      <use x="95.410156" xlink:href="#DejaVuSans-50"/>
      <use x="159.033203" xlink:href="#DejaVuSans-53"/>
      <use x="222.65625" xlink:href="#DejaVuSans-48"/>
     </g>
    </g>
   </g>
   <g id="text_25">
    <g clip-path="url(#p11430cae20)">
     <!-- 0.300 -->
     <g style="fill:#0000ff;" transform="translate(384.597923 285.169189)rotate(-9.34389)scale(0.1 -0.1)">
      <use xlink:href="#DejaVuSans-48"/>
      <use x="63.623047" xlink:href="#DejaVuSans-46"/>
      <use x="95.410156" xlink:href="#DejaVuSans-51"/>
      <use x="159.033203" xlink:href="#DejaVuSans-48"/>
      <use x="222.65625" xlink:href="#DejaVuSans-48"/>
     </g>
    </g>
   </g>
   <g id="text_26">
    <g clip-path="url(#p11430cae20)">
     <!-- 0.350 -->
     <g style="fill:#0000ff;" transform="translate(241.957563 292.755234)rotate(-6.099742)scale(0.1 -0.1)">
      <use xlink:href="#DejaVuSans-48"/>
      <use x="63.623047" xlink:href="#DejaVuSans-46"/>
      <use x="95.410156" xlink:href="#DejaVuSans-51"/>
      <use x="159.033203" xlink:href="#DejaVuSans-53"/>
      <use x="222.65625" xlink:href="#DejaVuSans-48"/>
     </g>
    </g>
   </g>
   <g id="text_27">
    <g clip-path="url(#p11430cae20)">
     <!-- 0.400 -->
     <g style="fill:#0000ff;" transform="translate(313.265989 267.303556)rotate(-7.666168)scale(0.1 -0.1)">
      <use xlink:href="#DejaVuSans-48"/>
      <use x="63.623047" xlink:href="#DejaVuSans-46"/>
      <use x="95.410156" xlink:href="#DejaVuSans-52"/>
      <use x="159.033203" xlink:href="#DejaVuSans-48"/>
      <use x="222.65625" xlink:href="#DejaVuSans-48"/>
     </g>
    </g>
   </g>
   <g id="text_28">
    <g clip-path="url(#p11430cae20)">
     <!-- 0.450 -->
     <g style="fill:#0000ff;" transform="translate(380.695859 236.909372)rotate(-12.98379)scale(0.1 -0.1)">
      <use xlink:href="#DejaVuSans-48"/>
      <use x="63.623047" xlink:href="#DejaVuSans-46"/>
      <use x="95.410156" xlink:href="#DejaVuSans-52"/>
      <use x="159.033203" xlink:href="#DejaVuSans-53"/>
      <use x="222.65625" xlink:href="#DejaVuSans-48"/>
     </g>
    </g>
   </g>
   <g id="text_29">
    <g clip-path="url(#p11430cae20)">
     <!-- 0.500 -->
     <g style="fill:#0000ff;" transform="translate(310.309183 216.998229)rotate(-10.311047)scale(0.1 -0.1)">
      <use xlink:href="#DejaVuSans-48"/>
      <use x="63.623047" xlink:href="#DejaVuSans-46"/>
      <use x="95.410156" xlink:href="#DejaVuSans-53"/>
      <use x="159.033203" xlink:href="#DejaVuSans-48"/>
      <use x="222.65625" xlink:href="#DejaVuSans-48"/>
     </g>
    </g>
   </g>
   <g id="text_30">
    <g clip-path="url(#p11430cae20)">
     <!-- 0.550 -->
     <g style="fill:#0000ff;" transform="translate(376.303499 174.725231)rotate(-11.563024)scale(0.1 -0.1)">
      <use xlink:href="#DejaVuSans-48"/>
      <use x="63.623047" xlink:href="#DejaVuSans-46"/>
      <use x="95.410156" xlink:href="#DejaVuSans-53"/>
      <use x="159.033203" xlink:href="#DejaVuSans-53"/>
      <use x="222.65625" xlink:href="#DejaVuSans-48"/>
     </g>
    </g>
   </g>
   <g id="text_31">
    <g clip-path="url(#p11430cae20)">
     <!-- 0.600 -->
     <defs>
      <path d="M 33.015625 40.375 
Q 26.375 40.375 22.484375 35.828125 
Q 18.609375 31.296875 18.609375 23.390625 
Q 18.609375 15.53125 22.484375 10.953125 
Q 26.375 6.390625 33.015625 6.390625 
Q 39.65625 6.390625 43.53125 10.953125 
Q 47.40625 15.53125 47.40625 23.390625 
Q 47.40625 31.296875 43.53125 35.828125 
Q 39.65625 40.375 33.015625 40.375 
z
M 52.59375 71.296875 
L 52.59375 62.3125 
Q 48.875 64.0625 45.09375 64.984375 
Q 41.3125 65.921875 37.59375 65.921875 
Q 27.828125 65.921875 22.671875 59.328125 
Q 17.53125 52.734375 16.796875 39.40625 
Q 19.671875 43.65625 24.015625 45.921875 
Q 28.375 48.1875 33.59375 48.1875 
Q 44.578125 48.1875 50.953125 41.515625 
Q 57.328125 34.859375 57.328125 23.390625 
Q 57.328125 12.15625 50.6875 5.359375 
Q 44.046875 -1.421875 33.015625 -1.421875 
Q 20.359375 -1.421875 13.671875 8.265625 
Q 6.984375 17.96875 6.984375 36.375 
Q 6.984375 53.65625 15.1875 63.9375 
Q 23.390625 74.21875 37.203125 74.21875 
Q 40.921875 74.21875 44.703125 73.484375 
Q 48.484375 72.75 52.59375 71.296875 
z
" id="DejaVuSans-54"/>
     </defs>
     <g style="fill:#0000ff;" transform="translate(436.238246 122.920388)rotate(-15.673114)scale(0.1 -0.1)">
      <use xlink:href="#DejaVuSans-48"/>
      <use x="63.623047" xlink:href="#DejaVuSans-46"/>
      <use x="95.410156" xlink:href="#DejaVuSans-54"/>
      <use x="159.033203" xlink:href="#DejaVuSans-48"/>
      <use x="222.65625" xlink:href="#DejaVuSans-48"/>
     </g>
    </g>
   </g>
   <g id="text_32">
    <g clip-path="url(#p11430cae20)">
     <!-- 0.650 -->
     <g style="fill:#0000ff;" transform="translate(302.594769 109.924064)rotate(-12.946045)scale(0.1 -0.1)">
      <use xlink:href="#DejaVuSans-48"/>
      <use x="63.623047" xlink:href="#DejaVuSans-46"/>
      <use x="95.410156" xlink:href="#DejaVuSans-54"/>
      <use x="159.033203" xlink:href="#DejaVuSans-53"/>
      <use x="222.65625" xlink:href="#DejaVuSans-48"/>
     </g>
    </g>
   </g>
   <g id="text_33">
    <g clip-path="url(#p11430cae20)">
     <!-- 0.700 -->
     <g style="fill:#0000ff;" transform="translate(82.278767 44.558187)rotate(-1.411776)scale(0.1 -0.1)">
      <use xlink:href="#DejaVuSans-48"/>
      <use x="63.623047" xlink:href="#DejaVuSans-46"/>
      <use x="95.410156" xlink:href="#DejaVuSans-55"/>
      <use x="159.033203" xlink:href="#DejaVuSans-48"/>
      <use x="222.65625" xlink:href="#DejaVuSans-48"/>
     </g>
    </g>
   </g>
   <g id="text_34">
    <!-- Efficiency, blanking at 2, 22 GHz -->
    <defs>
     <path d="M 9.8125 72.90625 
L 55.90625 72.90625 
L 55.90625 64.59375 
L 19.671875 64.59375 
L 19.671875 43.015625 
L 54.390625 43.015625 
L 54.390625 34.71875 
L 19.671875 34.71875 
L 19.671875 8.296875 
L 56.78125 8.296875 
L 56.78125 0 
L 9.8125 0 
z
" id="DejaVuSans-69"/>
     <path d="M 32.171875 -5.078125 
Q 28.375 -14.84375 24.75 -17.8125 
Q 21.140625 -20.796875 15.09375 -20.796875 
L 7.90625 -20.796875 
L 7.90625 -13.28125 
L 13.1875 -13.28125 
Q 16.890625 -13.28125 18.9375 -11.515625 
Q 21 -9.765625 23.484375 -3.21875 
L 25.09375 0.875 
L 2.984375 54.6875 
L 12.5 54.6875 
L 29.59375 11.921875 
L 46.6875 54.6875 
L 56.203125 54.6875 
z
" id="DejaVuSans-121"/>
     <path d="M 11.71875 12.40625 
L 22.015625 12.40625 
L 22.015625 4 
L 14.015625 -11.625 
L 7.71875 -11.625 
L 11.71875 4 
z
" id="DejaVuSans-44"/>
     <path d="M 48.6875 27.296875 
Q 48.6875 37.203125 44.609375 42.84375 
Q 40.53125 48.484375 33.40625 48.484375 
Q 26.265625 48.484375 22.1875 42.84375 
Q 18.109375 37.203125 18.109375 27.296875 
Q 18.109375 17.390625 22.1875 11.75 
Q 26.265625 6.109375 33.40625 6.109375 
Q 40.53125 6.109375 44.609375 11.75 
Q 48.6875 17.390625 48.6875 27.296875 
z
M 18.109375 46.390625 
Q 20.953125 51.265625 25.265625 53.625 
Q 29.59375 56 35.59375 56 
Q 45.5625 56 51.78125 48.09375 
Q 58.015625 40.1875 58.015625 27.296875 
Q 58.015625 14.40625 51.78125 6.484375 
Q 45.5625 -1.421875 35.59375 -1.421875 
Q 29.59375 -1.421875 25.265625 0.953125 
Q 20.953125 3.328125 18.109375 8.203125 
L 18.109375 0 
L 9.078125 0 
L 9.078125 75.984375 
L 18.109375 75.984375 
z
" id="DejaVuSans-98"/>
     <path d="M 9.421875 75.984375 
L 18.40625 75.984375 
L 18.40625 0 
L 9.421875 0 
z
" id="DejaVuSans-108"/>
     <path d="M 9.078125 75.984375 
L 18.109375 75.984375 
L 18.109375 31.109375 
L 44.921875 54.6875 
L 56.390625 54.6875 
L 27.390625 29.109375 
L 57.625 0 
L 45.90625 0 
L 18.109375 26.703125 
L 18.109375 0 
L 9.078125 0 
z
" id="DejaVuSans-107"/>
     <path d="M 45.40625 27.984375 
Q 45.40625 37.75 41.375 43.109375 
Q 37.359375 48.484375 30.078125 48.484375 
Q 22.859375 48.484375 18.828125 43.109375 
Q 14.796875 37.75 14.796875 27.984375 
Q 14.796875 18.265625 18.828125 12.890625 
Q 22.859375 7.515625 30.078125 7.515625 
Q 37.359375 7.515625 41.375 12.890625 
Q 45.40625 18.265625 45.40625 27.984375 
z
M 54.390625 6.78125 
Q 54.390625 -7.171875 48.1875 -13.984375 
Q 42 -20.796875 29.203125 -20.796875 
Q 24.46875 -20.796875 20.265625 -20.09375 
Q 16.0625 -19.390625 12.109375 -17.921875 
L 12.109375 -9.1875 
Q 16.0625 -11.328125 19.921875 -12.34375 
Q 23.78125 -13.375 27.78125 -13.375 
Q 36.625 -13.375 41.015625 -8.765625 
Q 45.40625 -4.15625 45.40625 5.171875 
L 45.40625 9.625 
Q 42.625 4.78125 38.28125 2.390625 
Q 33.9375 0 27.875 0 
Q 17.828125 0 11.671875 7.65625 
Q 5.515625 15.328125 5.515625 27.984375 
Q 5.515625 40.671875 11.671875 48.328125 
Q 17.828125 56 27.875 56 
Q 33.9375 56 38.28125 53.609375 
Q 42.625 51.21875 45.40625 46.390625 
L 45.40625 54.6875 
L 54.390625 54.6875 
z
" id="DejaVuSans-103"/>
     <path d="M 26.859375 -1.421875 
Q 6.59375 -1.421875 6.59375 27.59375 
Q 6.59375 39.0625 14.15625 54.6875 
L 23.828125 54.6875 
Q 16.84375 39.0625 16.84375 27.34375 
Q 16.84375 6.203125 27.6875 6.203125 
Q 37.59375 6.203125 37.59375 32.46875 
L 45.90625 32.46875 
Q 45.90625 6.203125 55.8125 6.203125 
Q 66.65625 6.203125 66.65625 27.34375 
Q 66.65625 39.0625 59.671875 54.6875 
L 69.34375 54.6875 
Q 76.90625 39.0625 76.90625 27.59375 
Q 76.90625 -1.421875 56.640625 -1.421875 
Q 43.359375 -1.421875 41.75 13.1875 
Q 39.75 -1.421875 26.859375 -1.421875 
z
" id="DejaVuSans-969"/>
     <path d="M 27.828125 33.046875 
Q 25.390625 37.25 20.453125 37.25 
Q 15.53125 37.25 13.09375 33.046875 
Q 10.59375 28.84375 10.59375 20.453125 
Q 10.59375 12 13.09375 7.8125 
Q 15.53125 3.609375 20.453125 3.609375 
Q 25.390625 3.609375 27.828125 7.8125 
Q 30.328125 12 30.328125 20.453125 
Q 30.328125 28.84375 27.828125 33.046875 
z
M 20.453125 41.59375 
Q 28.328125 41.59375 32.46875 36.171875 
Q 36.625 30.75 36.625 20.453125 
Q 36.625 10.09375 32.46875 4.671875 
Q 28.328125 -0.734375 20.453125 -0.734375 
Q 12.546875 -0.734375 8.390625 4.671875 
Q 4.25 10.09375 4.25 20.453125 
Q 4.25 30.75 8.390625 36.171875 
Q 12.546875 41.59375 20.453125 41.59375 
z
" id="DejaVuSans-8320"/>
     <path d="M 59.515625 10.40625 
L 59.515625 29.984375 
L 43.40625 29.984375 
L 43.40625 38.09375 
L 69.28125 38.09375 
L 69.28125 6.78125 
Q 63.578125 2.734375 56.6875 0.65625 
Q 49.8125 -1.421875 42 -1.421875 
Q 24.90625 -1.421875 15.25 8.5625 
Q 5.609375 18.5625 5.609375 36.375 
Q 5.609375 54.25 15.25 64.234375 
Q 24.90625 74.21875 42 74.21875 
Q 49.125 74.21875 55.546875 72.453125 
Q 61.96875 70.703125 67.390625 67.28125 
L 67.390625 56.78125 
Q 61.921875 61.421875 55.765625 63.765625 
Q 49.609375 66.109375 42.828125 66.109375 
Q 29.4375 66.109375 22.71875 58.640625 
Q 16.015625 51.171875 16.015625 36.375 
Q 16.015625 21.625 22.71875 14.15625 
Q 29.4375 6.6875 42.828125 6.6875 
Q 48.046875 6.6875 52.140625 7.59375 
Q 56.25 8.5 59.515625 10.40625 
z
" id="DejaVuSans-71"/>
     <path d="M 9.8125 72.90625 
L 19.671875 72.90625 
L 19.671875 43.015625 
L 55.515625 43.015625 
L 55.515625 72.90625 
L 65.375 72.90625 
L 65.375 0 
L 55.515625 0 
L 55.515625 34.71875 
L 19.671875 34.71875 
L 19.671875 0 
L 9.8125 0 
z
" id="DejaVuSans-72"/>
     <path d="M 5.515625 54.6875 
L 48.1875 54.6875 
L 48.1875 46.484375 
L 14.40625 7.171875 
L 48.1875 7.171875 
L 48.1875 0 
L 4.296875 0 
L 4.296875 8.203125 
L 38.09375 47.515625 
L 5.515625 47.515625 
z
" id="DejaVuSans-122"/>
    </defs>
    <g transform="translate(161.251562 19.44)scale(0.12 -0.12)">
     <use xlink:href="#DejaVuSans-69"/>
     <use x="63.183594" xlink:href="#DejaVuSans-102"/>
     <use x="98.388672" xlink:href="#DejaVuSans-102"/>
     <use x="133.59375" xlink:href="#DejaVuSans-105"/>
     <use x="161.376953" xlink:href="#DejaVuSans-99"/>
     <use x="216.357422" xlink:href="#DejaVuSans-105"/>
     <use x="244.140625" xlink:href="#DejaVuSans-101"/>
     <use x="305.664062" xlink:href="#DejaVuSans-110"/>
     <use x="369.042969" xlink:href="#DejaVuSans-99"/>
     <use x="424.023438" xlink:href="#DejaVuSans-121"/>
     <use x="483.203125" xlink:href="#DejaVuSans-44"/>
     <use x="514.990234" xlink:href="#DejaVuSans-32"/>
     <use x="546.777344" xlink:href="#DejaVuSans-98"/>
     <use x="610.253906" xlink:href="#DejaVuSans-108"/>
     <use x="638.037109" xlink:href="#DejaVuSans-97"/>
     <use x="699.316406" xlink:href="#DejaVuSans-110"/>
     <use x="762.695312" xlink:href="#DejaVuSans-107"/>
     <use x="820.605469" xlink:href="#DejaVuSans-105"/>
     <use x="848.388672" xlink:href="#DejaVuSans-110"/>
     <use x="911.767578" xlink:href="#DejaVuSans-103"/>
     <use x="975.244141" xlink:href="#DejaVuSans-32"/>
     <use x="1007.03125" xlink:href="#DejaVuSans-97"/>
     <use x="1068.310547" xlink:href="#DejaVuSans-116"/>
     <use x="1107.519531" xlink:href="#DejaVuSans-32"/>
     <use x="1139.306641" xlink:href="#DejaVuSans-50"/>
     <use x="1202.929688" xlink:href="#DejaVuSans-969"/>
     <use x="1286.669922" xlink:href="#DejaVuSans-8320"/>
     <use x="1326.757812" xlink:href="#DejaVuSans-44"/>
     <use x="1358.544922" xlink:href="#DejaVuSans-32"/>
     <use x="1390.332031" xlink:href="#DejaVuSans-50"/>
     <use x="1453.955078" xlink:href="#DejaVuSans-50"/>
     <use x="1517.578125" xlink:href="#DejaVuSans-32"/>
     <use x="1549.365234" xlink:href="#DejaVuSans-71"/>
     <use x="1626.855469" xlink:href="#DejaVuSans-72"/>
     <use x="1702.050781" xlink:href="#DejaVuSans-122"/>
    </g>
   </g>
  </g>
 </g>
 <defs>
  <clipPath id="p11430cae20">
   <rect height="436.6" width="425.005" x="54.02" y="25.44"/>
  </clipPath>
 </defs>
</svg>
