<?xml version="1.0" encoding="utf-8" standalone="no"?>
<!DOCTYPE svg PUBLIC "-//W3C//DTD SVG 1.1//EN"
  "http://www.w3.org/Graphics/SVG/1.1/DTD/svg11.dtd">
<!-- Created with matplotlib (https://matplotlib.org/) -->
<svg height="504pt" version="1.1" viewBox="0 0 504 504" width="504pt" xmlns="http://www.w3.org/2000/svg" xmlns:xlink="http://www.w3.org/1999/xlink">
 <defs>
  <style type="text/css">
*{stroke-linecap:butt;stroke-linejoin:round;}
  </style>
 </defs>
 <g id="figure_1">
  <g id="patch_1">
   <path d="M 0 504 
L 504 504 
L 504 0 
L 0 0 
z
" style="fill:#ffffff;"/>
  </g>
  <g id="axes_1">
   <g id="patch_2">
    <path d="M 54.02 462.04 
L 479.025 462.04 
L 479.025 25.44 
L 54.02 25.44 
z
" style="fill:#ffffff;"/>
   </g>
   <g id="matplotlib.axis_1">
    <g id="xtick_1">
     <g id="line2d_1">
      <defs>
       <path d="M 0 0 
L 0 3.5 
" id="m65cadf0398" style="stroke:#000000;stroke-width:0.8;"/>
      </defs>
      <g>
       <use style="stroke:#000000;stroke-width:0.8;" x="54.02" xlink:href="#m65cadf0398" y="462.04"/>
      </g>
     </g>
     <g id="text_1">
      <!-- 0.000 -->
      <defs>
       <path d="M 31.78125 66.40625 
Q 24.171875 66.40625 20.328125 58.90625 
Q 16.5 51.421875 16.5 36.375 
Q 16.5 21.390625 20.328125 13.890625 
Q 24.171875 6.390625 31.78125 6.390625 
Q 39.453125 6.390625 43.28125 13.890625 
Q 47.125 21.390625 47.125 36.375 
Q 47.125 51.421875 43.28125 58.90625 
Q 39.453125 66.40625 31.78125 66.40625 
z
M 31.78125 74.21875 
Q 44.046875 74.21875 50.515625 64.515625 
Q 56.984375 54.828125 56.984375 36.375 
Q 56.984375 17.96875 50.515625 8.265625 
Q 44.046875 -1.421875 31.78125 -1.421875 
Q 19.53125 -1.421875 13.0625 8.265625 
Q 6.59375 17.96875 6.59375 36.375 
Q 6.59375 54.828125 13.0625 64.515625 
Q 19.53125 74.21875 31.78125 74.21875 
z
" id="DejaVuSans-48"/>
       <path d="M 10.6875 12.40625 
L 21 12.40625 
L 21 0 
L 10.6875 0 
z
" id="DejaVuSans-46"/>
      </defs>
      <g transform="translate(39.705938 476.638438)scale(0.1 -0.1)">
       <use xlink:href="#DejaVuSans-48"/>
       <use x="63.623047" xlink:href="#DejaVuSans-46"/>
       <use x="95.410156" xlink:href="#DejaVuSans-48"/>
       <use x="159.033203" xlink:href="#DejaVuSans-48"/>
       <use x="222.65625" xlink:href="#DejaVuSans-48"/>
      </g>
     </g>
    </g>
    <g id="xtick_2">
     <g id="line2d_2">
      <g>
       <use style="stroke:#000000;stroke-width:0.8;" x="107.145625" xlink:href="#m65cadf0398" y="462.04"/>
      </g>
     </g>
     <g id="text_2">
      <!-- 0.025 -->
      <defs>
       <path d="M 19.1875 8.296875 
L 53.609375 8.296875 
L 53.609375 0 
L 7.328125 0 
L 7.328125 8.296875 
Q 12.9375 14.109375 22.625 23.890625 
Q 32.328125 33.6875 34.8125 36.53125 
Q 39.546875 41.84375 41.421875 45.53125 
Q 43.3125 49.21875 43.3125 52.78125 
Q 43.3125 58.59375 39.234375 62.25 
Q 35.15625 65.921875 28.609375 65.921875 
Q 23.96875 65.921875 18.8125 64.3125 
Q 13.671875 62.703125 7.8125 59.421875 
L 7.8125 69.390625 
Q 13.765625 71.78125 18.9375 73 
Q 24.125 74.21875 28.421875 74.21875 
Q 39.75 74.21875 46.484375 68.546875 
Q 53.21875 62.890625 53.21875 53.421875 
Q 53.21875 48.921875 51.53125 44.890625 
Q 49.859375 40.875 45.40625 35.40625 
Q 44.1875 33.984375 37.640625 27.21875 
Q 31.109375 20.453125 19.1875 8.296875 
z
" id="DejaVuSans-50"/>
       <path d="M 10.796875 72.90625 
L 49.515625 72.90625 
L 49.515625 64.59375 
L 19.828125 64.59375 
L 19.828125 46.734375 
Q 21.96875 47.46875 24.109375 47.828125 
Q 26.265625 48.1875 28.421875 48.1875 
Q 40.625 48.1875 47.75 41.5 
Q 54.890625 34.8125 54.890625 23.390625 
Q 54.890625 11.625 47.5625 5.09375 
Q 40.234375 -1.421875 26.90625 -1.421875 
Q 22.3125 -1.421875 17.546875 -0.640625 
Q 12.796875 0.140625 7.71875 1.703125 
L 7.71875 11.625 
Q 12.109375 9.234375 16.796875 8.0625 
Q 21.484375 6.890625 26.703125 6.890625 
Q 35.15625 6.890625 40.078125 11.328125 
Q 45.015625 15.765625 45.015625 23.390625 
Q 45.015625 31 40.078125 35.4375 
Q 35.15625 39.890625 26.703125 39.890625 
Q 22.75 39.890625 18.8125 39.015625 
Q 14.890625 38.140625 10.796875 36.28125 
z
" id="DejaVuSans-53"/>
      </defs>
      <g transform="translate(92.831563 476.638438)scale(0.1 -0.1)">
       <use xlink:href="#DejaVuSans-48"/>
       <use x="63.623047" xlink:href="#DejaVuSans-46"/>
       <use x="95.410156" xlink:href="#DejaVuSans-48"/>
       <use x="159.033203" xlink:href="#DejaVuSans-50"/>
       <use x="222.65625" xlink:href="#DejaVuSans-53"/>
      </g>
     </g>
    </g>
    <g id="xtick_3">
     <g id="line2d_3">
      <g>
       <use style="stroke:#000000;stroke-width:0.8;" x="160.27125" xlink:href="#m65cadf0398" y="462.04"/>
      </g>
     </g>
     <g id="text_3">
      <!-- 0.050 -->
      <g transform="translate(145.957188 476.638438)scale(0.1 -0.1)">
       <use xlink:href="#DejaVuSans-48"/>
       <use x="63.623047" xlink:href="#DejaVuSans-46"/>
       <use x="95.410156" xlink:href="#DejaVuSans-48"/>
       <use x="159.033203" xlink:href="#DejaVuSans-53"/>
       <use x="222.65625" xlink:href="#DejaVuSans-48"/>
      </g>
     </g>
    </g>
    <g id="xtick_4">
     <g id="line2d_4">
      <g>
       <use style="stroke:#000000;stroke-width:0.8;" x="213.396875" xlink:href="#m65cadf0398" y="462.04"/>
      </g>
     </g>
     <g id="text_4">
      <!-- 0.075 -->
      <defs>
       <path d="M 8.203125 72.90625 
L 55.078125 72.90625 
L 55.078125 68.703125 
L 28.609375 0 
L 18.3125 0 
L 43.21875 64.59375 
L 8.203125 64.59375 
z
" id="DejaVuSans-55"/>
      </defs>
      <g transform="translate(199.082812 476.638438)scale(0.1 -0.1)">
       <use xlink:href="#DejaVuSans-48"/>
       <use x="63.623047" xlink:href="#DejaVuSans-46"/>
       <use x="95.410156" xlink:href="#DejaVuSans-48"/>
       <use x="159.033203" xlink:href="#DejaVuSans-55"/>
       <use x="222.65625" xlink:href="#DejaVuSans-53"/>
      </g>
     </g>
    </g>
    <g id="xtick_5">
     <g id="line2d_5">
      <g>
       <use style="stroke:#000000;stroke-width:0.8;" x="266.5225" xlink:href="#m65cadf0398" y="462.04"/>
      </g>
     </g>
     <g id="text_5">
      <!-- 0.100 -->
      <defs>
       <path d="M 12.40625 8.296875 
L 28.515625 8.296875 
L 28.515625 63.921875 
L 10.984375 60.40625 
L 10.984375 69.390625 
L 28.421875 72.90625 
L 38.28125 72.90625 
L 38.28125 8.296875 
L 54.390625 8.296875 
L 54.390625 0 
L 12.40625 0 
z
" id="DejaVuSans-49"/>
      </defs>
      <g transform="translate(252.208437 476.638438)scale(0.1 -0.1)">
       <use xlink:href="#DejaVuSans-48"/>
       <use x="63.623047" xlink:href="#DejaVuSans-46"/>
       <use x="95.410156" xlink:href="#DejaVuSans-49"/>
       <use x="159.033203" xlink:href="#DejaVuSans-48"/>
       <use x="222.65625" xlink:href="#DejaVuSans-48"/>
      </g>
     </g>
    </g>
    <g id="xtick_6">
     <g id="line2d_6">
      <g>
       <use style="stroke:#000000;stroke-width:0.8;" x="319.648125" xlink:href="#m65cadf0398" y="462.04"/>
      </g>
     </g>
     <g id="text_6">
      <!-- 0.125 -->
      <g transform="translate(305.334063 476.638438)scale(0.1 -0.1)">
       <use xlink:href="#DejaVuSans-48"/>
       <use x="63.623047" xlink:href="#DejaVuSans-46"/>
       <use x="95.410156" xlink:href="#DejaVuSans-49"/>
       <use x="159.033203" xlink:href="#DejaVuSans-50"/>
       <use x="222.65625" xlink:href="#DejaVuSans-53"/>
      </g>
     </g>
    </g>
    <g id="xtick_7">
     <g id="line2d_7">
      <g>
       <use style="stroke:#000000;stroke-width:0.8;" x="372.77375" xlink:href="#m65cadf0398" y="462.04"/>
      </g>
     </g>
     <g id="text_7">
      <!-- 0.150 -->
      <g transform="translate(358.459688 476.638438)scale(0.1 -0.1)">
       <use xlink:href="#DejaVuSans-48"/>
       <use x="63.623047" xlink:href="#DejaVuSans-46"/>
       <use x="95.410156" xlink:href="#DejaVuSans-49"/>
       <use x="159.033203" xlink:href="#DejaVuSans-53"/>
       <use x="222.65625" xlink:href="#DejaVuSans-48"/>
      </g>
     </g>
    </g>
    <g id="xtick_8">
     <g id="line2d_8">
      <g>
       <use style="stroke:#000000;stroke-width:0.8;" x="425.899375" xlink:href="#m65cadf0398" y="462.04"/>
      </g>
     </g>
     <g id="text_8">
      <!-- 0.175 -->
      <g transform="translate(411.585313 476.638438)scale(0.1 -0.1)">
       <use xlink:href="#DejaVuSans-48"/>
       <use x="63.623047" xlink:href="#DejaVuSans-46"/>
       <use x="95.410156" xlink:href="#DejaVuSans-49"/>
       <use x="159.033203" xlink:href="#DejaVuSans-55"/>
       <use x="222.65625" xlink:href="#DejaVuSans-53"/>
      </g>
     </g>
    </g>
    <g id="xtick_9">
     <g id="line2d_9">
      <g>
       <use style="stroke:#000000;stroke-width:0.8;" x="479.025" xlink:href="#m65cadf0398" y="462.04"/>
      </g>
     </g>
     <g id="text_9">
      <!-- 0.200 -->
      <g transform="translate(464.710938 476.638438)scale(0.1 -0.1)">
       <use xlink:href="#DejaVuSans-48"/>
       <use x="63.623047" xlink:href="#DejaVuSans-46"/>
       <use x="95.410156" xlink:href="#DejaVuSans-50"/>
       <use x="159.033203" xlink:href="#DejaVuSans-48"/>
       <use x="222.65625" xlink:href="#DejaVuSans-48"/>
      </g>
     </g>
    </g>
    <g id="text_10">
     <!-- Distance from focus [m] -->
     <defs>
      <path d="M 19.671875 64.796875 
L 19.671875 8.109375 
L 31.59375 8.109375 
Q 46.6875 8.109375 53.6875 14.9375 
Q 60.6875 21.78125 60.6875 36.53125 
Q 60.6875 51.171875 53.6875 57.984375 
Q 46.6875 64.796875 31.59375 64.796875 
z
M 9.8125 72.90625 
L 30.078125 72.90625 
Q 51.265625 72.90625 61.171875 64.09375 
Q 71.09375 55.28125 71.09375 36.53125 
Q 71.09375 17.671875 61.125 8.828125 
Q 51.171875 0 30.078125 0 
L 9.8125 0 
z
" id="DejaVuSans-68"/>
      <path d="M 9.421875 54.6875 
L 18.40625 54.6875 
L 18.40625 0 
L 9.421875 0 
z
M 9.421875 75.984375 
L 18.40625 75.984375 
L 18.40625 64.59375 
L 9.421875 64.59375 
z
" id="DejaVuSans-105"/>
      <path d="M 44.28125 53.078125 
L 44.28125 44.578125 
Q 40.484375 46.53125 36.375 47.5 
Q 32.28125 48.484375 27.875 48.484375 
Q 21.1875 48.484375 17.84375 46.4375 
Q 14.5 44.390625 14.5 40.28125 
Q 14.5 37.15625 16.890625 35.375 
Q 19.28125 33.59375 26.515625 31.984375 
L 29.59375 31.296875 
Q 39.15625 29.25 43.1875 25.515625 
Q 47.21875 21.78125 47.21875 15.09375 
Q 47.21875 7.46875 41.1875 3.015625 
Q 35.15625 -1.421875 24.609375 -1.421875 
Q 20.21875 -1.421875 15.453125 -0.5625 
Q 10.6875 0.296875 5.421875 2 
L 5.421875 11.28125 
Q 10.40625 8.6875 15.234375 7.390625 
Q 20.0625 6.109375 24.8125 6.109375 
Q 31.15625 6.109375 34.5625 8.28125 
Q 37.984375 10.453125 37.984375 14.40625 
Q 37.984375 18.0625 35.515625 20.015625 
Q 33.0625 21.96875 24.703125 23.78125 
L 21.578125 24.515625 
Q 13.234375 26.265625 9.515625 29.90625 
Q 5.8125 33.546875 5.8125 39.890625 
Q 5.8125 47.609375 11.28125 51.796875 
Q 16.75 56 26.8125 56 
Q 31.78125 56 36.171875 55.265625 
Q 40.578125 54.546875 44.28125 53.078125 
z
" id="DejaVuSans-115"/>
      <path d="M 18.3125 70.21875 
L 18.3125 54.6875 
L 36.8125 54.6875 
L 36.8125 47.703125 
L 18.3125 47.703125 
L 18.3125 18.015625 
Q 18.3125 11.328125 20.140625 9.421875 
Q 21.96875 7.515625 27.59375 7.515625 
L 36.8125 7.515625 
L 36.8125 0 
L 27.59375 0 
Q 17.1875 0 13.234375 3.875 
Q 9.28125 7.765625 9.28125 18.015625 
L 9.28125 47.703125 
L 2.6875 47.703125 
L 2.6875 54.6875 
L 9.28125 54.6875 
L 9.28125 70.21875 
z
" id="DejaVuSans-116"/>
      <path d="M 34.28125 27.484375 
Q 23.390625 27.484375 19.1875 25 
Q 14.984375 22.515625 14.984375 16.5 
Q 14.984375 11.71875 18.140625 8.90625 
Q 21.296875 6.109375 26.703125 6.109375 
Q 34.1875 6.109375 38.703125 11.40625 
Q 43.21875 16.703125 43.21875 25.484375 
L 43.21875 27.484375 
z
M 52.203125 31.203125 
L 52.203125 0 
L 43.21875 0 
L 43.21875 8.296875 
Q 40.140625 3.328125 35.546875 0.953125 
Q 30.953125 -1.421875 24.3125 -1.421875 
Q 15.921875 -1.421875 10.953125 3.296875 
Q 6 8.015625 6 15.921875 
Q 6 25.140625 12.171875 29.828125 
Q 18.359375 34.515625 30.609375 34.515625 
L 43.21875 34.515625 
L 43.21875 35.40625 
Q 43.21875 41.609375 39.140625 45 
Q 35.0625 48.390625 27.6875 48.390625 
Q 23 48.390625 18.546875 47.265625 
Q 14.109375 46.140625 10.015625 43.890625 
L 10.015625 52.203125 
Q 14.9375 54.109375 19.578125 55.046875 
Q 24.21875 56 28.609375 56 
Q 40.484375 56 46.34375 49.84375 
Q 52.203125 43.703125 52.203125 31.203125 
z
" id="DejaVuSans-97"/>
      <path d="M 54.890625 33.015625 
L 54.890625 0 
L 45.90625 0 
L 45.90625 32.71875 
Q 45.90625 40.484375 42.875 44.328125 
Q 39.84375 48.1875 33.796875 48.1875 
Q 26.515625 48.1875 22.3125 43.546875 
Q 18.109375 38.921875 18.109375 30.90625 
L 18.109375 0 
L 9.078125 0 
L 9.078125 54.6875 
L 18.109375 54.6875 
L 18.109375 46.1875 
Q 21.34375 51.125 25.703125 53.5625 
Q 30.078125 56 35.796875 56 
Q 45.21875 56 50.046875 50.171875 
Q 54.890625 44.34375 54.890625 33.015625 
z
" id="DejaVuSans-110"/>
      <path d="M 48.78125 52.59375 
L 48.78125 44.1875 
Q 44.96875 46.296875 41.140625 47.34375 
Q 37.3125 48.390625 33.40625 48.390625 
Q 24.65625 48.390625 19.8125 42.84375 
Q 14.984375 37.3125 14.984375 27.296875 
Q 14.984375 17.28125 19.8125 11.734375 
Q 24.65625 6.203125 33.40625 6.203125 
Q 37.3125 6.203125 41.140625 7.25 
Q 44.96875 8.296875 48.78125 10.40625 
L 48.78125 2.09375 
Q 45.015625 0.34375 40.984375 -0.53125 
Q 36.96875 -1.421875 32.421875 -1.421875 
Q 20.0625 -1.421875 12.78125 6.34375 
Q 5.515625 14.109375 5.515625 27.296875 
Q 5.515625 40.671875 12.859375 48.328125 
Q 20.21875 56 33.015625 56 
Q 37.15625 56 41.109375 55.140625 
Q 45.0625 54.296875 48.78125 52.59375 
z
" id="DejaVuSans-99"/>
      <path d="M 56.203125 29.59375 
L 56.203125 25.203125 
L 14.890625 25.203125 
Q 15.484375 15.921875 20.484375 11.0625 
Q 25.484375 6.203125 34.421875 6.203125 
Q 39.59375 6.203125 44.453125 7.46875 
Q 49.3125 8.734375 54.109375 11.28125 
L 54.109375 2.78125 
Q 49.265625 0.734375 44.1875 -0.34375 
Q 39.109375 -1.421875 33.890625 -1.421875 
Q 20.796875 -1.421875 13.15625 6.1875 
Q 5.515625 13.8125 5.515625 26.8125 
Q 5.515625 40.234375 12.765625 48.109375 
Q 20.015625 56 32.328125 56 
Q 43.359375 56 49.78125 48.890625 
Q 56.203125 41.796875 56.203125 29.59375 
z
M 47.21875 32.234375 
Q 47.125 39.59375 43.09375 43.984375 
Q 39.0625 48.390625 32.421875 48.390625 
Q 24.90625 48.390625 20.390625 44.140625 
Q 15.875 39.890625 15.1875 32.171875 
z
" id="DejaVuSans-101"/>
      <path id="DejaVuSans-32"/>
      <path d="M 37.109375 75.984375 
L 37.109375 68.5 
L 28.515625 68.5 
Q 23.6875 68.5 21.796875 66.546875 
Q 19.921875 64.59375 19.921875 59.515625 
L 19.921875 54.6875 
L 34.71875 54.6875 
L 34.71875 47.703125 
L 19.921875 47.703125 
L 19.921875 0 
L 10.890625 0 
L 10.890625 47.703125 
L 2.296875 47.703125 
L 2.296875 54.6875 
L 10.890625 54.6875 
L 10.890625 58.5 
Q 10.890625 67.625 15.140625 71.796875 
Q 19.390625 75.984375 28.609375 75.984375 
z
" id="DejaVuSans-102"/>
      <path d="M 41.109375 46.296875 
Q 39.59375 47.171875 37.8125 47.578125 
Q 36.03125 48 33.890625 48 
Q 26.265625 48 22.1875 43.046875 
Q 18.109375 38.09375 18.109375 28.8125 
L 18.109375 0 
L 9.078125 0 
L 9.078125 54.6875 
L 18.109375 54.6875 
L 18.109375 46.1875 
Q 20.953125 51.171875 25.484375 53.578125 
Q 30.03125 56 36.53125 56 
Q 37.453125 56 38.578125 55.875 
Q 39.703125 55.765625 41.0625 55.515625 
z
" id="DejaVuSans-114"/>
      <path d="M 30.609375 48.390625 
Q 23.390625 48.390625 19.1875 42.75 
Q 14.984375 37.109375 14.984375 27.296875 
Q 14.984375 17.484375 19.15625 11.84375 
Q 23.34375 6.203125 30.609375 6.203125 
Q 37.796875 6.203125 41.984375 11.859375 
Q 46.1875 17.53125 46.1875 27.296875 
Q 46.1875 37.015625 41.984375 42.703125 
Q 37.796875 48.390625 30.609375 48.390625 
z
M 30.609375 56 
Q 42.328125 56 49.015625 48.375 
Q 55.71875 40.765625 55.71875 27.296875 
Q 55.71875 13.875 49.015625 6.21875 
Q 42.328125 -1.421875 30.609375 -1.421875 
Q 18.84375 -1.421875 12.171875 6.21875 
Q 5.515625 13.875 5.515625 27.296875 
Q 5.515625 40.765625 12.171875 48.375 
Q 18.84375 56 30.609375 56 
z
" id="DejaVuSans-111"/>
      <path d="M 52 44.1875 
Q 55.375 50.25 60.0625 53.125 
Q 64.75 56 71.09375 56 
Q 79.640625 56 84.28125 50.015625 
Q 88.921875 44.046875 88.921875 33.015625 
L 88.921875 0 
L 79.890625 0 
L 79.890625 32.71875 
Q 79.890625 40.578125 77.09375 44.375 
Q 74.3125 48.1875 68.609375 48.1875 
Q 61.625 48.1875 57.5625 43.546875 
Q 53.515625 38.921875 53.515625 30.90625 
L 53.515625 0 
L 44.484375 0 
L 44.484375 32.71875 
Q 44.484375 40.625 41.703125 44.40625 
Q 38.921875 48.1875 33.109375 48.1875 
Q 26.21875 48.1875 22.15625 43.53125 
Q 18.109375 38.875 18.109375 30.90625 
L 18.109375 0 
L 9.078125 0 
L 9.078125 54.6875 
L 18.109375 54.6875 
L 18.109375 46.1875 
Q 21.1875 51.21875 25.484375 53.609375 
Q 29.78125 56 35.6875 56 
Q 41.65625 56 45.828125 52.96875 
Q 50 49.953125 52 44.1875 
z
" id="DejaVuSans-109"/>
      <path d="M 8.5 21.578125 
L 8.5 54.6875 
L 17.484375 54.6875 
L 17.484375 21.921875 
Q 17.484375 14.15625 20.5 10.265625 
Q 23.53125 6.390625 29.59375 6.390625 
Q 36.859375 6.390625 41.078125 11.03125 
Q 45.3125 15.671875 45.3125 23.6875 
L 45.3125 54.6875 
L 54.296875 54.6875 
L 54.296875 0 
L 45.3125 0 
L 45.3125 8.40625 
Q 42.046875 3.421875 37.71875 1 
Q 33.40625 -1.421875 27.6875 -1.421875 
Q 18.265625 -1.421875 13.375 4.4375 
Q 8.5 10.296875 8.5 21.578125 
z
M 31.109375 56 
z
" id="DejaVuSans-117"/>
      <path d="M 8.59375 75.984375 
L 29.296875 75.984375 
L 29.296875 69 
L 17.578125 69 
L 17.578125 -6.203125 
L 29.296875 -6.203125 
L 29.296875 -13.1875 
L 8.59375 -13.1875 
z
" id="DejaVuSans-91"/>
      <path d="M 30.421875 75.984375 
L 30.421875 -13.1875 
L 9.71875 -13.1875 
L 9.71875 -6.203125 
L 21.390625 -6.203125 
L 21.390625 69 
L 9.71875 69 
L 9.71875 75.984375 
z
" id="DejaVuSans-93"/>
     </defs>
     <g transform="translate(206.035 490.316563)scale(0.1 -0.1)">
      <use xlink:href="#DejaVuSans-68"/>
      <use x="77.001953" xlink:href="#DejaVuSans-105"/>
      <use x="104.785156" xlink:href="#DejaVuSans-115"/>
      <use x="156.884766" xlink:href="#DejaVuSans-116"/>
      <use x="196.09375" xlink:href="#DejaVuSans-97"/>
      <use x="257.373047" xlink:href="#DejaVuSans-110"/>
      <use x="320.751953" xlink:href="#DejaVuSans-99"/>
      <use x="375.732422" xlink:href="#DejaVuSans-101"/>
      <use x="437.255859" xlink:href="#DejaVuSans-32"/>
      <use x="469.042969" xlink:href="#DejaVuSans-102"/>
      <use x="504.248047" xlink:href="#DejaVuSans-114"/>
      <use x="545.330078" xlink:href="#DejaVuSans-111"/>
      <use x="606.511719" xlink:href="#DejaVuSans-109"/>
      <use x="703.923828" xlink:href="#DejaVuSans-32"/>
      <use x="735.710938" xlink:href="#DejaVuSans-102"/>
      <use x="770.916016" xlink:href="#DejaVuSans-111"/>
      <use x="832.097656" xlink:href="#DejaVuSans-99"/>
      <use x="887.078125" xlink:href="#DejaVuSans-117"/>
      <use x="950.457031" xlink:href="#DejaVuSans-115"/>
      <use x="1002.556641" xlink:href="#DejaVuSans-32"/>
      <use x="1034.34375" xlink:href="#DejaVuSans-91"/>
      <use x="1073.357422" xlink:href="#DejaVuSans-109"/>
      <use x="1170.769531" xlink:href="#DejaVuSans-93"/>
     </g>
    </g>
   </g>
   <g id="matplotlib.axis_2">
    <g id="ytick_1">
     <g id="line2d_10">
      <defs>
       <path d="M 0 0 
L -3.5 0 
" id="m357bc49c37" style="stroke:#000000;stroke-width:0.8;"/>
      </defs>
      <g>
       <use style="stroke:#000000;stroke-width:0.8;" x="54.02" xlink:href="#m357bc49c37" y="462.04"/>
      </g>
     </g>
     <g id="text_11">
      <!-- 0.20 -->
      <g transform="translate(24.754375 465.839219)scale(0.1 -0.1)">
       <use xlink:href="#DejaVuSans-48"/>
       <use x="63.623047" xlink:href="#DejaVuSans-46"/>
       <use x="95.410156" xlink:href="#DejaVuSans-50"/>
       <use x="159.033203" xlink:href="#DejaVuSans-48"/>
      </g>
     </g>
    </g>
    <g id="ytick_2">
     <g id="line2d_11">
      <g>
       <use style="stroke:#000000;stroke-width:0.8;" x="54.02" xlink:href="#m357bc49c37" y="389.273333"/>
      </g>
     </g>
     <g id="text_12">
      <!-- 0.25 -->
      <g transform="translate(24.754375 393.072552)scale(0.1 -0.1)">
       <use xlink:href="#DejaVuSans-48"/>
       <use x="63.623047" xlink:href="#DejaVuSans-46"/>
       <use x="95.410156" xlink:href="#DejaVuSans-50"/>
       <use x="159.033203" xlink:href="#DejaVuSans-53"/>
      </g>
     </g>
    </g>
    <g id="ytick_3">
     <g id="line2d_12">
      <g>
       <use style="stroke:#000000;stroke-width:0.8;" x="54.02" xlink:href="#m357bc49c37" y="316.506667"/>
      </g>
     </g>
     <g id="text_13">
      <!-- 0.30 -->
      <defs>
       <path d="M 40.578125 39.3125 
Q 47.65625 37.796875 51.625 33 
Q 55.609375 28.21875 55.609375 21.1875 
Q 55.609375 10.40625 48.1875 4.484375 
Q 40.765625 -1.421875 27.09375 -1.421875 
Q 22.515625 -1.421875 17.65625 -0.515625 
Q 12.796875 0.390625 7.625 2.203125 
L 7.625 11.71875 
Q 11.71875 9.328125 16.59375 8.109375 
Q 21.484375 6.890625 26.8125 6.890625 
Q 36.078125 6.890625 40.9375 10.546875 
Q 45.796875 14.203125 45.796875 21.1875 
Q 45.796875 27.640625 41.28125 31.265625 
Q 36.765625 34.90625 28.71875 34.90625 
L 20.21875 34.90625 
L 20.21875 43.015625 
L 29.109375 43.015625 
Q 36.375 43.015625 40.234375 45.921875 
Q 44.09375 48.828125 44.09375 54.296875 
Q 44.09375 59.90625 40.109375 62.90625 
Q 36.140625 65.921875 28.71875 65.921875 
Q 24.65625 65.921875 20.015625 65.03125 
Q 15.375 64.15625 9.8125 62.3125 
L 9.8125 71.09375 
Q 15.4375 72.65625 20.34375 73.4375 
Q 25.25 74.21875 29.59375 74.21875 
Q 40.828125 74.21875 47.359375 69.109375 
Q 53.90625 64.015625 53.90625 55.328125 
Q 53.90625 49.265625 50.4375 45.09375 
Q 46.96875 40.921875 40.578125 39.3125 
z
" id="DejaVuSans-51"/>
      </defs>
      <g transform="translate(24.754375 320.305885)scale(0.1 -0.1)">
       <use xlink:href="#DejaVuSans-48"/>
       <use x="63.623047" xlink:href="#DejaVuSans-46"/>
       <use x="95.410156" xlink:href="#DejaVuSans-51"/>
       <use x="159.033203" xlink:href="#DejaVuSans-48"/>
      </g>
     </g>
    </g>
    <g id="ytick_4">
     <g id="line2d_13">
      <g>
       <use style="stroke:#000000;stroke-width:0.8;" x="54.02" xlink:href="#m357bc49c37" y="243.74"/>
      </g>
     </g>
     <g id="text_14">
      <!-- 0.35 -->
      <g transform="translate(24.754375 247.539219)scale(0.1 -0.1)">
       <use xlink:href="#DejaVuSans-48"/>
       <use x="63.623047" xlink:href="#DejaVuSans-46"/>
       <use x="95.410156" xlink:href="#DejaVuSans-51"/>
       <use x="159.033203" xlink:href="#DejaVuSans-53"/>
      </g>
     </g>
    </g>
    <g id="ytick_5">
     <g id="line2d_14">
      <g>
       <use style="stroke:#000000;stroke-width:0.8;" x="54.02" xlink:href="#m357bc49c37" y="170.973333"/>
      </g>
     </g>
     <g id="text_15">
      <!-- 0.40 -->
      <defs>
       <path d="M 37.796875 64.3125 
L 12.890625 25.390625 
L 37.796875 25.390625 
z
M 35.203125 72.90625 
L 47.609375 72.90625 
L 47.609375 25.390625 
L 58.015625 25.390625 
L 58.015625 17.1875 
L 47.609375 17.1875 
L 47.609375 0 
L 37.796875 0 
L 37.796875 17.1875 
L 4.890625 17.1875 
L 4.890625 26.703125 
z
" id="DejaVuSans-52"/>
      </defs>
      <g transform="translate(24.754375 174.772552)scale(0.1 -0.1)">
       <use xlink:href="#DejaVuSans-48"/>
       <use x="63.623047" xlink:href="#DejaVuSans-46"/>
       <use x="95.410156" xlink:href="#DejaVuSans-52"/>
       <use x="159.033203" xlink:href="#DejaVuSans-48"/>
      </g>
     </g>
    </g>
    <g id="ytick_6">
     <g id="line2d_15">
      <g>
       <use style="stroke:#000000;stroke-width:0.8;" x="54.02" xlink:href="#m357bc49c37" y="98.206667"/>
      </g>
     </g>
     <g id="text_16">
      <!-- 0.45 -->
      <g transform="translate(24.754375 102.005885)scale(0.1 -0.1)">
       <use xlink:href="#DejaVuSans-48"/>
       <use x="63.623047" xlink:href="#DejaVuSans-46"/>
       <use x="95.410156" xlink:href="#DejaVuSans-52"/>
       <use x="159.033203" xlink:href="#DejaVuSans-53"/>
      </g>
     </g>
    </g>
    <g id="ytick_7">
     <g id="line2d_16">
      <g>
       <use style="stroke:#000000;stroke-width:0.8;" x="54.02" xlink:href="#m357bc49c37" y="25.44"/>
      </g>
     </g>
     <g id="text_17">
      <!-- 0.50 -->
      <g transform="translate(24.754375 29.239219)scale(0.1 -0.1)">
       <use xlink:href="#DejaVuSans-48"/>
       <use x="63.623047" xlink:href="#DejaVuSans-46"/>
       <use x="95.410156" xlink:href="#DejaVuSans-53"/>
       <use x="159.033203" xlink:href="#DejaVuSans-48"/>
      </g>
     </g>
    </g>
    <g id="text_18">
     <!-- Chopper radius [m] -->
     <defs>
      <path d="M 64.40625 67.28125 
L 64.40625 56.890625 
Q 59.421875 61.53125 53.78125 63.8125 
Q 48.140625 66.109375 41.796875 66.109375 
Q 29.296875 66.109375 22.65625 58.46875 
Q 16.015625 50.828125 16.015625 36.375 
Q 16.015625 21.96875 22.65625 14.328125 
Q 29.296875 6.6875 41.796875 6.6875 
Q 48.140625 6.6875 53.78125 8.984375 
Q 59.421875 11.28125 64.40625 15.921875 
L 64.40625 5.609375 
Q 59.234375 2.09375 53.4375 0.328125 
Q 47.65625 -1.421875 41.21875 -1.421875 
Q 24.65625 -1.421875 15.125 8.703125 
Q 5.609375 18.84375 5.609375 36.375 
Q 5.609375 53.953125 15.125 64.078125 
Q 24.65625 74.21875 41.21875 74.21875 
Q 47.75 74.21875 53.53125 72.484375 
Q 59.328125 70.75 64.40625 67.28125 
z
" id="DejaVuSans-67"/>
      <path d="M 54.890625 33.015625 
L 54.890625 0 
L 45.90625 0 
L 45.90625 32.71875 
Q 45.90625 40.484375 42.875 44.328125 
Q 39.84375 48.1875 33.796875 48.1875 
Q 26.515625 48.1875 22.3125 43.546875 
Q 18.109375 38.921875 18.109375 30.90625 
L 18.109375 0 
L 9.078125 0 
L 9.078125 75.984375 
L 18.109375 75.984375 
L 18.109375 46.1875 
Q 21.34375 51.125 25.703125 53.5625 
Q 30.078125 56 35.796875 56 
Q 45.21875 56 50.046875 50.171875 
Q 54.890625 44.34375 54.890625 33.015625 
z
" id="DejaVuSans-104"/>
      <path d="M 18.109375 8.203125 
L 18.109375 -20.796875 
L 9.078125 -20.796875 
L 9.078125 54.6875 
L 18.109375 54.6875 
L 18.109375 46.390625 
Q 20.953125 51.265625 25.265625 53.625 
Q 29.59375 56 35.59375 56 
Q 45.5625 56 51.78125 48.09375 
Q 58.015625 40.1875 58.015625 27.296875 
Q 58.015625 14.40625 51.78125 6.484375 
Q 45.5625 -1.421875 35.59375 -1.421875 
Q 29.59375 -1.421875 25.265625 0.953125 
Q 20.953125 3.328125 18.109375 8.203125 
z
M 48.6875 27.296875 
Q 48.6875 37.203125 44.609375 42.84375 
Q 40.53125 48.484375 33.40625 48.484375 
Q 26.265625 48.484375 22.1875 42.84375 
Q 18.109375 37.203125 18.109375 27.296875 
Q 18.109375 17.390625 22.1875 11.75 
Q 26.265625 6.109375 33.40625 6.109375 
Q 40.53125 6.109375 44.609375 11.75 
Q 48.6875 17.390625 48.6875 27.296875 
z
" id="DejaVuSans-112"/>
      <path d="M 45.40625 46.390625 
L 45.40625 75.984375 
L 54.390625 75.984375 
L 54.390625 0 
L 45.40625 0 
L 45.40625 8.203125 
Q 42.578125 3.328125 38.25 0.953125 
Q 33.9375 -1.421875 27.875 -1.421875 
Q 17.96875 -1.421875 11.734375 6.484375 
Q 5.515625 14.40625 5.515625 27.296875 
Q 5.515625 40.1875 11.734375 48.09375 
Q 17.96875 56 27.875 56 
Q 33.9375 56 38.25 53.625 
Q 42.578125 51.265625 45.40625 46.390625 
z
M 14.796875 27.296875 
Q 14.796875 17.390625 18.875 11.75 
Q 22.953125 6.109375 30.078125 6.109375 
Q 37.203125 6.109375 41.296875 11.75 
Q 45.40625 17.390625 45.40625 27.296875 
Q 45.40625 37.203125 41.296875 42.84375 
Q 37.203125 48.484375 30.078125 48.484375 
Q 22.953125 48.484375 18.875 42.84375 
Q 14.796875 37.203125 14.796875 27.296875 
z
" id="DejaVuSans-100"/>
     </defs>
     <g transform="translate(18.674688 292.34625)rotate(-90)scale(0.1 -0.1)">
      <use xlink:href="#DejaVuSans-67"/>
      <use x="69.824219" xlink:href="#DejaVuSans-104"/>
      <use x="133.203125" xlink:href="#DejaVuSans-111"/>
      <use x="194.384766" xlink:href="#DejaVuSans-112"/>
      <use x="257.861328" xlink:href="#DejaVuSans-112"/>
      <use x="321.337891" xlink:href="#DejaVuSans-101"/>
      <use x="382.861328" xlink:href="#DejaVuSans-114"/>
      <use x="423.974609" xlink:href="#DejaVuSans-32"/>
      <use x="455.761719" xlink:href="#DejaVuSans-114"/>
      <use x="496.875" xlink:href="#DejaVuSans-97"/>
      <use x="558.154297" xlink:href="#DejaVuSans-100"/>
      <use x="621.630859" xlink:href="#DejaVuSans-105"/>
      <use x="649.414062" xlink:href="#DejaVuSans-117"/>
      <use x="712.792969" xlink:href="#DejaVuSans-115"/>
      <use x="764.892578" xlink:href="#DejaVuSans-32"/>
      <use x="796.679688" xlink:href="#DejaVuSans-91"/>
      <use x="835.693359" xlink:href="#DejaVuSans-109"/>
      <use x="933.105469" xlink:href="#DejaVuSans-93"/>
     </g>
    </g>
   </g>
   <g id="LineCollection_1">
    <path clip-path="url(#pf769815233)" d="M 398.27405 462.04 
L 400.399075 462.04 
L 402.5241 460.584667 
L 404.649125 460.584667 
L 406.77415 460.584667 
L 408.899175 459.129333 
L 411.0242 459.129333 
L 413.149225 457.674 
L 415.27425 457.674 
L 417.399275 456.218667 
L 419.5243 456.218667 
L 420.106706 456.218667 
" style="fill:none;stroke:#0000ff;stroke-width:1.5;"/>
    <path clip-path="url(#pf769815233)" d="M 457.192344 444.576 
L 457.77475 444.576 
L 459.899775 444.576 
L 462.0248 443.120667 
L 464.149825 443.120667 
L 466.27485 441.665333 
L 468.399875 441.665333 
L 470.5249 440.21 
L 472.649925 440.21 
L 474.77495 438.754667 
L 476.899975 438.754667 
L 479.025 437.299333 
" style="fill:none;stroke:#0000ff;stroke-width:1.5;"/>
   </g>
   <g id="LineCollection_2">
    <path clip-path="url(#pf769815233)" d="M 388.179925 462.04 
L 389.77395 461.494166 
L 391.898975 460.948326 
L 394.024 460.766488 
L 394.554976 460.584667 
L 396.149025 459.493 
L 398.27405 459.492976 
L 398.805037 459.129333 
L 400.399075 458.037673 
L 402.5241 458.03765 
L 403.055097 457.674 
L 404.649125 457.128164 
L 406.77415 456.582324 
L 408.899175 456.400486 
L 409.430146 456.218667 
L 411.0242 455.126996 
L 413.149225 455.126972 
L 413.680206 454.763333 
L 415.27425 453.671669 
L 417.399275 453.671645 
L 417.930265 453.308 
L 419.5243 452.216341 
L 421.649325 452.216318 
L 422.180324 451.852667 
L 423.77435 451.306831 
L 425.899375 450.76099 
L 428.0244 450.579153 
L 428.555371 450.397333 
L 430.149425 449.305662 
L 432.27445 449.305638 
L 432.805429 448.942 
L 434.399475 447.850333 
L 436.5245 447.85031 
L 437.055486 447.486667 
L 438.649525 446.395004 
L 440.77455 446.394981 
L 441.305543 446.031333 
L 442.899575 444.939675 
L 445.0246 444.939652 
L 447.149625 444.757817 
L 447.680589 444.576 
L 449.27465 443.484323 
L 451.399675 443.302486 
L 451.930645 443.120667 
L 453.5247 442.028993 
L 455.649725 442.028969 
L 456.180701 441.665333 
L 457.77475 440.573664 
L 459.899775 440.57364 
L 460.332746 440.277123 
" style="fill:none;stroke:#0000ff;stroke-width:1.5;"/>
   </g>
   <g id="LineCollection_3">
    <path clip-path="url(#pf769815233)" d="M 377.023502 462.04 
L 377.0238 462.039796 
L 379.148825 462.039766 
L 381.27385 461.312218 
L 383.398547 460.584667 
L 383.398875 460.584442 
L 385.5239 460.584409 
L 387.64861 459.129333 
L 387.648925 459.129118 
L 388.230869 459.129109 
" style="fill:none;stroke:#0000ff;stroke-width:1.5;"/>
    <path clip-path="url(#pf769815233)" d="M 425.413572 447.819142 
L 425.899053 447.486667 
L 425.899375 447.486446 
L 428.0244 447.486414 
L 430.14911 446.031333 
L 430.149425 446.031118 
L 432.27445 446.031087 
L 434.399167 444.576 
L 434.399475 444.575789 
L 436.5245 444.575759 
L 438.649224 443.120667 
L 438.649525 443.12046 
L 440.77455 443.120431 
L 442.899279 441.665333 
L 442.899575 441.665131 
L 445.0246 441.665102 
L 447.149625 441.665069 
L 449.274318 440.21 
L 449.27465 440.209773 
L 451.399675 440.20974 
L 453.524373 438.754667 
L 453.5247 438.754443 
L 455.649725 438.754411 
L 457.774428 437.299333 
L 457.77475 437.299113 
L 459.899775 437.299082 
L 462.024483 435.844 
L 462.0248 435.843783 
L 464.149825 435.843752 
L 466.274537 434.388667 
L 466.27485 434.388452 
L 468.399875 434.388422 
L 470.52459 432.933333 
L 470.5249 432.933121 
L 472.649925 432.933092 
L 474.774643 431.478 
L 474.77495 431.47779 
L 476.899975 431.477761 
L 479.024696 430.022667 
L 479.025 430.022459 
" style="fill:none;stroke:#0000ff;stroke-width:1.5;"/>
   </g>
   <g id="LineCollection_4">
    <path clip-path="url(#pf769815233)" d="M 367.992104 462.04 
L 368.5237 461.675945 
L 370.648725 461.675912 
L 372.242167 460.584667 
L 372.77375 460.22062 
L 374.898775 460.220588 
L 376.492229 459.129333 
L 377.0238 458.765295 
L 377.606123 458.765286 
" style="fill:none;stroke:#0000ff;stroke-width:1.5;"/>
    <path clip-path="url(#pf769815233)" d="M 414.78876 447.455099 
L 415.27425 447.122618 
L 417.399275 447.122586 
L 418.992722 446.031333 
L 419.5243 445.667289 
L 421.649325 445.667258 
L 423.242778 444.576 
L 423.77435 444.211959 
L 425.899375 444.211929 
L 427.492834 443.120667 
L 428.0244 442.756629 
L 430.149425 442.7566 
L 431.742889 441.665333 
L 432.27445 441.301299 
L 434.399475 441.30127 
L 436.5245 441.301238 
L 438.117925 440.21 
L 438.649525 439.84594 
L 440.77455 439.845908 
L 442.36798 438.754667 
L 442.899575 438.39061 
L 445.0246 438.390578 
L 446.618034 437.299333 
L 447.149625 436.935279 
L 449.27465 436.935248 
L 450.868087 435.844 
L 451.399675 435.479948 
L 453.5247 435.479918 
L 455.118141 434.388667 
L 455.649725 434.024617 
L 457.77475 434.024587 
L 459.368193 432.933333 
L 459.899775 432.569285 
L 462.0248 432.569255 
L 463.618246 431.478 
L 464.149825 431.113954 
L 466.27485 431.113924 
L 467.868298 430.022667 
L 468.399875 429.658622 
L 470.5249 429.658592 
L 472.11835 428.567333 
L 472.649925 428.203289 
L 474.77495 428.20326 
L 476.368401 427.112 
L 476.899975 426.747957 
L 479.025 426.747928 
" style="fill:none;stroke:#0000ff;stroke-width:1.5;"/>
   </g>
   <g id="LineCollection_5">
    <path clip-path="url(#pf769815233)" d="M 354.710736 462.04 
L 355.77355 461.312145 
L 357.898575 461.312117 
L 360.0236 461.312085 
L 361.085779 460.584667 
L 362.148625 459.856791 
L 364.27365 459.856761 
L 365.335841 459.129333 
L 366.398675 458.401465 
L 368.5237 458.401435 
L 369.585901 457.674 
L 370.648725 456.946138 
L 372.77375 456.946109 
L 373.83596 456.218667 
L 374.898775 455.49081 
L 377.0238 455.490782 
L 379.148825 455.490751 
L 380.211001 454.763333 
L 381.27385 454.035455 
L 383.398875 454.035424 
L 384.461059 453.308 
L 385.5239 452.580127 
L 387.648925 452.580097 
L 388.711117 451.852667 
L 389.77395 451.124798 
L 391.898975 451.124769 
L 392.961175 450.397333 
L 394.024 449.669469 
L 396.149025 449.669441 
L 397.211231 448.942 
L 398.27405 448.21414 
L 400.399075 448.214112 
L 401.461287 447.486667 
L 402.5241 446.75881 
L 404.649125 446.758783 
L 406.77415 446.758751 
L 407.836325 446.031333 
L 408.899175 445.303453 
L 411.0242 445.303422 
L 412.08638 444.576 
L 413.149225 443.848123 
L 415.27425 443.848093 
L 416.336435 443.120667 
L 417.399275 442.392792 
L 419.5243 442.392763 
L 420.586489 441.665333 
L 421.649325 440.937461 
L 423.77435 440.937432 
L 424.61323 440.362934 
" style="fill:none;stroke:#0000ff;stroke-width:1.5;"/>
    <path clip-path="url(#pf769815233)" d="M 461.442453 427.839452 
L 462.0248 427.839445 
L 463.087007 427.112 
L 464.149825 426.384138 
L 466.27485 426.384111 
L 467.337057 425.656667 
L 468.399875 424.928805 
L 470.5249 424.928778 
L 471.587107 424.201333 
L 472.649925 423.473471 
L 474.77495 423.473444 
L 475.837156 422.746 
L 476.899975 422.018137 
L 479.025 422.01811 
" style="fill:none;stroke:#0000ff;stroke-width:1.5;"/>
   </g>
   <g id="LineCollection_6">
    <path clip-path="url(#pf769815233)" d="M 372.288253 452.548793 
L 372.77375 452.216305 
L 374.898775 452.216278 
L 375.429718 451.852667 
L 377.0238 450.760976 
L 379.148825 450.760949 
L 379.679774 450.397333 
L 381.27385 449.305646 
L 383.398875 449.305619 
L 383.929829 448.942 
L 385.5239 447.850315 
L 387.648925 447.850289 
L 389.77395 447.850259 
L 390.304866 447.486667 
L 391.898975 446.394959 
L 394.024 446.39493 
L 394.554921 446.031333 
L 396.149025 444.939628 
L 398.27405 444.939599 
L 398.804975 444.576 
L 400.399075 443.484297 
L 402.5241 443.484269 
L 403.055029 443.120667 
L 404.649125 442.028966 
L 406.77415 442.028938 
L 407.305082 441.665333 
L 408.899175 440.573634 
L 411.0242 440.573606 
L 411.555135 440.21 
L 413.149225 439.118302 
L 415.27425 439.118274 
L 415.805187 438.754667 
L 417.399275 437.66297 
L 419.5243 437.662942 
L 420.055238 437.299333 
L 421.649325 436.207637 
L 423.77435 436.20761 
L 424.30529 435.844 
L 425.899375 434.752304 
L 428.0244 434.752277 
L 428.55534 434.388667 
L 430.149425 433.296971 
L 432.27445 433.296944 
L 432.805391 432.933333 
L 434.399475 431.841638 
L 436.5245 431.841611 
L 437.055441 431.478 
L 438.649525 430.386304 
L 440.77455 430.386278 
L 441.305491 430.022667 
L 442.899575 428.930971 
L 445.0246 428.930944 
L 445.55554 428.567333 
L 447.149625 427.475637 
L 449.27465 427.47561 
L 449.805589 427.112 
L 451.399675 426.020303 
L 453.5247 426.020276 
L 454.055638 425.656667 
L 455.649725 424.564968 
L 457.77475 424.564942 
L 458.305687 424.201333 
L 459.899775 423.109634 
L 462.0248 423.109607 
L 462.555735 422.746 
L 464.149825 421.654299 
L 466.27485 421.654273 
L 466.805783 421.290667 
L 468.399875 420.198964 
L 470.5249 420.198938 
L 471.05583 419.835333 
L 472.649925 418.743629 
L 474.77495 418.743603 
L 475.305878 418.38 
L 476.899975 417.288294 
L 479.025 417.288267 
" style="fill:none;stroke:#0000ff;stroke-width:1.5;"/>
   </g>
   <g id="LineCollection_7">
    <path clip-path="url(#pf769815233)" d="M 323.897939 462.04 
L 323.898175 462.039839 
L 326.0232 462.039816 
L 328.147997 460.584667 
L 328.148225 460.58451 
L 330.27325 460.584488 
L 332.398053 459.129333 
L 332.398275 459.129181 
L 334.5233 459.12916 
L 336.648109 457.674 
L 336.648325 457.673852 
L 338.77335 457.673831 
L 340.898164 456.218667 
L 340.898375 456.218522 
L 343.0234 456.218501 
L 345.148425 456.218478 
L 347.273214 454.763333 
L 347.27345 454.763171 
L 349.398475 454.763148 
L 351.523268 453.308 
L 351.5235 453.307841 
L 353.648525 453.307819 
L 355.773322 451.852667 
L 355.77355 451.852511 
L 357.898575 451.852488 
L 360.023375 450.397333 
L 360.0236 450.39718 
L 362.148625 450.397158 
L 364.273428 448.942 
L 364.27365 448.941848 
L 366.398675 448.941827 
L 368.523481 447.486667 
L 368.5237 447.486517 
L 370.648725 447.486495 
L 372.773533 446.031333 
L 372.77375 446.031185 
L 374.898775 446.031164 
L 377.023585 444.576 
L 377.0238 444.575853 
L 379.148825 444.575832 
L 381.273636 443.120667 
L 381.27385 443.12052 
L 383.398875 443.1205 
L 385.523687 441.665333 
L 385.5239 441.665188 
L 387.648925 441.665167 
L 389.77395 441.665144 
L 391.898733 440.21 
L 391.898975 440.209834 
L 394.024 440.209811 
L 396.148784 438.754667 
L 396.149025 438.754501 
L 398.27405 438.754479 
L 400.398834 437.299333 
L 400.399075 437.299168 
L 402.5241 437.299145 
L 404.648884 435.844 
L 404.649125 435.843835 
L 406.77415 435.843812 
L 408.898933 434.388667 
L 408.899175 434.388501 
L 411.0242 434.388478 
L 413.148982 432.933333 
L 413.149225 432.933167 
L 415.274036 431.478 
L 415.27425 431.477853 
L 417.399275 431.477833 
L 419.524084 430.022667 
L 419.5243 430.022519 
L 421.649325 430.022499 
L 423.774133 428.567333 
L 423.77435 428.567185 
L 425.899375 428.567164 
L 428.024181 427.112 
L 428.0244 427.11185 
L 430.149425 427.11183 
L 432.274229 425.656667 
L 432.27445 425.656515 
L 434.399475 425.656495 
L 436.524277 424.201333 
L 436.5245 424.201181 
L 438.649525 424.20116 
L 440.774325 422.746 
L 440.77455 422.745846 
L 442.899575 422.745825 
L 445.024372 421.290667 
L 445.0246 421.29051 
L 447.149625 421.29049 
L 449.274419 419.835333 
L 449.27465 419.835175 
L 450.280623 419.835165 
" style="fill:none;stroke:#0000ff;stroke-width:1.5;"/>
   </g>
   <g id="LineCollection_8">
    <path clip-path="url(#pf769815233)" d="M 306.366496 462.04 
L 306.897975 461.676021 
L 309.023 461.676001 
L 310.616553 460.584667 
L 311.148025 460.220692 
L 313.27305 460.220672 
L 314.866608 459.129333 
L 315.398075 458.765362 
L 317.5231 458.765343 
L 319.648125 458.765321 
L 321.241659 457.674 
L 321.77315 457.310013 
L 323.898175 457.309992 
L 325.491714 456.218667 
L 326.0232 455.854683 
L 328.148225 455.854662 
L 329.741768 454.763333 
L 330.27325 454.399352 
L 332.398275 454.399331 
L 333.991822 453.308 
L 334.5233 452.944021 
L 336.648325 452.944001 
L 338.241875 451.852667 
L 338.77335 451.488689 
L 340.898375 451.488669 
L 342.491927 450.397333 
L 343.0234 450.033358 
L 345.148425 450.033338 
L 346.741979 448.942 
L 347.27345 448.578026 
L 349.398475 448.578006 
L 350.992031 447.486667 
L 351.5235 447.122693 
L 353.648525 447.122674 
L 355.242082 446.031333 
L 355.77355 445.667361 
L 357.898575 445.667341 
L 360.0236 445.66732 
L 361.617129 444.576 
L 362.148625 444.212009 
L 364.27365 444.211987 
L 365.86718 443.120667 
L 366.398675 442.756676 
L 368.5237 442.756654 
L 370.11723 441.665333 
L 370.648725 441.301342 
L 372.77375 441.301321 
L 374.36728 440.21 
L 374.898775 439.846009 
L 375.267526 439.846005 
" style="fill:none;stroke:#0000ff;stroke-width:1.5;"/>
    <path clip-path="url(#pf769815233)" d="M 411.929375 426.74801 
L 413.149225 426.747998 
L 414.742766 425.656667 
L 415.27425 425.292683 
L 417.399275 425.292663 
L 418.992813 424.201333 
L 419.5243 423.837347 
L 421.649325 423.837327 
L 423.24286 422.746 
L 423.77435 422.382011 
L 425.899375 422.381991 
L 427.492906 421.290667 
L 428.0244 420.926676 
L 430.149425 420.926655 
L 431.742952 419.835333 
L 432.27445 419.47134 
L 433.868001 418.38 
L 434.399475 418.016022 
L 436.5245 418.016003 
L 438.118047 416.924667 
L 438.649525 416.560686 
L 440.77455 416.560667 
L 442.368092 415.469333 
L 442.899575 415.10535 
L 445.0246 415.10533 
L 446.618138 414.014 
L 447.149625 413.650013 
L 449.27465 413.649994 
L 450.868183 412.558667 
L 451.399675 412.194677 
L 453.5247 412.194657 
L 455.118228 411.103333 
L 455.649725 410.73934 
L 457.243275 409.648 
L 457.77475 409.284022 
L 459.899775 409.284003 
L 461.49332 408.192667 
L 462.0248 407.828685 
L 464.149825 407.828666 
L 465.743365 406.737333 
L 466.27485 406.373348 
L 468.399875 406.373329 
L 469.99341 405.282 
L 470.5249 404.918011 
L 472.649925 404.917991 
L 474.243454 403.826667 
L 474.77495 403.462674 
L 476.3685 402.371333 
L 476.899975 402.007354 
L 479.025 402.007336 
" style="fill:none;stroke:#0000ff;stroke-width:1.5;"/>
   </g>
   <g id="LineCollection_9">
    <path clip-path="url(#pf769815233)" d="M 311.415964 454.035527 
L 313.27305 454.035511 
L 314.335348 453.308 
L 315.398075 452.580198 
L 317.5231 452.580179 
L 318.5854 451.852667 
L 319.648125 451.124866 
L 321.77315 451.124847 
L 323.898175 451.124827 
L 324.960449 450.397333 
L 326.0232 449.669515 
L 328.148225 449.669495 
L 329.2105 448.942 
L 330.27325 448.214183 
L 332.398275 448.214163 
L 333.460552 447.486667 
L 334.5233 446.75885 
L 336.648325 446.75883 
L 337.710602 446.031333 
L 338.77335 445.303517 
L 340.898375 445.303497 
L 341.960652 444.576 
L 343.0234 443.848183 
L 345.148425 443.848163 
L 346.210702 443.120667 
L 347.27345 442.39285 
L 349.398475 442.39283 
L 350.460752 441.665333 
L 351.5235 440.937516 
L 353.648525 440.937496 
L 354.710801 440.21 
L 355.77355 439.482182 
L 357.898575 439.482162 
L 358.960849 438.754667 
L 360.0236 438.026847 
L 362.148625 438.026827 
L 363.210898 437.299333 
L 364.27365 436.571513 
L 366.398675 436.571493 
L 367.460945 435.844 
L 368.5237 435.116178 
L 369.585996 434.388667 
L 370.648725 433.660861 
L 372.77375 433.660843 
L 373.836044 432.933333 
L 374.898775 432.205526 
L 377.0238 432.205508 
L 378.086091 431.478 
L 379.148825 430.750191 
L 381.27385 430.750172 
L 382.336138 430.022667 
L 383.398875 429.294856 
L 385.5239 429.294837 
L 386.586185 428.567333 
L 387.648925 427.83952 
L 389.77395 427.839501 
L 390.836231 427.112 
L 391.898975 426.384184 
L 394.024 426.384165 
L 395.086277 425.656667 
L 396.149025 424.928848 
L 398.27405 424.928829 
L 399.336323 424.201333 
L 400.399075 423.473512 
L 402.5241 423.473492 
L 403.586368 422.746 
L 404.649125 422.018176 
L 405.711417 421.290667 
L 406.77415 420.562857 
L 408.899175 420.562839 
L 409.961462 419.835333 
L 411.0242 419.107521 
L 413.149225 419.107502 
L 414.211507 418.38 
L 415.27425 417.652184 
L 417.399275 417.652165 
L 418.461552 416.924667 
L 419.5243 416.196847 
L 421.649325 416.196828 
L 422.711596 415.469333 
L 423.77435 414.74151 
L 424.836643 414.014 
L 425.899375 413.286191 
L 428.0244 413.286173 
L 429.086688 412.558667 
L 430.149425 411.830854 
L 432.27445 411.830836 
L 433.336732 411.103333 
L 434.399475 410.375517 
L 436.5245 410.375498 
L 437.586776 409.648 
L 438.649525 408.920179 
L 440.77455 408.92016 
L 441.836819 408.192667 
L 442.899575 407.464842 
L 443.961865 406.737333 
L 445.0246 406.009522 
L 447.149625 406.009504 
L 448.211908 405.282 
L 449.27465 404.554184 
L 451.399675 404.554166 
L 452.461952 403.826667 
L 453.5247 403.098846 
L 455.649725 403.098828 
L 456.711995 402.371333 
L 457.77475 401.643508 
L 458.83704 400.916 
L 459.899775 400.188188 
L 462.0248 400.18817 
L 463.087083 399.460667 
L 464.149825 398.73285 
L 466.27485 398.732832 
L 467.337125 398.005333 
L 468.399875 397.277512 
L 470.5249 397.277493 
L 471.587168 396.55 
L 472.649925 395.822174 
L 473.712212 395.094667 
L 474.77495 394.366853 
L 476.899975 394.366835 
L 477.962255 393.639333 
L 479.025 392.911514 
" style="fill:none;stroke:#0000ff;stroke-width:1.5;"/>
   </g>
   <g id="LineCollection_10">
    <path clip-path="url(#pf769815233)" d="M 267.053519 462.04 
L 268.647525 460.948356 
L 270.77255 460.948337 
L 271.303575 460.584667 
L 272.897575 459.493026 
L 275.0226 459.493008 
L 275.55363 459.129333 
L 277.147625 458.037695 
L 277.729988 458.03769 
" style="fill:none;stroke:#0000ff;stroke-width:1.5;"/>
    <path clip-path="url(#pf769815233)" d="M 314.81571 446.395007 
L 315.398075 446.395002 
L 315.929096 446.031333 
L 317.5231 444.939687 
L 319.648125 444.939668 
L 320.179146 444.576 
L 321.77315 443.484353 
L 323.898175 443.484334 
L 324.429195 443.120667 
L 326.0232 442.029019 
L 328.148225 442.029 
L 328.679243 441.665333 
L 330.27325 440.573685 
L 332.398275 440.573666 
L 332.929292 440.21 
L 334.5233 439.11835 
L 336.648325 439.118331 
L 337.17934 438.754667 
L 338.77335 437.663015 
L 340.898375 437.662996 
L 341.429387 437.299333 
L 343.0234 436.20768 
L 345.148425 436.207661 
L 345.679434 435.844 
L 347.27345 434.752345 
L 347.804484 434.388667 
L 349.398475 433.297027 
L 351.5235 433.297009 
L 352.054531 432.933333 
L 353.648525 431.841691 
L 355.77355 431.841673 
L 356.304577 431.478 
L 357.898575 430.386356 
L 360.0236 430.386337 
L 360.554623 430.022667 
L 362.148625 428.93102 
L 364.27365 428.931001 
L 364.804669 428.567333 
L 366.398675 427.475683 
L 368.5237 427.475664 
L 369.054714 427.112 
L 370.648725 426.020347 
L 372.77375 426.020328 
L 373.304759 425.656667 
L 374.898775 424.56501 
L 375.429807 424.201333 
L 377.0238 423.109691 
L 379.148825 423.109673 
L 379.679851 422.746 
L 381.27385 421.654354 
L 383.398875 421.654336 
L 383.929896 421.290667 
L 385.5239 420.199017 
L 387.648925 420.198999 
L 388.17994 419.835333 
L 389.77395 418.74368 
L 391.898975 418.743661 
L 392.429984 418.38 
L 394.024 417.288342 
L 394.55503 416.924667 
L 396.149025 415.833023 
L 398.27405 415.833005 
L 398.805074 415.469333 
L 400.399075 414.377685 
L 402.5241 414.377667 
L 403.055117 414.014 
L 404.649125 412.922347 
L 406.77415 412.922329 
L 407.30516 412.558667 
L 408.899175 411.467009 
L 409.430205 411.103333 
L 411.0242 410.011689 
L 413.149225 410.011671 
L 413.680248 409.648 
L 415.27425 408.556351 
L 417.399275 408.556333 
L 417.930291 408.192667 
L 419.5243 407.101013 
L 421.649325 407.100994 
L 422.180333 406.737333 
L 423.77435 405.645674 
L 424.305378 405.282 
L 425.899375 404.190353 
L 428.0244 404.190336 
L 428.55542 403.826667 
L 430.149425 402.735015 
L 432.27445 402.734997 
L 432.805462 402.371333 
L 434.399475 401.279676 
L 434.930505 400.916 
L 436.5245 399.824355 
L 438.649525 399.824337 
L 439.180547 399.460667 
L 440.77455 398.369016 
L 442.899575 398.368998 
L 443.430589 398.005333 
L 445.0246 396.913677 
L 447.149625 396.913659 
L 447.68063 396.55 
L 449.27465 395.458338 
L 449.805673 395.094667 
L 451.399675 394.003016 
L 453.5247 394.002999 
L 454.055715 393.639333 
L 455.649725 392.547677 
L 457.77475 392.547659 
L 458.305755 392.184 
L 459.899775 391.092338 
L 460.430798 390.728667 
L 462.0248 389.637016 
L 464.149825 389.636999 
L 464.680839 389.273333 
L 466.27485 388.181677 
L 468.399875 388.181659 
L 468.93088 387.818 
L 470.5249 386.726337 
L 471.055921 386.362667 
L 472.649925 385.271015 
L 474.77495 385.270997 
L 475.305962 384.907333 
L 476.899975 383.815675 
L 477.431003 383.452 
L 479.025 382.360352 
" style="fill:none;stroke:#0000ff;stroke-width:1.5;"/>
   </g>
   <g id="LineCollection_11">
    <path clip-path="url(#pf769815233)" d="M 230.39695 462.04 
L 230.397075 462.039914 
L 232.5221 462.039904 
L 234.647125 460.584584 
L 238.897175 460.584562 
L 241.0222 459.129243 
L 243.147225 459.129232 
L 245.27225 457.673912 
L 247.397275 457.673901 
L 249.5223 456.21858 
L 251.647325 456.218569 
L 253.77235 454.763248 
L 255.897375 454.763238 
L 258.0224 453.307916 
L 262.27245 453.307894 
L 264.397475 451.852573 
L 266.5225 451.852561 
L 268.647525 450.397241 
L 270.77255 450.397229 
L 272.897575 448.941908 
L 275.0226 448.941896 
L 277.147625 447.486574 
L 279.27265 447.486563 
L 281.397675 446.031241 
L 283.5227 446.031229 
L 285.647725 444.575907 
L 287.77275 444.575895 
L 289.897775 443.120574 
L 292.0228 443.120561 
L 294.147825 441.665239 
L 296.27285 441.665227 
L 300.5229 438.754582 
L 302.647925 438.754571 
L 304.77295 437.299247 
L 306.897975 437.299236 
L 309.023 435.843913 
L 311.148025 435.843901 
L 313.27305 434.388578 
L 315.398075 434.388566 
L 317.5231 432.933243 
L 319.648125 432.933231 
L 321.77315 431.477907 
L 323.898175 431.477895 
L 328.148225 428.567247 
L 330.27325 428.567236 
L 332.398275 427.111912 
L 334.5233 427.1119 
L 336.648325 425.656576 
L 338.77335 425.656564 
L 343.0234 422.745915 
L 345.148425 422.745904 
L 347.27345 421.290579 
L 349.398475 421.290568 
L 351.5235 419.835243 
L 353.648525 419.835231 
L 357.898575 416.924581 
L 360.0236 416.92457 
L 362.148625 415.469245 
L 364.27365 415.469233 
L 366.398675 414.013908 
L 368.5237 414.013897 
L 372.77375 411.103246 
L 374.898775 411.103234 
L 377.0238 409.647909 
L 379.148825 409.647897 
L 383.398875 406.737246 
L 385.5239 406.737235 
L 387.648925 405.281909 
L 389.77395 405.281897 
L 394.024 402.371245 
L 396.149025 402.371234 
L 400.399075 399.460581 
L 402.5241 399.460571 
L 404.649125 398.005244 
L 406.77415 398.005233 
L 407.966464 397.188675 
L 407.966464 397.188675 
" style="fill:none;stroke:#0000ff;stroke-width:1.5;"/>
    <path clip-path="url(#pf769815233)" d="M 443.832285 381.357804 
L 445.02447 380.541333 
L 445.0246 380.541244 
L 447.149625 380.541234 
L 449.274513 379.086 
L 449.27465 379.085906 
L 451.399546 377.630667 
L 451.399675 377.630579 
L 453.5247 377.630568 
L 455.64959 376.175333 
L 455.649725 376.175241 
L 457.774623 374.72 
L 457.77475 374.719913 
L 459.899775 374.719903 
L 462.024666 373.264667 
L 462.0248 373.264575 
L 464.149699 371.809333 
L 464.149825 371.809247 
L 466.27485 371.809237 
L 468.399742 370.354 
L 468.399875 370.353909 
L 470.524774 368.898667 
L 470.5249 368.898581 
L 472.649925 368.898571 
L 474.774817 367.443333 
L 474.77495 367.443243 
L 476.89985 365.988 
L 476.899975 365.987914 
L 479.025 365.987904 
" style="fill:none;stroke:#0000ff;stroke-width:1.5;"/>
   </g>
   <g id="LineCollection_12">
    <path clip-path="url(#pf769815233)" d="M 200.115331 462.04 
L 200.646725 461.676077 
L 202.77175 461.676067 
L 204.365387 460.584667 
L 204.896775 460.220747 
L 207.0218 460.220738 
L 209.146825 460.220727 
L 210.740452 459.129333 
L 211.27185 458.765408 
L 213.396875 458.765398 
L 214.990507 457.674 
L 215.5219 457.310078 
L 217.646925 457.310067 
L 219.240561 456.218667 
L 219.77195 455.854747 
L 221.896975 455.854737 
L 223.490614 454.763333 
L 224.022 454.399415 
L 226.147025 454.399405 
L 228.27205 454.399394 
L 229.865677 453.308 
L 230.397075 452.944074 
L 232.5221 452.944063 
L 234.115729 451.852667 
L 234.647125 451.488742 
L 236.77215 451.488731 
L 238.365781 450.397333 
L 238.897175 450.03341 
L 241.0222 450.033399 
L 242.615832 448.942 
L 243.147225 448.578077 
L 245.27225 448.578066 
L 246.865883 447.486667 
L 247.397275 447.122744 
L 249.5223 447.122733 
L 251.115933 446.031333 
L 251.647325 445.667411 
L 253.77235 445.6674 
L 255.365983 444.576 
L 255.897375 444.212077 
L 258.0224 444.212066 
L 259.616032 443.120667 
L 260.147425 442.756743 
L 262.27245 442.756732 
L 263.866081 441.665333 
L 264.397475 441.301409 
L 266.5225 441.301398 
L 268.11613 440.21 
L 268.647525 439.846075 
L 270.77255 439.846064 
L 272.366178 438.754667 
L 272.897575 438.390741 
L 275.0226 438.390729 
L 276.616226 437.299333 
L 277.147625 436.935406 
L 279.27265 436.935394 
L 280.866274 435.844 
L 281.397675 435.480071 
L 283.5227 435.480059 
L 285.116321 434.388667 
L 285.647725 434.024736 
L 287.24136 432.933333 
L 287.77275 432.569412 
L 289.897775 432.569401 
L 291.491407 431.478 
L 292.0228 431.114076 
L 294.147825 431.114065 
L 295.741454 430.022667 
L 296.27285 429.658741 
L 298.397875 429.658729 
L 299.9915 428.567333 
L 300.5229 428.203405 
L 302.647925 428.203393 
L 304.241546 427.112 
L 304.77295 426.748069 
L 306.366584 425.656667 
L 306.897975 425.292744 
L 309.023 425.292733 
L 310.616629 424.201333 
L 311.148025 423.837408 
L 313.27305 423.837396 
L 314.866675 422.746 
L 315.398075 422.382071 
L 316.991712 421.290667 
L 317.5231 420.926746 
L 319.648125 420.926735 
L 321.241757 419.835333 
L 321.77315 419.471409 
L 323.898175 419.471398 
L 324.559094 419.018767 
" style="fill:none;stroke:#0000ff;stroke-width:1.5;"/>
    <path clip-path="url(#pf769815233)" d="M 360.50497 403.462741 
L 362.148625 403.462732 
L 363.742252 402.371333 
L 364.27365 402.007406 
L 366.398675 402.007394 
L 367.992296 400.916 
L 368.5237 400.552068 
L 370.11733 399.460667 
L 370.648725 399.096741 
L 372.77375 399.09673 
L 374.367373 398.005333 
L 374.898775 397.641403 
L 376.492407 396.55 
L 377.0238 396.186075 
L 379.148825 396.186065 
L 380.74245 395.094667 
L 381.27385 394.730737 
L 382.867484 393.639333 
L 383.398875 393.27541 
L 385.5239 393.275399 
L 387.117527 392.184 
L 387.648925 391.820072 
L 389.24256 390.728667 
L 389.77395 390.364744 
L 391.898975 390.364734 
L 393.492603 389.273333 
L 394.024 388.909406 
L 396.149025 388.909395 
L 397.742646 387.818 
L 398.27405 387.454068 
L 399.867679 386.362667 
L 400.399075 385.99874 
L 402.5241 385.998729 
L 404.117722 384.907333 
L 404.649125 384.543401 
L 406.242755 383.452 
L 406.77415 383.088073 
L 408.899175 383.088063 
L 410.492797 381.996667 
L 411.0242 381.632735 
L 412.61783 380.541333 
L 413.149225 380.177407 
L 415.27425 380.177396 
L 416.867872 379.086 
L 417.399275 378.722068 
L 418.992905 377.630667 
L 419.5243 377.26674 
L 421.649325 377.266729 
L 423.242947 376.175333 
L 423.77435 375.811402 
L 425.36798 374.72 
L 425.899375 374.356073 
L 428.0244 374.356063 
L 429.618022 373.264667 
L 430.149425 372.900734 
L 431.743054 371.809333 
L 432.27445 371.445406 
L 434.399475 371.445395 
L 435.993096 370.354 
L 436.5245 369.990067 
L 438.118128 368.898667 
L 438.649525 368.534739 
L 440.24316 367.443333 
L 440.77455 367.07941 
L 442.899575 367.0794 
L 444.493202 365.988 
L 445.0246 365.624071 
L 446.618234 364.532667 
L 447.149625 364.168742 
L 449.27465 364.168732 
L 450.868276 363.077333 
L 451.399675 362.713404 
L 452.993307 361.622 
L 453.5247 361.258075 
L 455.649725 361.258065 
L 457.243349 360.166667 
L 457.77475 359.802736 
L 459.368381 358.711333 
L 459.899775 358.347407 
L 462.0248 358.347397 
L 463.618422 357.256 
L 464.149825 356.892068 
L 465.743454 355.800667 
L 466.27485 355.436739 
L 467.868485 354.345333 
L 468.399875 353.98141 
L 470.5249 353.9814 
L 472.118527 352.89 
L 472.649925 352.526071 
L 474.243558 351.434667 
L 474.77495 351.070742 
L 476.899975 351.070732 
L 478.493599 349.979333 
L 479.025 349.615403 
" style="fill:none;stroke:#0000ff;stroke-width:1.5;"/>
   </g>
   <g id="LineCollection_13">
    <path clip-path="url(#pf769815233)" d="M 159.208595 462.04 
L 160.27125 461.312245 
L 162.396275 461.312238 
L 164.5213 461.312229 
L 165.583668 460.584667 
L 166.646325 459.85691 
L 168.77135 459.856902 
L 170.896375 459.856893 
L 171.95874 459.129333 
L 173.0214 458.401575 
L 175.146425 458.401566 
L 177.27145 458.401556 
L 178.333809 457.674 
L 179.396475 456.946238 
L 181.5215 456.946228 
L 182.583867 456.218667 
L 183.646525 455.490909 
L 185.77155 455.4909 
L 187.896575 455.49089 
L 188.958934 454.763333 
L 190.0216 454.03557 
L 192.146625 454.03556 
L 193.208989 453.308 
L 194.27165 452.58024 
L 196.396675 452.58023 
L 197.459044 451.852667 
L 198.5217 451.124909 
L 200.646725 451.1249 
L 202.77175 451.124889 
L 203.834107 450.397333 
L 204.896775 449.669569 
L 207.0218 449.669558 
L 208.084161 448.942 
L 209.146825 448.214237 
L 211.27185 448.214227 
L 212.334213 447.486667 
L 213.396875 446.758905 
L 215.5219 446.758895 
L 216.584265 446.031333 
L 217.646925 445.303573 
L 219.77195 445.303562 
L 220.834316 444.576 
L 221.896975 443.84824 
L 224.022 443.848229 
L 225.084366 443.120667 
L 226.147025 442.392907 
L 228.27205 442.392896 
L 229.334416 441.665333 
L 230.397075 440.937573 
L 230.97946 440.93757 
" style="fill:none;stroke:#0000ff;stroke-width:1.5;"/>
    <path clip-path="url(#pf769815233)" d="M 267.641265 427.839565 
L 268.647525 427.839559 
L 270.77255 426.384235 
L 272.897575 426.384223 
L 277.147625 423.473573 
L 279.27265 423.473562 
L 281.397675 422.018236 
L 283.5227 422.018225 
L 285.647725 420.5629 
L 287.77275 420.562888 
L 292.0228 417.652237 
L 294.147825 417.652225 
L 296.27285 416.1969 
L 298.397875 416.196888 
L 302.647925 413.286236 
L 304.77295 413.286224 
L 309.023 410.375572 
L 311.148025 410.375561 
L 313.27305 408.920234 
L 315.398075 408.920222 
L 319.648125 406.009569 
L 321.77315 406.009558 
L 326.0232 403.098904 
L 328.148225 403.098893 
L 332.398275 400.188238 
L 334.5233 400.188227 
L 336.648325 398.7329 
L 338.77335 398.732888 
L 343.0234 395.822234 
L 345.148425 395.822222 
L 349.398475 392.911567 
L 351.5235 392.911556 
L 355.77355 390.0009 
L 357.898575 390.000889 
L 362.148625 387.090233 
L 364.27365 387.090222 
L 368.5237 384.179566 
L 370.648725 384.179554 
L 377.0238 379.81357 
L 379.148825 379.813559 
L 383.398875 376.902902 
L 385.5239 376.902891 
L 389.77395 373.992234 
L 391.898975 373.992222 
L 398.27405 369.626236 
L 400.399075 369.626225 
L 404.649125 366.715568 
L 406.77415 366.715557 
L 413.149225 362.349569 
L 415.27425 362.349559 
L 419.5243 359.4389 
L 421.649325 359.43889 
L 428.0244 355.072902 
L 430.149425 355.072891 
L 436.5245 350.706903 
L 438.649525 350.706892 
L 442.899575 347.796233 
L 445.0246 347.796222 
L 451.399675 343.430233 
L 453.5247 343.430223 
L 459.899775 339.064233 
L 462.0248 339.064223 
L 468.399875 334.698233 
L 470.5249 334.698223 
L 476.899975 330.332233 
L 479.025 330.332223 
L 479.025 330.332223 
" style="fill:none;stroke:#0000ff;stroke-width:1.5;"/>
   </g>
   <g id="LineCollection_14">
    <path clip-path="url(#pf769815233)" d="M 86.42648 462.04 
L 88.0204 460.948412 
L 100.77055 460.948392 
L 102.895575 459.493077 
L 113.5207 459.493054 
L 115.645725 458.037738 
L 122.0208 458.037721 
L 124.145825 456.582405 
L 130.5209 456.582386 
L 132.645925 455.127069 
L 136.895975 455.127055 
L 139.021 453.671737 
L 143.27105 453.671723 
L 145.396075 452.216405 
L 149.646125 452.216389 
L 151.77115 450.76107 
L 156.0212 450.761054 
L 158.146225 449.305735 
L 162.396275 449.305718 
L 164.5213 447.850398 
L 166.646325 447.85039 
L 168.77135 446.395069 
L 173.0214 446.395051 
L 175.146425 444.939731 
L 177.27145 444.939721 
L 179.396475 443.4844 
L 183.646525 443.484381 
L 185.77155 442.02906 
L 187.896575 442.02905 
L 190.0216 440.573728 
L 192.146625 440.573718 
L 194.27165 439.118396 
L 196.396675 439.118386 
L 198.5217 437.663064 
L 200.646725 437.663053 
L 202.77175 436.207731 
L 204.896775 436.20772 
L 207.0218 434.752397 
L 209.146825 434.752387 
L 211.27185 433.297064 
L 213.396875 433.297053 
L 215.5219 431.84173 
L 217.646925 431.841719 
L 219.77195 430.386395 
L 221.896975 430.386384 
L 224.022 428.93106 
L 226.147025 428.931049 
L 228.27205 427.475725 
L 230.397075 427.475713 
L 234.647125 424.565065 
L 236.77215 424.565053 
L 238.897175 423.109729 
L 241.0222 423.109717 
L 243.147225 421.654392 
L 245.27225 421.654381 
L 249.5223 418.74373 
L 251.647325 418.743719 
L 253.77235 417.288393 
L 255.897375 417.288382 
L 260.147425 414.37773 
L 262.27245 414.377718 
L 264.397475 412.922392 
L 266.5225 412.922381 
L 270.77255 410.011728 
L 272.897575 410.011716 
L 275.0226 408.55639 
L 277.147625 408.556378 
L 280.464964 406.284493 
L 280.464964 406.284493 
" style="fill:none;stroke:#0000ff;stroke-width:1.5;"/>
    <path clip-path="url(#pf769815233)" d="M 316.330784 390.453611 
L 319.648125 388.181724 
L 321.77315 388.181711 
L 328.148225 383.815727 
L 330.27325 383.815715 
L 334.5233 380.905058 
L 336.648325 380.905046 
L 343.0234 376.53906 
L 345.148425 376.539048 
L 349.398475 373.62839 
L 351.5235 373.628379 
L 357.898575 369.262391 
L 360.0236 369.26238 
L 366.398675 364.896392 
L 368.5237 364.89638 
L 374.898775 360.530392 
L 377.0238 360.53038 
L 383.398875 356.164391 
L 385.5239 356.16438 
L 391.898975 351.79839 
L 394.024 351.798379 
L 402.5241 345.977059 
L 404.649125 345.977048 
L 411.0242 341.611057 
L 413.149225 341.611046 
L 421.649325 335.789725 
L 423.77435 335.789714 
L 432.27445 329.968391 
L 434.399475 329.968381 
L 442.899575 324.147058 
L 445.0246 324.147047 
L 453.5247 318.325724 
L 455.649725 318.325713 
L 464.149825 312.504389 
L 466.27485 312.504379 
L 476.899975 305.227723 
L 479.025 305.227713 
L 479.025 305.227713 
" style="fill:none;stroke:#0000ff;stroke-width:1.5;"/>
   </g>
   <g id="LineCollection_15">
    <path clip-path="url(#pf769815233)" d="M 54.02 440.209964 
L 56.145025 441.665289 
L 62.5201 441.665289 
L 64.645125 440.209963 
L 88.0204 440.209955 
L 90.145425 438.754629 
L 100.77055 438.754621 
L 102.895575 437.299294 
L 109.27065 437.299289 
L 111.395675 435.843962 
L 117.77075 435.843955 
L 119.895775 434.388628 
L 126.27085 434.38862 
L 128.395875 432.933292 
L 132.645925 432.933287 
L 134.77095 431.477959 
L 136.895975 431.477956 
L 139.021 430.022628 
L 143.27105 430.022622 
L 145.396075 428.567294 
L 149.646125 428.567287 
L 151.77115 427.111959 
L 153.896175 427.111955 
L 156.0212 425.656626 
L 158.146225 425.656623 
L 160.27125 424.201294 
L 164.5213 424.201287 
L 166.646325 422.745958 
L 168.77135 422.745954 
L 170.896375 421.290625 
L 173.0214 421.290621 
L 175.146425 419.835292 
L 177.27145 419.835288 
L 179.396475 418.379958 
L 181.5215 418.379954 
L 183.646525 416.924625 
L 185.77155 416.924621 
L 187.896575 415.469291 
L 190.0216 415.469287 
L 194.27165 412.558627 
L 196.396675 412.558623 
L 198.5217 411.103293 
L 200.646725 411.103289 
L 202.77175 409.647959 
L 204.896775 409.647954 
L 209.146825 406.737294 
L 211.27185 406.737289 
L 213.396875 405.281959 
L 215.5219 405.281954 
L 219.77195 402.371293 
L 221.896975 402.371289 
L 226.147025 399.460627 
L 228.27205 399.460623 
L 232.5221 396.549961 
L 234.647125 396.549956 
L 238.897175 393.639294 
L 241.0222 393.63929 
L 245.27225 390.728627 
L 247.397275 390.728623 
L 251.647325 387.81796 
L 253.77235 387.817956 
L 260.147425 383.451961 
L 262.27245 383.451957 
L 266.5225 380.541294 
L 268.647525 380.541289 
L 275.0226 376.175294 
L 277.147625 376.175289 
L 283.5227 371.809294 
L 285.647725 371.809289 
L 294.147825 365.987962 
L 296.27285 365.987957 
L 302.647925 361.621961 
L 304.77295 361.621956 
L 313.27305 355.800628 
L 315.398075 355.800623 
L 326.0232 348.523962 
L 328.148225 348.523957 
L 338.77335 341.247295 
L 340.898375 341.247291 
L 353.648525 332.515295 
L 355.77355 332.515291 
L 370.648725 322.327962 
L 372.77375 322.327958 
L 389.77395 310.685296 
L 391.898975 310.685291 
L 415.27425 294.676629 
L 417.399275 294.676625 
L 438.423546 280.278058 
L 438.423546 280.278058 
" style="fill:none;stroke:#0000ff;stroke-width:1.5;"/>
    <path clip-path="url(#pf769815233)" d="M 472.522397 258.380632 
L 472.649868 258.293333 
L 472.649925 258.293294 
L 474.774893 256.838 
L 474.77495 256.837961 
L 476.899918 255.382667 
L 476.899975 255.382628 
L 479.024943 253.927333 
L 479.025 253.927295 
" style="fill:none;stroke:#0000ff;stroke-width:1.5;"/>
   </g>
   <g id="LineCollection_16">
    <path clip-path="url(#pf769815233)" d="M 54.02 418.016117 
L 81.645325 418.016109 
L 83.77035 416.560783 
L 94.395475 416.560775 
L 96.5205 415.105449 
L 105.0206 415.10544 
L 107.145625 413.650114 
L 111.395675 413.650108 
L 113.5207 412.194781 
L 117.77075 412.194776 
L 119.895775 410.739448 
L 124.145825 410.739442 
L 126.27085 409.284114 
L 130.5209 409.284108 
L 132.645925 407.82878 
L 134.77095 407.828776 
L 136.895975 406.373448 
L 141.146025 406.37344 
L 143.27105 404.918112 
L 145.396075 404.918108 
L 147.5211 403.462779 
L 149.646125 403.462775 
L 151.77115 402.007447 
L 153.896175 402.007442 
L 156.0212 400.552113 
L 158.146225 400.552109 
L 160.27125 399.09678 
L 162.396275 399.096775 
L 164.5213 397.641446 
L 166.646325 397.641442 
L 168.77135 396.186112 
L 170.896375 396.186107 
L 173.0214 394.730778 
L 175.146425 394.730773 
L 179.396475 391.820113 
L 181.5215 391.820108 
L 183.646525 390.364778 
L 185.77155 390.364773 
L 190.0216 387.454113 
L 192.146625 387.454108 
L 196.396675 384.543447 
L 198.5217 384.543442 
L 202.77175 381.63278 
L 204.896775 381.632775 
L 209.146825 378.722113 
L 211.27185 378.722108 
L 215.5219 375.811446 
L 217.646925 375.81144 
L 224.022 371.445446 
L 226.147025 371.445441 
L 232.5221 367.079447 
L 234.647125 367.079441 
L 241.0222 362.713446 
L 243.147225 362.71344 
L 251.647325 356.892113 
L 253.77235 356.892107 
L 264.397475 349.615447 
L 266.5225 349.615441 
L 279.27265 340.883447 
L 281.397675 340.883441 
L 298.397875 329.240781 
L 300.5229 329.240775 
L 328.148225 310.321447 
L 330.27325 310.321442 
L 336.244456 306.232034 
L 336.244456 306.232034 
" style="fill:none;stroke:#0000ff;stroke-width:1.5;"/>
    <path clip-path="url(#pf769815233)" d="M 369.989917 283.121298 
L 370.117387 283.034 
L 370.648725 282.670111 
L 372.242412 281.578667 
L 372.77375 281.214777 
L 374.367437 280.123333 
L 374.898775 279.759444 
L 376.492462 278.668 
L 377.0238 278.304111 
L 378.617487 277.212667 
L 379.148825 276.848777 
L 380.742512 275.757333 
L 381.27385 275.393444 
L 382.867537 274.302 
L 383.398875 273.93811 
L 384.992562 272.846667 
L 385.5239 272.482777 
L 387.117586 271.391333 
L 387.648925 271.027443 
L 389.242611 269.936 
L 389.77395 269.57211 
L 391.367636 268.480667 
L 391.898975 268.116777 
L 393.492661 267.025333 
L 394.024 266.661443 
L 395.617686 265.57 
L 396.149025 265.20611 
L 397.74271 264.114667 
L 397.742717 262.659333 
L 398.27405 262.295448 
L 399.867742 261.204 
L 400.399075 260.840114 
L 401.992767 259.748667 
L 402.5241 259.384781 
L 404.117792 258.293333 
L 404.649125 257.929447 
L 406.242816 256.838 
L 406.77415 256.474113 
L 408.367841 255.382667 
L 408.899175 255.01878 
L 410.492866 253.927333 
L 411.0242 253.563446 
L 412.61789 252.472 
L 413.149225 252.108113 
L 414.742915 251.016667 
L 415.27425 250.652779 
L 416.86794 249.561333 
L 417.399275 249.197446 
L 418.992964 248.106 
L 419.5243 247.742112 
L 421.117989 246.650667 
L 421.649325 246.286778 
L 423.243013 245.195333 
L 423.77435 244.831445 
L 425.368038 243.74 
L 425.899375 243.376111 
L 427.493062 242.284667 
L 428.0244 241.920778 
L 429.618087 240.829333 
L 430.149425 240.465444 
L 431.743112 239.374 
L 432.27445 239.01011 
L 433.868136 237.918667 
L 433.868143 236.463333 
L 434.399475 236.099448 
L 435.993167 235.008 
L 436.5245 234.644114 
L 438.118192 233.552667 
L 438.649525 233.18878 
L 440.243216 232.097333 
L 440.77455 231.733447 
L 442.368241 230.642 
L 442.899575 230.278113 
L 444.493265 229.186667 
L 445.0246 228.822779 
L 446.61829 227.731333 
L 447.149625 227.367446 
L 448.743314 226.276 
L 449.27465 225.912112 
L 450.868339 224.820667 
L 451.399675 224.456778 
L 452.993363 223.365333 
L 453.5247 223.001445 
L 455.118388 221.91 
L 455.649725 221.546111 
L 457.243412 220.454667 
L 457.77475 220.090777 
L 459.368436 218.999333 
L 459.368443 217.544 
L 459.899775 217.180114 
L 461.493467 216.088667 
L 462.0248 215.724781 
L 463.618492 214.633333 
L 464.149825 214.269447 
L 465.743516 213.178 
L 466.27485 212.814113 
L 467.86854 211.722667 
L 468.399875 211.358779 
L 469.993565 210.267333 
L 470.5249 209.903446 
L 472.118589 208.812 
L 472.649925 208.448112 
L 474.243613 207.356667 
L 474.77495 206.992778 
L 476.368638 205.901333 
L 476.899975 205.537444 
L 478.493662 204.446 
L 479.025 204.082111 
" style="fill:none;stroke:#0000ff;stroke-width:1.5;"/>
   </g>
   <g id="LineCollection_17">
    <path clip-path="url(#pf769815233)" d="M 54.02 385.63493 
L 81.645325 385.63492 
L 83.77035 384.179594 
L 92.27045 384.179586 
L 94.395475 382.72426 
L 100.77055 382.724252 
L 102.895575 381.268925 
L 107.145625 381.268919 
L 109.27065 379.813592 
L 113.5207 379.813585 
L 115.645725 378.358258 
L 119.895775 378.35825 
L 122.0208 376.902923 
L 124.145825 376.902919 
L 126.27085 375.447591 
L 128.395875 375.447586 
L 130.5209 373.992258 
L 132.645925 373.992254 
L 134.77095 372.536925 
L 136.895975 372.536921 
L 139.021 371.081592 
L 141.146025 371.081587 
L 143.27105 369.626258 
L 145.396075 369.626253 
L 147.5211 368.170924 
L 149.646125 368.170919 
L 151.77115 366.715589 
L 153.896175 366.715584 
L 158.146225 363.804925 
L 160.27125 363.804919 
L 162.396275 362.349589 
L 164.5213 362.349583 
L 168.77135 359.438923 
L 170.896375 359.438917 
L 175.146425 356.528256 
L 177.27145 356.52825 
L 181.5215 353.617589 
L 183.646525 353.617582 
L 190.0216 349.251589 
L 192.146625 349.251583 
L 200.646725 343.430257 
L 202.77175 343.430251 
L 211.27185 337.608923 
L 213.396875 337.608916 
L 228.27205 327.421591 
L 230.397075 327.421584 
L 234.774593 324.423622 
L 234.774593 324.423622 
" style="fill:none;stroke:#0000ff;stroke-width:1.5;"/>
    <path clip-path="url(#pf769815233)" d="M 268.520056 301.312889 
L 307.960369 274.302 
L 307.960378 272.846667 
L 327.085594 259.748667 
L 327.085604 258.293333 
L 341.96077 248.106 
L 341.960779 246.650667 
L 354.710921 237.918667 
L 354.710929 236.463333 
L 365.336047 229.186667 
L 365.336055 227.731333 
L 378.086196 218.999333 
L 378.086204 217.544 
L 386.586297 211.722667 
L 386.586305 210.267333 
L 397.211421 202.990667 
L 397.211429 201.535333 
L 405.711522 195.714 
L 405.71153 194.258667 
L 414.211623 188.437333 
L 414.21163 186.982 
L 422.711723 181.160667 
L 422.71173 179.705333 
L 431.211822 173.884 
L 431.21183 172.428667 
L 437.586899 168.062667 
L 437.586906 166.607333 
L 446.086998 160.786 
L 446.087005 159.330667 
L 454.587097 153.509333 
L 454.587104 152.054 
L 460.962173 147.688 
L 460.96218 146.232667 
L 467.337249 141.866667 
L 467.337256 140.411333 
L 475.837348 134.59 
L 475.837355 133.134667 
L 479.025 130.95159 
L 479.025 130.95159 
" style="fill:none;stroke:#0000ff;stroke-width:1.5;"/>
   </g>
   <g id="LineCollection_18">
    <path clip-path="url(#pf769815233)" d="M 54.02 337.245049 
L 64.645125 337.245047 
L 66.77015 335.789723 
L 79.5203 335.789713 
L 81.645325 334.334388 
L 90.145425 334.334377 
L 92.27045 332.879052 
L 96.5205 332.879045 
L 98.645525 331.423719 
L 102.895575 331.42371 
L 105.0206 329.968384 
L 107.145625 329.968379 
L 109.27065 328.513052 
L 113.5207 328.513042 
L 115.645725 327.057715 
L 117.77075 327.05771 
L 119.895775 325.602382 
L 122.0208 325.602376 
L 124.145825 324.147048 
L 126.27085 324.147042 
L 130.5209 321.236384 
L 132.645925 321.236378 
L 134.77095 319.781049 
L 136.895975 319.781042 
L 141.146025 316.870383 
L 143.27105 316.870376 
L 147.5211 313.959717 
L 149.646125 313.959709 
L 156.0212 309.593718 
L 158.146225 309.59371 
L 164.5213 305.227717 
L 166.646325 305.227709 
L 177.27145 297.95105 
L 179.396475 297.951041 
L 226.678102 265.57 
L 226.678115 264.114667 
L 241.553279 253.927333 
L 241.553291 252.472 
L 254.303428 243.74 
L 254.30344 242.284667 
L 262.80353 236.463333 
L 262.803542 235.008 
L 271.303631 229.186667 
L 271.303642 227.731333 
L 279.80373 221.91 
L 279.803742 220.454667 
L 286.178807 216.088667 
L 286.178818 214.633333 
L 292.553883 210.267333 
L 292.553894 208.812 
L 298.928959 204.446 
L 298.92897 202.990667 
L 305.304034 198.624667 
L 305.304044 197.169333 
L 311.679108 192.803333 
L 311.679119 191.348 
L 318.054182 186.982 
L 318.054193 185.526667 
L 322.304235 182.616 
L 322.304245 181.160667 
L 328.679308 176.794667 
L 328.679318 175.339333 
L 332.92936 172.428667 
L 332.92937 170.973333 
L 339.304433 166.607333 
L 339.304443 165.152 
L 343.554485 162.241333 
L 343.554494 160.786 
L 347.804536 157.875333 
L 347.804546 156.42 
L 352.054587 153.509333 
L 352.054597 152.054 
L 358.429659 147.688 
L 358.429668 146.232667 
L 362.67971 143.322 
L 362.679719 141.866667 
L 366.929761 138.956 
L 366.92977 137.500667 
L 371.179811 134.59 
L 371.17982 133.134667 
L 372.702656 132.091743 
L 372.702656 132.091743 
" style="fill:none;stroke:#0000ff;stroke-width:1.5;"/>
    <path clip-path="url(#pf769815233)" d="M 399.407325 105.070923 
L 400.399075 104.391717 
L 400.930161 104.028 
L 400.93017 102.572667 
L 402.5241 101.481053 
L 403.05519 101.117333 
L 404.649125 100.025717 
L 405.180211 99.662 
L 405.180219 98.206667 
L 406.77415 97.115053 
L 407.30524 96.751333 
L 407.305248 95.296 
L 408.899175 94.204389 
L 409.430269 93.840667 
L 411.0242 92.749053 
L 411.555289 92.385333 
L 411.555298 90.93 
L 413.149225 89.838388 
L 413.680318 89.474667 
L 415.27425 88.383052 
L 415.805339 88.019333 
L 415.805347 86.564 
L 417.399275 85.472388 
L 417.930368 85.108667 
L 419.5243 84.017052 
L 420.055388 83.653333 
L 420.055396 82.198 
L 421.649325 81.106387 
L 422.180417 80.742667 
L 423.77435 79.651051 
L 424.305437 79.287333 
L 424.305445 77.832 
L 425.899375 76.740387 
L 426.430466 76.376667 
L 426.430474 74.921333 
L 428.0244 73.829723 
L 428.555494 73.466 
L 430.149425 72.374386 
L 430.680515 72.010667 
L 430.680523 70.555333 
L 432.27445 69.463722 
L 432.805543 69.1 
L 434.399475 68.008386 
L 434.930564 67.644667 
L 434.930572 66.189333 
L 436.5245 65.097721 
L 437.055592 64.734 
L 438.649525 63.642385 
L 439.180613 63.278667 
L 439.180621 61.823333 
L 440.77455 60.73172 
L 441.305641 60.368 
L 441.305649 58.912667 
L 442.899575 57.821056 
L 443.43067 57.457333 
L 445.0246 56.36572 
L 445.55569 56.002 
L 445.555698 54.546667 
L 447.149625 53.455055 
L 447.680718 53.091333 
L 449.27465 51.999719 
L 449.805739 51.636 
L 449.805746 50.180667 
L 451.399675 49.089054 
L 451.930767 48.725333 
L 453.5247 47.633718 
L 454.055788 47.27 
L 454.055795 45.814667 
L 455.649725 44.723053 
L 456.180816 44.359333 
L 456.180823 42.904 
L 457.77475 41.812389 
L 458.305844 41.448667 
L 459.899775 40.357053 
L 460.430864 39.993333 
L 460.430872 38.538 
L 462.0248 37.446388 
L 462.555892 37.082667 
L 464.149825 35.991052 
L 464.680913 35.627333 
L 464.68092 34.172 
L 466.27485 33.080387 
L 466.805941 32.716667 
L 466.805948 31.261333 
L 468.399875 30.169722 
L 468.930969 29.806 
L 470.5249 28.714386 
L 471.055989 28.350667 
L 471.055997 26.895333 
L 472.649925 25.803721 
L 473.181017 25.44 
" style="fill:none;stroke:#0000ff;stroke-width:1.5;"/>
   </g>
   <g id="LineCollection_19">
    <path clip-path="url(#pf769815233)" d="M 54.02 181.160659 
L 64.645125 181.160659 
L 66.77015 179.705326 
L 75.27025 179.705326 
L 77.395275 178.249993 
L 81.645325 178.249993 
L 83.77035 176.79466 
L 88.0204 176.794659 
L 90.145425 175.339326 
L 92.27045 175.339326 
L 94.395475 173.883993 
L 96.5205 173.883993 
L 100.77055 170.973326 
L 102.895575 170.973326 
L 105.0206 169.517993 
L 107.145625 169.517993 
L 113.5207 165.151993 
L 115.645725 165.151993 
L 128.395875 156.419993 
L 130.5209 156.419993 
L 141.146015 149.143333 
L 141.146025 147.687993 
L 156.02119 137.500667 
L 156.0212 136.045327 
L 164.52129 130.224 
L 164.5213 128.76866 
L 170.896365 124.402667 
L 170.896375 122.947327 
L 175.146415 120.036667 
L 175.146425 118.581327 
L 181.52149 114.215333 
L 181.5215 112.759993 
L 185.77154 109.849333 
L 185.77155 108.393993 
L 190.02159 105.483333 
L 190.0216 104.027993 
L 194.27164 101.117333 
L 194.27165 99.661993 
L 196.396665 98.206667 
L 196.396675 96.751327 
L 199.093004 94.904733 
L 199.093004 94.904733 
" style="fill:none;stroke:#0000ff;stroke-width:1.5;"/>
    <path clip-path="url(#pf769815233)" d="M 223.450697 66.580586 
L 224.02199 66.189333 
L 224.021991 64.734 
L 224.022 64.733994 
L 226.147015 63.278667 
L 226.147025 63.27866 
L 228.27204 61.823333 
L 228.272041 60.368 
L 228.27205 60.367994 
L 230.397065 58.912667 
L 230.397066 57.457333 
L 230.397075 57.457327 
L 232.52209 56.002 
L 232.522091 54.546667 
L 232.5221 54.54666 
L 234.647115 53.091333 
L 234.647116 51.636 
L 234.647125 51.635994 
L 236.77214 50.180667 
L 236.77215 50.18066 
L 238.897165 48.725333 
L 238.897166 47.27 
L 238.897175 47.269994 
L 241.02219 45.814667 
L 241.022191 44.359333 
L 241.0222 44.359327 
L 243.147215 42.904 
L 243.147216 41.448667 
L 243.147225 41.44866 
L 245.27224 39.993333 
L 245.272241 38.538 
L 245.27225 38.537994 
L 247.397265 37.082667 
L 247.397266 35.627333 
L 247.397275 35.627327 
L 249.52229 34.172 
L 249.522291 32.716667 
L 249.5223 32.71666 
L 251.647315 31.261333 
L 251.647316 29.806 
L 251.647325 29.805994 
L 253.77234 28.350667 
L 253.772341 26.895333 
L 253.77235 26.895327 
L 255.897365 25.44 
" style="fill:none;stroke:#0000ff;stroke-width:1.5;"/>
   </g>
   <g id="patch_3">
    <path d="M 54.02 462.04 
L 54.02 25.44 
" style="fill:none;stroke:#000000;stroke-linecap:square;stroke-linejoin:miter;stroke-width:0.8;"/>
   </g>
   <g id="patch_4">
    <path d="M 479.025 462.04 
L 479.025 25.44 
" style="fill:none;stroke:#000000;stroke-linecap:square;stroke-linejoin:miter;stroke-width:0.8;"/>
   </g>
   <g id="patch_5">
    <path d="M 54.02 462.04 
L 479.025 462.04 
" style="fill:none;stroke:#000000;stroke-linecap:square;stroke-linejoin:miter;stroke-width:0.8;"/>
   </g>
   <g id="patch_6">
    <path d="M 54.02 25.44 
L 479.025 25.44 
" style="fill:none;stroke:#000000;stroke-linecap:square;stroke-linejoin:miter;stroke-width:0.8;"/>
   </g>
   <g id="text_19">
    <g clip-path="url(#pf769815233)">
     <!-- 0.000 -->
     <g style="fill:#0000ff;" transform="translate(425.65537 457.004789)rotate(-16.041811)scale(0.1 -0.1)">
      <use xlink:href="#DejaVuSans-48"/>
      <use x="63.623047" xlink:href="#DejaVuSans-46"/>
      <use x="95.410156" xlink:href="#DejaVuSans-48"/>
      <use x="159.033203" xlink:href="#DejaVuSans-48"/>
      <use x="222.65625" xlink:href="#DejaVuSans-48"/>
     </g>
    </g>
   </g>
   <g id="text_20">
    <g clip-path="url(#pf769815233)">
     <!-- 0.050 -->
     <g style="fill:#0000ff;" transform="translate(466.052322 441.220008)rotate(-16.227457)scale(0.1 -0.1)">
      <use xlink:href="#DejaVuSans-48"/>
      <use x="63.623047" xlink:href="#DejaVuSans-46"/>
      <use x="95.410156" xlink:href="#DejaVuSans-48"/>
      <use x="159.033203" xlink:href="#DejaVuSans-53"/>
      <use x="222.65625" xlink:href="#DejaVuSans-48"/>
     </g>
    </g>
   </g>
   <g id="text_21">
    <g clip-path="url(#pf769815233)">
     <!-- 0.100 -->
     <g style="fill:#0000ff;" transform="translate(393.758537 459.873709)rotate(-15.857884)scale(0.1 -0.1)">
      <use xlink:href="#DejaVuSans-48"/>
      <use x="63.623047" xlink:href="#DejaVuSans-46"/>
      <use x="95.410156" xlink:href="#DejaVuSans-49"/>
      <use x="159.033203" xlink:href="#DejaVuSans-48"/>
      <use x="222.65625" xlink:href="#DejaVuSans-48"/>
     </g>
    </g>
   </g>
   <g id="text_22">
    <g clip-path="url(#pf769815233)">
     <!-- 0.150 -->
     <g style="fill:#0000ff;" transform="translate(383.133681 459.509579)rotate(-15.857492)scale(0.1 -0.1)">
      <use xlink:href="#DejaVuSans-48"/>
      <use x="63.623047" xlink:href="#DejaVuSans-46"/>
      <use x="95.410156" xlink:href="#DejaVuSans-49"/>
      <use x="159.033203" xlink:href="#DejaVuSans-53"/>
      <use x="222.65625" xlink:href="#DejaVuSans-48"/>
     </g>
    </g>
   </g>
   <g id="text_23">
    <g clip-path="url(#pf769815233)">
     <!-- 0.200 -->
     <g style="fill:#0000ff;" transform="translate(430.174371 440.772463)rotate(-18.287984)scale(0.1 -0.1)">
      <use xlink:href="#DejaVuSans-48"/>
      <use x="63.623047" xlink:href="#DejaVuSans-46"/>
      <use x="95.410156" xlink:href="#DejaVuSans-50"/>
      <use x="159.033203" xlink:href="#DejaVuSans-48"/>
      <use x="222.65625" xlink:href="#DejaVuSans-48"/>
     </g>
    </g>
   </g>
   <g id="text_24">
    <g clip-path="url(#pf769815233)">
     <!-- 0.250 -->
     <g style="fill:#0000ff;" transform="translate(340.868458 465.050235)rotate(-17.842876)scale(0.1 -0.1)">
      <use xlink:href="#DejaVuSans-48"/>
      <use x="63.623047" xlink:href="#DejaVuSans-46"/>
      <use x="95.410156" xlink:href="#DejaVuSans-50"/>
      <use x="159.033203" xlink:href="#DejaVuSans-53"/>
      <use x="222.65625" xlink:href="#DejaVuSans-48"/>
     </g>
    </g>
   </g>
   <g id="text_25">
    <g clip-path="url(#pf769815233)">
     <!-- 0.300 -->
     <g style="fill:#0000ff;" transform="translate(455.699925 419.715718)rotate(-18.492567)scale(0.1 -0.1)">
      <use xlink:href="#DejaVuSans-48"/>
      <use x="63.623047" xlink:href="#DejaVuSans-46"/>
      <use x="95.410156" xlink:href="#DejaVuSans-51"/>
      <use x="159.033203" xlink:href="#DejaVuSans-48"/>
      <use x="222.65625" xlink:href="#DejaVuSans-48"/>
     </g>
    </g>
   </g>
   <g id="text_26">
    <g clip-path="url(#pf769815233)">
     <!-- 0.350 -->
     <g style="fill:#0000ff;" transform="translate(380.828486 440.153345)rotate(-18.777013)scale(0.1 -0.1)">
      <use xlink:href="#DejaVuSans-48"/>
      <use x="63.623047" xlink:href="#DejaVuSans-46"/>
      <use x="95.410156" xlink:href="#DejaVuSans-51"/>
      <use x="159.033203" xlink:href="#DejaVuSans-53"/>
      <use x="222.65625" xlink:href="#DejaVuSans-48"/>
     </g>
    </g>
   </g>
   <g id="text_27">
    <g clip-path="url(#pf769815233)">
     <!-- 0.400 -->
     <g style="fill:#0000ff;" transform="translate(280.158915 467.324166)rotate(-16.62556)scale(0.1 -0.1)">
      <use xlink:href="#DejaVuSans-48"/>
      <use x="63.623047" xlink:href="#DejaVuSans-46"/>
      <use x="95.410156" xlink:href="#DejaVuSans-52"/>
      <use x="159.033203" xlink:href="#DejaVuSans-48"/>
      <use x="222.65625" xlink:href="#DejaVuSans-48"/>
     </g>
    </g>
   </g>
   <g id="text_28">
    <g clip-path="url(#pf769815233)">
     <!-- 0.450 -->
     <g style="fill:#0000ff;" transform="translate(283.278704 458.823827)rotate(-16.041892)scale(0.1 -0.1)">
      <use xlink:href="#DejaVuSans-48"/>
      <use x="63.623047" xlink:href="#DejaVuSans-46"/>
      <use x="95.410156" xlink:href="#DejaVuSans-52"/>
      <use x="159.033203" xlink:href="#DejaVuSans-53"/>
      <use x="222.65625" xlink:href="#DejaVuSans-48"/>
     </g>
    </g>
   </g>
   <g id="text_29">
    <g clip-path="url(#pf769815233)">
     <!-- 0.500 -->
     <g style="fill:#0000ff;" transform="translate(413.532216 396.990746)rotate(-21.054219)scale(0.1 -0.1)">
      <use xlink:href="#DejaVuSans-48"/>
      <use x="63.623047" xlink:href="#DejaVuSans-46"/>
      <use x="95.410156" xlink:href="#DejaVuSans-53"/>
      <use x="159.033203" xlink:href="#DejaVuSans-48"/>
      <use x="222.65625" xlink:href="#DejaVuSans-48"/>
     </g>
    </g>
   </g>
   <g id="text_30">
    <g clip-path="url(#pf769815233)">
     <!-- 0.550 -->
     <g style="fill:#0000ff;" transform="translate(330.359965 419.185418)rotate(-22.759355)scale(0.1 -0.1)">
      <use xlink:href="#DejaVuSans-48"/>
      <use x="63.623047" xlink:href="#DejaVuSans-46"/>
      <use x="95.410156" xlink:href="#DejaVuSans-53"/>
      <use x="159.033203" xlink:href="#DejaVuSans-53"/>
      <use x="222.65625" xlink:href="#DejaVuSans-48"/>
     </g>
    </g>
   </g>
   <g id="text_31">
    <g clip-path="url(#pf769815233)">
     <!-- 0.600 -->
     <defs>
      <path d="M 33.015625 40.375 
Q 26.375 40.375 22.484375 35.828125 
Q 18.609375 31.296875 18.609375 23.390625 
Q 18.609375 15.53125 22.484375 10.953125 
Q 26.375 6.390625 33.015625 6.390625 
Q 39.65625 6.390625 43.53125 10.953125 
Q 47.40625 15.53125 47.40625 23.390625 
Q 47.40625 31.296875 43.53125 35.828125 
Q 39.65625 40.375 33.015625 40.375 
z
M 52.59375 71.296875 
L 52.59375 62.3125 
Q 48.875 64.0625 45.09375 64.984375 
Q 41.3125 65.921875 37.59375 65.921875 
Q 27.828125 65.921875 22.671875 59.328125 
Q 17.53125 52.734375 16.796875 39.40625 
Q 19.671875 43.65625 24.015625 45.921875 
Q 28.375 48.1875 33.59375 48.1875 
Q 44.578125 48.1875 50.953125 41.515625 
Q 57.328125 34.859375 57.328125 23.390625 
Q 57.328125 12.15625 50.6875 5.359375 
Q 44.046875 -1.421875 33.015625 -1.421875 
Q 20.359375 -1.421875 13.671875 8.265625 
Q 6.984375 17.96875 6.984375 36.375 
Q 6.984375 53.65625 15.1875 63.9375 
Q 23.390625 74.21875 37.203125 74.21875 
Q 40.921875 74.21875 44.703125 73.484375 
Q 48.484375 72.75 52.59375 71.296875 
z
" id="DejaVuSans-54"/>
     </defs>
     <g style="fill:#0000ff;" transform="translate(236.829932 442.286325)rotate(-18.551452)scale(0.1 -0.1)">
      <use xlink:href="#DejaVuSans-48"/>
      <use x="63.623047" xlink:href="#DejaVuSans-46"/>
      <use x="95.410156" xlink:href="#DejaVuSans-54"/>
      <use x="159.033203" xlink:href="#DejaVuSans-48"/>
      <use x="222.65625" xlink:href="#DejaVuSans-48"/>
     </g>
    </g>
   </g>
   <g id="text_32">
    <g clip-path="url(#pf769815233)">
     <!-- 0.650 -->
     <g style="fill:#0000ff;" transform="translate(286.586798 406.913349)rotate(-24.971219)scale(0.1 -0.1)">
      <use xlink:href="#DejaVuSans-48"/>
      <use x="63.623047" xlink:href="#DejaVuSans-46"/>
      <use x="95.410156" xlink:href="#DejaVuSans-54"/>
      <use x="159.033203" xlink:href="#DejaVuSans-53"/>
      <use x="222.65625" xlink:href="#DejaVuSans-48"/>
     </g>
    </g>
   </g>
   <g id="text_33">
    <g clip-path="url(#pf769815233)">
     <!-- 0.700 -->
     <g style="fill:#0000ff;" transform="translate(444.876016 279.756133)rotate(-31.437758)scale(0.1 -0.1)">
      <use xlink:href="#DejaVuSans-48"/>
      <use x="63.623047" xlink:href="#DejaVuSans-46"/>
      <use x="95.410156" xlink:href="#DejaVuSans-55"/>
      <use x="159.033203" xlink:href="#DejaVuSans-48"/>
      <use x="222.65625" xlink:href="#DejaVuSans-48"/>
     </g>
    </g>
   </g>
   <g id="text_34">
    <g clip-path="url(#pf769815233)">
     <!-- 0.750 -->
     <g style="fill:#0000ff;" transform="translate(342.707299 304.881605)rotate(-33.519119)scale(0.1 -0.1)">
      <use xlink:href="#DejaVuSans-48"/>
      <use x="63.623047" xlink:href="#DejaVuSans-46"/>
      <use x="95.410156" xlink:href="#DejaVuSans-55"/>
      <use x="159.033203" xlink:href="#DejaVuSans-53"/>
      <use x="222.65625" xlink:href="#DejaVuSans-48"/>
     </g>
    </g>
   </g>
   <g id="text_35">
    <g clip-path="url(#pf769815233)">
     <!-- 0.800 -->
     <defs>
      <path d="M 31.78125 34.625 
Q 24.75 34.625 20.71875 30.859375 
Q 16.703125 27.09375 16.703125 20.515625 
Q 16.703125 13.921875 20.71875 10.15625 
Q 24.75 6.390625 31.78125 6.390625 
Q 38.8125 6.390625 42.859375 10.171875 
Q 46.921875 13.96875 46.921875 20.515625 
Q 46.921875 27.09375 42.890625 30.859375 
Q 38.875 34.625 31.78125 34.625 
z
M 21.921875 38.8125 
Q 15.578125 40.375 12.03125 44.71875 
Q 8.5 49.078125 8.5 55.328125 
Q 8.5 64.0625 14.71875 69.140625 
Q 20.953125 74.21875 31.78125 74.21875 
Q 42.671875 74.21875 48.875 69.140625 
Q 55.078125 64.0625 55.078125 55.328125 
Q 55.078125 49.078125 51.53125 44.71875 
Q 48 40.375 41.703125 38.8125 
Q 48.828125 37.15625 52.796875 32.3125 
Q 56.78125 27.484375 56.78125 20.515625 
Q 56.78125 9.90625 50.3125 4.234375 
Q 43.84375 -1.421875 31.78125 -1.421875 
Q 19.734375 -1.421875 13.25 4.234375 
Q 6.78125 9.90625 6.78125 20.515625 
Q 6.78125 27.484375 10.78125 32.3125 
Q 14.796875 37.15625 21.921875 38.8125 
z
M 18.3125 54.390625 
Q 18.3125 48.734375 21.84375 45.5625 
Q 25.390625 42.390625 31.78125 42.390625 
Q 38.140625 42.390625 41.71875 45.5625 
Q 45.3125 48.734375 45.3125 54.390625 
Q 45.3125 60.0625 41.71875 63.234375 
Q 38.140625 66.40625 31.78125 66.40625 
Q 25.390625 66.40625 21.84375 63.234375 
Q 18.3125 60.0625 18.3125 54.390625 
z
" id="DejaVuSans-56"/>
     </defs>
     <g style="fill:#0000ff;" transform="translate(241.237436 323.073194)rotate(-33.519115)scale(0.1 -0.1)">
      <use xlink:href="#DejaVuSans-48"/>
      <use x="63.623047" xlink:href="#DejaVuSans-46"/>
      <use x="95.410156" xlink:href="#DejaVuSans-56"/>
      <use x="159.033203" xlink:href="#DejaVuSans-48"/>
      <use x="222.65625" xlink:href="#DejaVuSans-48"/>
     </g>
    </g>
   </g>
   <g id="text_36">
    <g clip-path="url(#pf769815233)">
     <!-- 0.850 -->
     <g style="fill:#0000ff;" transform="translate(377.878529 130.64997)rotate(-44.971212)scale(0.1 -0.1)">
      <use xlink:href="#DejaVuSans-48"/>
      <use x="63.623047" xlink:href="#DejaVuSans-46"/>
      <use x="95.410156" xlink:href="#DejaVuSans-56"/>
      <use x="159.033203" xlink:href="#DejaVuSans-53"/>
      <use x="222.65625" xlink:href="#DejaVuSans-48"/>
     </g>
    </g>
   </g>
   <g id="text_37">
    <g clip-path="url(#pf769815233)">
     <!-- 0.900 -->
     <defs>
      <path d="M 10.984375 1.515625 
L 10.984375 10.5 
Q 14.703125 8.734375 18.5 7.8125 
Q 22.3125 6.890625 25.984375 6.890625 
Q 35.75 6.890625 40.890625 13.453125 
Q 46.046875 20.015625 46.78125 33.40625 
Q 43.953125 29.203125 39.59375 26.953125 
Q 35.25 24.703125 29.984375 24.703125 
Q 19.046875 24.703125 12.671875 31.3125 
Q 6.296875 37.9375 6.296875 49.421875 
Q 6.296875 60.640625 12.9375 67.421875 
Q 19.578125 74.21875 30.609375 74.21875 
Q 43.265625 74.21875 49.921875 64.515625 
Q 56.59375 54.828125 56.59375 36.375 
Q 56.59375 19.140625 48.40625 8.859375 
Q 40.234375 -1.421875 26.421875 -1.421875 
Q 22.703125 -1.421875 18.890625 -0.6875 
Q 15.09375 0.046875 10.984375 1.515625 
z
M 30.609375 32.421875 
Q 37.25 32.421875 41.125 36.953125 
Q 45.015625 41.5 45.015625 49.421875 
Q 45.015625 57.28125 41.125 61.84375 
Q 37.25 66.40625 30.609375 66.40625 
Q 23.96875 66.40625 20.09375 61.84375 
Q 16.21875 57.28125 16.21875 49.421875 
Q 16.21875 41.5 20.09375 36.953125 
Q 23.96875 32.421875 30.609375 32.421875 
z
" id="DejaVuSans-57"/>
     </defs>
     <g style="fill:#0000ff;" transform="translate(203.577205 93.124057)rotate(-47.229087)scale(0.1 -0.1)">
      <use xlink:href="#DejaVuSans-48"/>
      <use x="63.623047" xlink:href="#DejaVuSans-46"/>
      <use x="95.410156" xlink:href="#DejaVuSans-57"/>
      <use x="159.033203" xlink:href="#DejaVuSans-48"/>
      <use x="222.65625" xlink:href="#DejaVuSans-48"/>
     </g>
    </g>
   </g>
   <g id="text_38">
    <!-- Efficiency, blanking at 2, 86 GHz -->
    <defs>
     <path d="M 9.8125 72.90625 
L 55.90625 72.90625 
L 55.90625 64.59375 
L 19.671875 64.59375 
L 19.671875 43.015625 
L 54.390625 43.015625 
L 54.390625 34.71875 
L 19.671875 34.71875 
L 19.671875 8.296875 
L 56.78125 8.296875 
L 56.78125 0 
L 9.8125 0 
z
" id="DejaVuSans-69"/>
     <path d="M 32.171875 -5.078125 
Q 28.375 -14.84375 24.75 -17.8125 
Q 21.140625 -20.796875 15.09375 -20.796875 
L 7.90625 -20.796875 
L 7.90625 -13.28125 
L 13.1875 -13.28125 
Q 16.890625 -13.28125 18.9375 -11.515625 
Q 21 -9.765625 23.484375 -3.21875 
L 25.09375 0.875 
L 2.984375 54.6875 
L 12.5 54.6875 
L 29.59375 11.921875 
L 46.6875 54.6875 
L 56.203125 54.6875 
z
" id="DejaVuSans-121"/>
     <path d="M 11.71875 12.40625 
L 22.015625 12.40625 
L 22.015625 4 
L 14.015625 -11.625 
L 7.71875 -11.625 
L 11.71875 4 
z
" id="DejaVuSans-44"/>
     <path d="M 48.6875 27.296875 
Q 48.6875 37.203125 44.609375 42.84375 
Q 40.53125 48.484375 33.40625 48.484375 
Q 26.265625 48.484375 22.1875 42.84375 
Q 18.109375 37.203125 18.109375 27.296875 
Q 18.109375 17.390625 22.1875 11.75 
Q 26.265625 6.109375 33.40625 6.109375 
Q 40.53125 6.109375 44.609375 11.75 
Q 48.6875 17.390625 48.6875 27.296875 
z
M 18.109375 46.390625 
Q 20.953125 51.265625 25.265625 53.625 
Q 29.59375 56 35.59375 56 
Q 45.5625 56 51.78125 48.09375 
Q 58.015625 40.1875 58.015625 27.296875 
Q 58.015625 14.40625 51.78125 6.484375 
Q 45.5625 -1.421875 35.59375 -1.421875 
Q 29.59375 -1.421875 25.265625 0.953125 
Q 20.953125 3.328125 18.109375 8.203125 
L 18.109375 0 
L 9.078125 0 
L 9.078125 75.984375 
L 18.109375 75.984375 
z
" id="DejaVuSans-98"/>
     <path d="M 9.421875 75.984375 
L 18.40625 75.984375 
L 18.40625 0 
L 9.421875 0 
z
" id="DejaVuSans-108"/>
     <path d="M 9.078125 75.984375 
L 18.109375 75.984375 
L 18.109375 31.109375 
L 44.921875 54.6875 
L 56.390625 54.6875 
L 27.390625 29.109375 
L 57.625 0 
L 45.90625 0 
L 18.109375 26.703125 
L 18.109375 0 
L 9.078125 0 
z
" id="DejaVuSans-107"/>
     <path d="M 45.40625 27.984375 
Q 45.40625 37.75 41.375 43.109375 
Q 37.359375 48.484375 30.078125 48.484375 
Q 22.859375 48.484375 18.828125 43.109375 
Q 14.796875 37.75 14.796875 27.984375 
Q 14.796875 18.265625 18.828125 12.890625 
Q 22.859375 7.515625 30.078125 7.515625 
Q 37.359375 7.515625 41.375 12.890625 
Q 45.40625 18.265625 45.40625 27.984375 
z
M 54.390625 6.78125 
Q 54.390625 -7.171875 48.1875 -13.984375 
Q 42 -20.796875 29.203125 -20.796875 
Q 24.46875 -20.796875 20.265625 -20.09375 
Q 16.0625 -19.390625 12.109375 -17.921875 
L 12.109375 -9.1875 
Q 16.0625 -11.328125 19.921875 -12.34375 
Q 23.78125 -13.375 27.78125 -13.375 
Q 36.625 -13.375 41.015625 -8.765625 
Q 45.40625 -4.15625 45.40625 5.171875 
L 45.40625 9.625 
Q 42.625 4.78125 38.28125 2.390625 
Q 33.9375 0 27.875 0 
Q 17.828125 0 11.671875 7.65625 
Q 5.515625 15.328125 5.515625 27.984375 
Q 5.515625 40.671875 11.671875 48.328125 
Q 17.828125 56 27.875 56 
Q 33.9375 56 38.28125 53.609375 
Q 42.625 51.21875 45.40625 46.390625 
L 45.40625 54.6875 
L 54.390625 54.6875 
z
" id="DejaVuSans-103"/>
     <path d="M 26.859375 -1.421875 
Q 6.59375 -1.421875 6.59375 27.59375 
Q 6.59375 39.0625 14.15625 54.6875 
L 23.828125 54.6875 
Q 16.84375 39.0625 16.84375 27.34375 
Q 16.84375 6.203125 27.6875 6.203125 
Q 37.59375 6.203125 37.59375 32.46875 
L 45.90625 32.46875 
Q 45.90625 6.203125 55.8125 6.203125 
Q 66.65625 6.203125 66.65625 27.34375 
Q 66.65625 39.0625 59.671875 54.6875 
L 69.34375 54.6875 
Q 76.90625 39.0625 76.90625 27.59375 
Q 76.90625 -1.421875 56.640625 -1.421875 
Q 43.359375 -1.421875 41.75 13.1875 
Q 39.75 -1.421875 26.859375 -1.421875 
z
" id="DejaVuSans-969"/>
     <path d="M 27.828125 33.046875 
Q 25.390625 37.25 20.453125 37.25 
Q 15.53125 37.25 13.09375 33.046875 
Q 10.59375 28.84375 10.59375 20.453125 
Q 10.59375 12 13.09375 7.8125 
Q 15.53125 3.609375 20.453125 3.609375 
Q 25.390625 3.609375 27.828125 7.8125 
Q 30.328125 12 30.328125 20.453125 
Q 30.328125 28.84375 27.828125 33.046875 
z
M 20.453125 41.59375 
Q 28.328125 41.59375 32.46875 36.171875 
Q 36.625 30.75 36.625 20.453125 
Q 36.625 10.09375 32.46875 4.671875 
Q 28.328125 -0.734375 20.453125 -0.734375 
Q 12.546875 -0.734375 8.390625 4.671875 
Q 4.25 10.09375 4.25 20.453125 
Q 4.25 30.75 8.390625 36.171875 
Q 12.546875 41.59375 20.453125 41.59375 
z
" id="DejaVuSans-8320"/>
     <path d="M 59.515625 10.40625 
L 59.515625 29.984375 
L 43.40625 29.984375 
L 43.40625 38.09375 
L 69.28125 38.09375 
L 69.28125 6.78125 
Q 63.578125 2.734375 56.6875 0.65625 
Q 49.8125 -1.421875 42 -1.421875 
Q 24.90625 -1.421875 15.25 8.5625 
Q 5.609375 18.5625 5.609375 36.375 
Q 5.609375 54.25 15.25 64.234375 
Q 24.90625 74.21875 42 74.21875 
Q 49.125 74.21875 55.546875 72.453125 
Q 61.96875 70.703125 67.390625 67.28125 
L 67.390625 56.78125 
Q 61.921875 61.421875 55.765625 63.765625 
Q 49.609375 66.109375 42.828125 66.109375 
Q 29.4375 66.109375 22.71875 58.640625 
Q 16.015625 51.171875 16.015625 36.375 
Q 16.015625 21.625 22.71875 14.15625 
Q 29.4375 6.6875 42.828125 6.6875 
Q 48.046875 6.6875 52.140625 7.59375 
Q 56.25 8.5 59.515625 10.40625 
z
" id="DejaVuSans-71"/>
     <path d="M 9.8125 72.90625 
L 19.671875 72.90625 
L 19.671875 43.015625 
L 55.515625 43.015625 
L 55.515625 72.90625 
L 65.375 72.90625 
L 65.375 0 
L 55.515625 0 
L 55.515625 34.71875 
L 19.671875 34.71875 
L 19.671875 0 
L 9.8125 0 
z
" id="DejaVuSans-72"/>
     <path d="M 5.515625 54.6875 
L 48.1875 54.6875 
L 48.1875 46.484375 
L 14.40625 7.171875 
L 48.1875 7.171875 
L 48.1875 0 
L 4.296875 0 
L 4.296875 8.203125 
L 38.09375 47.515625 
L 5.515625 47.515625 
z
" id="DejaVuSans-122"/>
    </defs>
    <g transform="translate(161.251562 19.44)scale(0.12 -0.12)">
     <use xlink:href="#DejaVuSans-69"/>
     <use x="63.183594" xlink:href="#DejaVuSans-102"/>
     <use x="98.388672" xlink:href="#DejaVuSans-102"/>
     <use x="133.59375" xlink:href="#DejaVuSans-105"/>
     <use x="161.376953" xlink:href="#DejaVuSans-99"/>
     <use x="216.357422" xlink:href="#DejaVuSans-105"/>
     <use x="244.140625" xlink:href="#DejaVuSans-101"/>
     <use x="305.664062" xlink:href="#DejaVuSans-110"/>
     <use x="369.042969" xlink:href="#DejaVuSans-99"/>
     <use x="424.023438" xlink:href="#DejaVuSans-121"/>
     <use x="483.203125" xlink:href="#DejaVuSans-44"/>
     <use x="514.990234" xlink:href="#DejaVuSans-32"/>
     <use x="546.777344" xlink:href="#DejaVuSans-98"/>
     <use x="610.253906" xlink:href="#DejaVuSans-108"/>
     <use x="638.037109" xlink:href="#DejaVuSans-97"/>
     <use x="699.316406" xlink:href="#DejaVuSans-110"/>
     <use x="762.695312" xlink:href="#DejaVuSans-107"/>
     <use x="820.605469" xlink:href="#DejaVuSans-105"/>
     <use x="848.388672" xlink:href="#DejaVuSans-110"/>
     <use x="911.767578" xlink:href="#DejaVuSans-103"/>
     <use x="975.244141" xlink:href="#DejaVuSans-32"/>
     <use x="1007.03125" xlink:href="#DejaVuSans-97"/>
     <use x="1068.310547" xlink:href="#DejaVuSans-116"/>
     <use x="1107.519531" xlink:href="#DejaVuSans-32"/>
     <use x="1139.306641" xlink:href="#DejaVuSans-50"/>
     <use x="1202.929688" xlink:href="#DejaVuSans-969"/>
     <use x="1286.669922" xlink:href="#DejaVuSans-8320"/>
     <use x="1326.757812" xlink:href="#DejaVuSans-44"/>
     <use x="1358.544922" xlink:href="#DejaVuSans-32"/>
     <use x="1390.332031" xlink:href="#DejaVuSans-56"/>
     <use x="1453.955078" xlink:href="#DejaVuSans-54"/>
     <use x="1517.578125" xlink:href="#DejaVuSans-32"/>
     <use x="1549.365234" xlink:href="#DejaVuSans-71"/>
     <use x="1626.855469" xlink:href="#DejaVuSans-72"/>
     <use x="1702.050781" xlink:href="#DejaVuSans-122"/>
    </g>
   </g>
  </g>
 </g>
 <defs>
  <clipPath id="pf769815233">
   <rect height="436.6" width="425.005" x="54.02" y="25.44"/>
  </clipPath>
 </defs>
</svg>
