<?xml version="1.0" encoding="utf-8" standalone="no"?>
<!DOCTYPE svg PUBLIC "-//W3C//DTD SVG 1.1//EN"
  "http://www.w3.org/Graphics/SVG/1.1/DTD/svg11.dtd">
<!-- Created with matplotlib (https://matplotlib.org/) -->
<svg height="504pt" version="1.1" viewBox="0 0 504 504" width="504pt" xmlns="http://www.w3.org/2000/svg" xmlns:xlink="http://www.w3.org/1999/xlink">
 <defs>
  <style type="text/css">
*{stroke-linecap:butt;stroke-linejoin:round;}
  </style>
 </defs>
 <g id="figure_1">
  <g id="patch_1">
   <path d="M 0 504 
L 504 504 
L 504 0 
L 0 0 
z
" style="fill:#ffffff;"/>
  </g>
  <g id="axes_1">
   <g id="patch_2">
    <path d="M 54.02 462.04 
L 479.025 462.04 
L 479.025 25.44 
L 54.02 25.44 
z
" style="fill:#ffffff;"/>
   </g>
   <g id="matplotlib.axis_1">
    <g id="xtick_1">
     <g id="line2d_1">
      <defs>
       <path d="M 0 0 
L 0 3.5 
" id="m046b7d2e13" style="stroke:#000000;stroke-width:0.8;"/>
      </defs>
      <g>
       <use style="stroke:#000000;stroke-width:0.8;" x="54.02" xlink:href="#m046b7d2e13" y="462.04"/>
      </g>
     </g>
     <g id="text_1">
      <!-- 0.000 -->
      <defs>
       <path d="M 31.78125 66.40625 
Q 24.171875 66.40625 20.328125 58.90625 
Q 16.5 51.421875 16.5 36.375 
Q 16.5 21.390625 20.328125 13.890625 
Q 24.171875 6.390625 31.78125 6.390625 
Q 39.453125 6.390625 43.28125 13.890625 
Q 47.125 21.390625 47.125 36.375 
Q 47.125 51.421875 43.28125 58.90625 
Q 39.453125 66.40625 31.78125 66.40625 
z
M 31.78125 74.21875 
Q 44.046875 74.21875 50.515625 64.515625 
Q 56.984375 54.828125 56.984375 36.375 
Q 56.984375 17.96875 50.515625 8.265625 
Q 44.046875 -1.421875 31.78125 -1.421875 
Q 19.53125 -1.421875 13.0625 8.265625 
Q 6.59375 17.96875 6.59375 36.375 
Q 6.59375 54.828125 13.0625 64.515625 
Q 19.53125 74.21875 31.78125 74.21875 
z
" id="DejaVuSans-48"/>
       <path d="M 10.6875 12.40625 
L 21 12.40625 
L 21 0 
L 10.6875 0 
z
" id="DejaVuSans-46"/>
      </defs>
      <g transform="translate(39.705938 476.638438)scale(0.1 -0.1)">
       <use xlink:href="#DejaVuSans-48"/>
       <use x="63.623047" xlink:href="#DejaVuSans-46"/>
       <use x="95.410156" xlink:href="#DejaVuSans-48"/>
       <use x="159.033203" xlink:href="#DejaVuSans-48"/>
       <use x="222.65625" xlink:href="#DejaVuSans-48"/>
      </g>
     </g>
    </g>
    <g id="xtick_2">
     <g id="line2d_2">
      <g>
       <use style="stroke:#000000;stroke-width:0.8;" x="107.145625" xlink:href="#m046b7d2e13" y="462.04"/>
      </g>
     </g>
     <g id="text_2">
      <!-- 0.025 -->
      <defs>
       <path d="M 19.1875 8.296875 
L 53.609375 8.296875 
L 53.609375 0 
L 7.328125 0 
L 7.328125 8.296875 
Q 12.9375 14.109375 22.625 23.890625 
Q 32.328125 33.6875 34.8125 36.53125 
Q 39.546875 41.84375 41.421875 45.53125 
Q 43.3125 49.21875 43.3125 52.78125 
Q 43.3125 58.59375 39.234375 62.25 
Q 35.15625 65.921875 28.609375 65.921875 
Q 23.96875 65.921875 18.8125 64.3125 
Q 13.671875 62.703125 7.8125 59.421875 
L 7.8125 69.390625 
Q 13.765625 71.78125 18.9375 73 
Q 24.125 74.21875 28.421875 74.21875 
Q 39.75 74.21875 46.484375 68.546875 
Q 53.21875 62.890625 53.21875 53.421875 
Q 53.21875 48.921875 51.53125 44.890625 
Q 49.859375 40.875 45.40625 35.40625 
Q 44.1875 33.984375 37.640625 27.21875 
Q 31.109375 20.453125 19.1875 8.296875 
z
" id="DejaVuSans-50"/>
       <path d="M 10.796875 72.90625 
L 49.515625 72.90625 
L 49.515625 64.59375 
L 19.828125 64.59375 
L 19.828125 46.734375 
Q 21.96875 47.46875 24.109375 47.828125 
Q 26.265625 48.1875 28.421875 48.1875 
Q 40.625 48.1875 47.75 41.5 
Q 54.890625 34.8125 54.890625 23.390625 
Q 54.890625 11.625 47.5625 5.09375 
Q 40.234375 -1.421875 26.90625 -1.421875 
Q 22.3125 -1.421875 17.546875 -0.640625 
Q 12.796875 0.140625 7.71875 1.703125 
L 7.71875 11.625 
Q 12.109375 9.234375 16.796875 8.0625 
Q 21.484375 6.890625 26.703125 6.890625 
Q 35.15625 6.890625 40.078125 11.328125 
Q 45.015625 15.765625 45.015625 23.390625 
Q 45.015625 31 40.078125 35.4375 
Q 35.15625 39.890625 26.703125 39.890625 
Q 22.75 39.890625 18.8125 39.015625 
Q 14.890625 38.140625 10.796875 36.28125 
z
" id="DejaVuSans-53"/>
      </defs>
      <g transform="translate(92.831563 476.638438)scale(0.1 -0.1)">
       <use xlink:href="#DejaVuSans-48"/>
       <use x="63.623047" xlink:href="#DejaVuSans-46"/>
       <use x="95.410156" xlink:href="#DejaVuSans-48"/>
       <use x="159.033203" xlink:href="#DejaVuSans-50"/>
       <use x="222.65625" xlink:href="#DejaVuSans-53"/>
      </g>
     </g>
    </g>
    <g id="xtick_3">
     <g id="line2d_3">
      <g>
       <use style="stroke:#000000;stroke-width:0.8;" x="160.27125" xlink:href="#m046b7d2e13" y="462.04"/>
      </g>
     </g>
     <g id="text_3">
      <!-- 0.050 -->
      <g transform="translate(145.957188 476.638438)scale(0.1 -0.1)">
       <use xlink:href="#DejaVuSans-48"/>
       <use x="63.623047" xlink:href="#DejaVuSans-46"/>
       <use x="95.410156" xlink:href="#DejaVuSans-48"/>
       <use x="159.033203" xlink:href="#DejaVuSans-53"/>
       <use x="222.65625" xlink:href="#DejaVuSans-48"/>
      </g>
     </g>
    </g>
    <g id="xtick_4">
     <g id="line2d_4">
      <g>
       <use style="stroke:#000000;stroke-width:0.8;" x="213.396875" xlink:href="#m046b7d2e13" y="462.04"/>
      </g>
     </g>
     <g id="text_4">
      <!-- 0.075 -->
      <defs>
       <path d="M 8.203125 72.90625 
L 55.078125 72.90625 
L 55.078125 68.703125 
L 28.609375 0 
L 18.3125 0 
L 43.21875 64.59375 
L 8.203125 64.59375 
z
" id="DejaVuSans-55"/>
      </defs>
      <g transform="translate(199.082813 476.638438)scale(0.1 -0.1)">
       <use xlink:href="#DejaVuSans-48"/>
       <use x="63.623047" xlink:href="#DejaVuSans-46"/>
       <use x="95.410156" xlink:href="#DejaVuSans-48"/>
       <use x="159.033203" xlink:href="#DejaVuSans-55"/>
       <use x="222.65625" xlink:href="#DejaVuSans-53"/>
      </g>
     </g>
    </g>
    <g id="xtick_5">
     <g id="line2d_5">
      <g>
       <use style="stroke:#000000;stroke-width:0.8;" x="266.5225" xlink:href="#m046b7d2e13" y="462.04"/>
      </g>
     </g>
     <g id="text_5">
      <!-- 0.100 -->
      <defs>
       <path d="M 12.40625 8.296875 
L 28.515625 8.296875 
L 28.515625 63.921875 
L 10.984375 60.40625 
L 10.984375 69.390625 
L 28.421875 72.90625 
L 38.28125 72.90625 
L 38.28125 8.296875 
L 54.390625 8.296875 
L 54.390625 0 
L 12.40625 0 
z
" id="DejaVuSans-49"/>
      </defs>
      <g transform="translate(252.208438 476.638438)scale(0.1 -0.1)">
       <use xlink:href="#DejaVuSans-48"/>
       <use x="63.623047" xlink:href="#DejaVuSans-46"/>
       <use x="95.410156" xlink:href="#DejaVuSans-49"/>
       <use x="159.033203" xlink:href="#DejaVuSans-48"/>
       <use x="222.65625" xlink:href="#DejaVuSans-48"/>
      </g>
     </g>
    </g>
    <g id="xtick_6">
     <g id="line2d_6">
      <g>
       <use style="stroke:#000000;stroke-width:0.8;" x="319.648125" xlink:href="#m046b7d2e13" y="462.04"/>
      </g>
     </g>
     <g id="text_6">
      <!-- 0.125 -->
      <g transform="translate(305.334063 476.638438)scale(0.1 -0.1)">
       <use xlink:href="#DejaVuSans-48"/>
       <use x="63.623047" xlink:href="#DejaVuSans-46"/>
       <use x="95.410156" xlink:href="#DejaVuSans-49"/>
       <use x="159.033203" xlink:href="#DejaVuSans-50"/>
       <use x="222.65625" xlink:href="#DejaVuSans-53"/>
      </g>
     </g>
    </g>
    <g id="xtick_7">
     <g id="line2d_7">
      <g>
       <use style="stroke:#000000;stroke-width:0.8;" x="372.77375" xlink:href="#m046b7d2e13" y="462.04"/>
      </g>
     </g>
     <g id="text_7">
      <!-- 0.150 -->
      <g transform="translate(358.459688 476.638438)scale(0.1 -0.1)">
       <use xlink:href="#DejaVuSans-48"/>
       <use x="63.623047" xlink:href="#DejaVuSans-46"/>
       <use x="95.410156" xlink:href="#DejaVuSans-49"/>
       <use x="159.033203" xlink:href="#DejaVuSans-53"/>
       <use x="222.65625" xlink:href="#DejaVuSans-48"/>
      </g>
     </g>
    </g>
    <g id="xtick_8">
     <g id="line2d_8">
      <g>
       <use style="stroke:#000000;stroke-width:0.8;" x="425.899375" xlink:href="#m046b7d2e13" y="462.04"/>
      </g>
     </g>
     <g id="text_8">
      <!-- 0.175 -->
      <g transform="translate(411.585313 476.638438)scale(0.1 -0.1)">
       <use xlink:href="#DejaVuSans-48"/>
       <use x="63.623047" xlink:href="#DejaVuSans-46"/>
       <use x="95.410156" xlink:href="#DejaVuSans-49"/>
       <use x="159.033203" xlink:href="#DejaVuSans-55"/>
       <use x="222.65625" xlink:href="#DejaVuSans-53"/>
      </g>
     </g>
    </g>
    <g id="xtick_9">
     <g id="line2d_9">
      <g>
       <use style="stroke:#000000;stroke-width:0.8;" x="479.025" xlink:href="#m046b7d2e13" y="462.04"/>
      </g>
     </g>
     <g id="text_9">
      <!-- 0.200 -->
      <g transform="translate(464.710938 476.638438)scale(0.1 -0.1)">
       <use xlink:href="#DejaVuSans-48"/>
       <use x="63.623047" xlink:href="#DejaVuSans-46"/>
       <use x="95.410156" xlink:href="#DejaVuSans-50"/>
       <use x="159.033203" xlink:href="#DejaVuSans-48"/>
       <use x="222.65625" xlink:href="#DejaVuSans-48"/>
      </g>
     </g>
    </g>
    <g id="text_10">
     <!-- z₀ -->
     <defs>
      <path d="M 5.515625 54.6875 
L 48.1875 54.6875 
L 48.1875 46.484375 
L 14.40625 7.171875 
L 48.1875 7.171875 
L 48.1875 0 
L 4.296875 0 
L 4.296875 8.203125 
L 38.09375 47.515625 
L 5.515625 47.515625 
z
" id="DejaVuSans-122"/>
      <path d="M 27.828125 33.046875 
Q 25.390625 37.25 20.453125 37.25 
Q 15.53125 37.25 13.09375 33.046875 
Q 10.59375 28.84375 10.59375 20.453125 
Q 10.59375 12 13.09375 7.8125 
Q 15.53125 3.609375 20.453125 3.609375 
Q 25.390625 3.609375 27.828125 7.8125 
Q 30.328125 12 30.328125 20.453125 
Q 30.328125 28.84375 27.828125 33.046875 
z
M 20.453125 41.59375 
Q 28.328125 41.59375 32.46875 36.171875 
Q 36.625 30.75 36.625 20.453125 
Q 36.625 10.09375 32.46875 4.671875 
Q 28.328125 -0.734375 20.453125 -0.734375 
Q 12.546875 -0.734375 8.390625 4.671875 
Q 4.25 10.09375 4.25 20.453125 
Q 4.25 30.75 8.390625 36.171875 
Q 12.546875 41.59375 20.453125 41.59375 
z
" id="DejaVuSans-8320"/>
     </defs>
     <g transform="translate(261.893594 490.316563)scale(0.1 -0.1)">
      <use xlink:href="#DejaVuSans-122"/>
      <use x="52.490234" xlink:href="#DejaVuSans-8320"/>
     </g>
    </g>
   </g>
   <g id="matplotlib.axis_2">
    <g id="ytick_1">
     <g id="line2d_10">
      <defs>
       <path d="M 0 0 
L -3.5 0 
" id="m7c506c4d86" style="stroke:#000000;stroke-width:0.8;"/>
      </defs>
      <g>
       <use style="stroke:#000000;stroke-width:0.8;" x="54.02" xlink:href="#m7c506c4d86" y="462.04"/>
      </g>
     </g>
     <g id="text_11">
      <!-- 0.20 -->
      <g transform="translate(24.754375 465.839219)scale(0.1 -0.1)">
       <use xlink:href="#DejaVuSans-48"/>
       <use x="63.623047" xlink:href="#DejaVuSans-46"/>
       <use x="95.410156" xlink:href="#DejaVuSans-50"/>
       <use x="159.033203" xlink:href="#DejaVuSans-48"/>
      </g>
     </g>
    </g>
    <g id="ytick_2">
     <g id="line2d_11">
      <g>
       <use style="stroke:#000000;stroke-width:0.8;" x="54.02" xlink:href="#m7c506c4d86" y="389.273333"/>
      </g>
     </g>
     <g id="text_12">
      <!-- 0.25 -->
      <g transform="translate(24.754375 393.072552)scale(0.1 -0.1)">
       <use xlink:href="#DejaVuSans-48"/>
       <use x="63.623047" xlink:href="#DejaVuSans-46"/>
       <use x="95.410156" xlink:href="#DejaVuSans-50"/>
       <use x="159.033203" xlink:href="#DejaVuSans-53"/>
      </g>
     </g>
    </g>
    <g id="ytick_3">
     <g id="line2d_12">
      <g>
       <use style="stroke:#000000;stroke-width:0.8;" x="54.02" xlink:href="#m7c506c4d86" y="316.506667"/>
      </g>
     </g>
     <g id="text_13">
      <!-- 0.30 -->
      <defs>
       <path d="M 40.578125 39.3125 
Q 47.65625 37.796875 51.625 33 
Q 55.609375 28.21875 55.609375 21.1875 
Q 55.609375 10.40625 48.1875 4.484375 
Q 40.765625 -1.421875 27.09375 -1.421875 
Q 22.515625 -1.421875 17.65625 -0.515625 
Q 12.796875 0.390625 7.625 2.203125 
L 7.625 11.71875 
Q 11.71875 9.328125 16.59375 8.109375 
Q 21.484375 6.890625 26.8125 6.890625 
Q 36.078125 6.890625 40.9375 10.546875 
Q 45.796875 14.203125 45.796875 21.1875 
Q 45.796875 27.640625 41.28125 31.265625 
Q 36.765625 34.90625 28.71875 34.90625 
L 20.21875 34.90625 
L 20.21875 43.015625 
L 29.109375 43.015625 
Q 36.375 43.015625 40.234375 45.921875 
Q 44.09375 48.828125 44.09375 54.296875 
Q 44.09375 59.90625 40.109375 62.90625 
Q 36.140625 65.921875 28.71875 65.921875 
Q 24.65625 65.921875 20.015625 65.03125 
Q 15.375 64.15625 9.8125 62.3125 
L 9.8125 71.09375 
Q 15.4375 72.65625 20.34375 73.4375 
Q 25.25 74.21875 29.59375 74.21875 
Q 40.828125 74.21875 47.359375 69.109375 
Q 53.90625 64.015625 53.90625 55.328125 
Q 53.90625 49.265625 50.4375 45.09375 
Q 46.96875 40.921875 40.578125 39.3125 
z
" id="DejaVuSans-51"/>
      </defs>
      <g transform="translate(24.754375 320.305885)scale(0.1 -0.1)">
       <use xlink:href="#DejaVuSans-48"/>
       <use x="63.623047" xlink:href="#DejaVuSans-46"/>
       <use x="95.410156" xlink:href="#DejaVuSans-51"/>
       <use x="159.033203" xlink:href="#DejaVuSans-48"/>
      </g>
     </g>
    </g>
    <g id="ytick_4">
     <g id="line2d_13">
      <g>
       <use style="stroke:#000000;stroke-width:0.8;" x="54.02" xlink:href="#m7c506c4d86" y="243.74"/>
      </g>
     </g>
     <g id="text_14">
      <!-- 0.35 -->
      <g transform="translate(24.754375 247.539219)scale(0.1 -0.1)">
       <use xlink:href="#DejaVuSans-48"/>
       <use x="63.623047" xlink:href="#DejaVuSans-46"/>
       <use x="95.410156" xlink:href="#DejaVuSans-51"/>
       <use x="159.033203" xlink:href="#DejaVuSans-53"/>
      </g>
     </g>
    </g>
    <g id="ytick_5">
     <g id="line2d_14">
      <g>
       <use style="stroke:#000000;stroke-width:0.8;" x="54.02" xlink:href="#m7c506c4d86" y="170.973333"/>
      </g>
     </g>
     <g id="text_15">
      <!-- 0.40 -->
      <defs>
       <path d="M 37.796875 64.3125 
L 12.890625 25.390625 
L 37.796875 25.390625 
z
M 35.203125 72.90625 
L 47.609375 72.90625 
L 47.609375 25.390625 
L 58.015625 25.390625 
L 58.015625 17.1875 
L 47.609375 17.1875 
L 47.609375 0 
L 37.796875 0 
L 37.796875 17.1875 
L 4.890625 17.1875 
L 4.890625 26.703125 
z
" id="DejaVuSans-52"/>
      </defs>
      <g transform="translate(24.754375 174.772552)scale(0.1 -0.1)">
       <use xlink:href="#DejaVuSans-48"/>
       <use x="63.623047" xlink:href="#DejaVuSans-46"/>
       <use x="95.410156" xlink:href="#DejaVuSans-52"/>
       <use x="159.033203" xlink:href="#DejaVuSans-48"/>
      </g>
     </g>
    </g>
    <g id="ytick_6">
     <g id="line2d_15">
      <g>
       <use style="stroke:#000000;stroke-width:0.8;" x="54.02" xlink:href="#m7c506c4d86" y="98.206667"/>
      </g>
     </g>
     <g id="text_16">
      <!-- 0.45 -->
      <g transform="translate(24.754375 102.005885)scale(0.1 -0.1)">
       <use xlink:href="#DejaVuSans-48"/>
       <use x="63.623047" xlink:href="#DejaVuSans-46"/>
       <use x="95.410156" xlink:href="#DejaVuSans-52"/>
       <use x="159.033203" xlink:href="#DejaVuSans-53"/>
      </g>
     </g>
    </g>
    <g id="ytick_7">
     <g id="line2d_16">
      <g>
       <use style="stroke:#000000;stroke-width:0.8;" x="54.02" xlink:href="#m7c506c4d86" y="25.44"/>
      </g>
     </g>
     <g id="text_17">
      <!-- 0.50 -->
      <g transform="translate(24.754375 29.239219)scale(0.1 -0.1)">
       <use xlink:href="#DejaVuSans-48"/>
       <use x="63.623047" xlink:href="#DejaVuSans-46"/>
       <use x="95.410156" xlink:href="#DejaVuSans-53"/>
       <use x="159.033203" xlink:href="#DejaVuSans-48"/>
      </g>
     </g>
    </g>
    <g id="text_18">
     <!-- R -->
     <defs>
      <path d="M 44.390625 34.1875 
Q 47.5625 33.109375 50.5625 29.59375 
Q 53.5625 26.078125 56.59375 19.921875 
L 66.609375 0 
L 56 0 
L 46.6875 18.703125 
Q 43.0625 26.03125 39.671875 28.421875 
Q 36.28125 30.8125 30.421875 30.8125 
L 19.671875 30.8125 
L 19.671875 0 
L 9.8125 0 
L 9.8125 72.90625 
L 32.078125 72.90625 
Q 44.578125 72.90625 50.734375 67.671875 
Q 56.890625 62.453125 56.890625 51.90625 
Q 56.890625 45.015625 53.6875 40.46875 
Q 50.484375 35.9375 44.390625 34.1875 
z
M 19.671875 64.796875 
L 19.671875 38.921875 
L 32.078125 38.921875 
Q 39.203125 38.921875 42.84375 42.21875 
Q 46.484375 45.515625 46.484375 51.90625 
Q 46.484375 58.296875 42.84375 61.546875 
Q 39.203125 64.796875 32.078125 64.796875 
z
" id="DejaVuSans-82"/>
     </defs>
     <g transform="translate(18.674688 247.214219)rotate(-90)scale(0.1 -0.1)">
      <use xlink:href="#DejaVuSans-82"/>
     </g>
    </g>
   </g>
   <g id="LineCollection_1"/>
   <g id="LineCollection_2"/>
   <g id="LineCollection_3"/>
   <g id="LineCollection_4"/>
   <g id="LineCollection_5"/>
   <g id="LineCollection_6"/>
   <g id="LineCollection_7"/>
   <g id="LineCollection_8"/>
   <g id="LineCollection_9"/>
   <g id="LineCollection_10"/>
   <g id="LineCollection_11"/>
   <g id="LineCollection_12">
    <path clip-path="url(#pe30f3f0d74)" d="M 434.615653 462.04 
L 436.5245 461.727453 
L 437.792192 461.519942 
" style="fill:none;stroke:#0000ff;stroke-width:1.5;"/>
    <path clip-path="url(#pe30f3f0d74)" d="M 477.741674 454.788457 
L 477.887203 454.763333 
L 479.025 454.564274 
" style="fill:none;stroke:#0000ff;stroke-width:1.5;"/>
   </g>
   <g id="LineCollection_13">
    <path clip-path="url(#pe30f3f0d74)" d="M 368.530358 462.04 
L 370.648725 461.725393 
L 372.77375 461.409822 
L 374.898775 461.094283 
L 377.0238 460.778775 
L 378.329437 460.584667 
L 379.148825 460.460805 
L 381.27385 460.138918 
L 383.398875 459.817129 
L 384.633852 459.630175 
" style="fill:none;stroke:#0000ff;stroke-width:1.5;"/>
    <path clip-path="url(#pe30f3f0d74)" d="M 424.647781 453.321468 
L 424.730787 453.308 
L 425.899375 453.115317 
L 428.0244 452.764712 
L 430.149425 452.414528 
L 432.27445 452.06476 
L 433.562506 451.852667 
L 434.399475 451.712628 
L 436.5245 451.356675 
L 438.649525 451.001204 
L 440.77455 450.64621 
L 442.264516 450.397333 
L 442.899575 450.289556 
L 445.0246 449.928408 
L 447.149625 449.567803 
L 449.27465 449.207734 
L 450.843562 448.942 
L 451.399675 448.846308 
L 453.5247 448.480122 
L 455.649725 448.114538 
L 457.77475 447.749548 
L 459.305977 447.486667 
L 459.899775 447.383109 
L 462.0248 447.012044 
L 464.149825 446.641639 
L 466.27485 446.271884 
L 467.657711 446.031333 
L 468.399875 445.900203 
L 470.5249 445.524419 
L 472.649925 445.149351 
L 474.77495 444.774988 
L 475.904364 444.576 
L 476.899975 444.397846 
L 479.025 444.017506 
" style="fill:none;stroke:#0000ff;stroke-width:1.5;"/>
   </g>
   <g id="LineCollection_14">
    <path clip-path="url(#pe30f3f0d74)" d="M 282.027816 462.04 
L 283.5227 461.855628 
L 285.647725 461.592775 
L 287.77275 461.329464 
L 289.897775 461.065706 
L 292.0228 460.801515 
L 293.763065 460.584667 
L 294.147825 460.535776 
L 296.27285 460.264519 
L 297.444413 460.114762 
" style="fill:none;stroke:#0000ff;stroke-width:1.5;"/>
    <path clip-path="url(#pe30f3f0d74)" d="M 337.585052 454.735533 
L 338.77335 454.566616 
L 340.898375 454.264062 
L 343.0234 453.961477 
L 345.148425 453.658871 
L 347.27345 453.356253 
L 347.611094 453.308 
L 349.398475 453.047711 
L 351.5235 452.738086 
L 353.648525 452.428514 
L 355.77355 452.119002 
L 357.601465 451.852667 
L 357.898575 451.808557 
L 360.0236 451.49202 
L 362.148625 451.175608 
L 364.27365 450.859332 
L 366.398675 450.543198 
L 367.37735 450.397333 
L 368.5237 450.223272 
L 370.648725 449.900158 
L 372.77375 449.577253 
L 374.898775 449.254564 
L 376.958262 448.942 
L 377.0238 448.931868 
L 379.148825 448.602194 
L 381.27385 448.272803 
L 383.398875 447.943703 
L 385.5239 447.614897 
L 386.351144 447.486667 
L 387.648925 447.281778 
L 389.77395 446.946052 
L 391.898975 446.61069 
L 394.024 446.275696 
L 395.573945 446.031333 
L 396.149025 445.938999 
L 398.27405 445.597096 
L 400.399075 445.255629 
L 402.5241 444.914603 
L 404.636724 444.576 
L 404.649125 444.573976 
L 406.77415 444.226057 
L 408.899175 443.878648 
L 411.0242 443.531752 
L 413.149225 443.185372 
L 413.545287 443.120667 
L 415.27425 442.833088 
L 417.399275 442.479904 
L 419.5243 442.127305 
L 421.649325 441.775291 
L 422.312088 441.665333 
L 423.77435 441.418364 
L 425.899375 441.059578 
L 428.0244 440.701446 
L 430.149425 440.343969 
L 430.944916 440.21 
L 432.27445 439.982086 
L 434.399475 439.617873 
L 436.5245 439.254383 
L 438.649525 438.891619 
L 439.450983 438.754667 
L 440.77455 438.524478 
L 442.899575 438.155017 
L 445.0246 437.786349 
L 447.149625 437.418472 
L 447.83706 437.299333 
L 449.27465 437.045786 
L 451.399675 436.67126 
L 453.5247 436.297594 
L 455.649725 435.924786 
L 456.109505 435.844 
L 457.77475 435.546277 
L 459.899775 435.166871 
L 462.0248 434.788391 
L 464.149825 434.410832 
L 464.274304 434.388667 
L 466.27485 434.026239 
L 468.399875 433.642139 
L 470.5249 433.259028 
L 472.334778 432.933333 
L 472.649925 432.875637 
L 474.77495 432.485975 
L 476.899975 432.09737 
L 479.025 431.709815 
" style="fill:none;stroke:#0000ff;stroke-width:1.5;"/>
   </g>
   <g id="LineCollection_15">
    <path clip-path="url(#pe30f3f0d74)" d="M 137.327619 462.04 
L 139.021 461.920207 
L 141.146025 461.768371 
L 143.27105 461.615115 
L 145.396075 461.460454 
L 147.5211 461.304404 
L 149.646125 461.146977 
L 151.77115 460.98819 
L 153.896175 460.828057 
L 156.0212 460.666593 
L 157.089303 460.584667 
L 158.146225 460.50176 
L 160.27125 460.333515 
L 162.396275 460.163954 
L 164.5213 459.993093 
L 166.646325 459.820948 
L 168.77135 459.647533 
L 170.896375 459.472866 
L 173.0214 459.296962 
L 175.032184 459.129333 
L 175.146425 459.119596 
L 177.27145 458.936741 
L 179.396475 458.75267 
L 181.5215 458.5674 
L 183.646525 458.380947 
L 185.77155 458.193329 
L 187.896575 458.004561 
L 190.0216 457.81466 
L 191.585161 457.674 
L 192.146625 457.622366 
L 194.27165 457.42538 
L 196.396675 457.227289 
L 198.5217 457.028109 
L 200.646725 456.827857 
L 202.77175 456.626552 
L 204.896775 456.42421 
L 207.0218 456.220849 
L 207.044416 456.218667 
L 209.146825 456.011364 
L 211.27185 455.800819 
L 213.396875 455.589287 
L 215.5219 455.376786 
L 217.646925 455.163334 
L 219.77195 454.948947 
L 221.603082 454.763333 
L 221.896975 454.732892 
L 224.022 454.511221 
L 226.147025 454.288653 
L 228.27205 454.065206 
L 230.397075 453.840897 
L 231.523262 453.721575 
" style="fill:none;stroke:#0000ff;stroke-width:1.5;"/>
    <path clip-path="url(#pe30f3f0d74)" d="M 271.755505 449.132632 
L 272.897575 448.995021 
L 273.335362 448.942 
L 275.0226 448.733344 
L 277.147625 448.469836 
L 279.27265 448.20585 
L 281.397675 447.941403 
L 283.5227 447.676512 
L 285.041497 447.486667 
L 285.647725 447.409302 
L 287.77275 447.136917 
L 289.897775 446.864142 
L 292.0228 446.590995 
L 294.147825 446.317493 
L 296.27285 446.043654 
L 296.367972 446.031333 
L 298.397875 445.762943 
L 300.5229 445.481625 
L 302.647925 445.200025 
L 304.77295 444.918161 
L 306.897975 444.63605 
L 307.348421 444.576 
L 309.023 444.348157 
L 311.148025 444.058557 
L 313.27305 443.768768 
L 315.398075 443.478807 
L 317.5231 443.18869 
L 318.019456 443.120667 
L 319.648125 442.892897 
L 321.77315 442.595295 
L 323.898175 442.297597 
L 326.0232 441.999819 
L 328.148225 441.701978 
L 328.408618 441.665333 
L 330.27325 441.397597 
L 332.398275 441.092286 
L 334.5233 440.786972 
L 336.648325 440.481673 
L 338.538534 440.21 
L 338.77335 440.17557 
L 340.898375 439.862779 
L 343.0234 439.550065 
L 345.148425 439.237444 
L 347.27345 438.92493 
L 348.429218 438.754667 
L 349.398475 438.609021 
L 351.5235 438.289051 
L 353.648525 437.969253 
L 355.77355 437.649641 
L 357.898575 437.33023 
L 358.103391 437.299333 
L 360.0236 437.00392 
L 362.148625 436.677099 
L 364.27365 436.350544 
L 366.398675 436.024269 
L 367.571307 435.844 
L 368.5237 435.694699 
L 370.648725 435.361018 
L 372.77375 435.027683 
L 374.898775 434.694707 
L 376.853327 434.388667 
L 377.0238 434.361451 
L 379.148825 434.02108 
L 381.27385 433.681135 
L 383.398875 433.341629 
L 385.5239 433.002575 
L 385.956761 432.933333 
L 387.648925 432.657388 
L 389.77395 432.311011 
L 391.898975 431.965153 
L 394.024 431.619825 
L 394.895539 431.478 
L 396.149025 431.270081 
L 398.27405 430.917456 
L 400.399075 430.565428 
L 402.5241 430.21401 
L 403.68053 430.022667 
L 404.649125 429.859327 
L 406.77415 429.500643 
L 408.899175 429.142636 
L 411.0242 428.785317 
L 412.320521 428.567333 
L 413.149225 428.425326 
L 415.27425 428.060778 
L 417.399275 427.696985 
L 419.5243 427.333959 
L 420.823727 427.112 
L 421.649325 426.968307 
L 423.77435 426.598094 
L 425.899375 426.228715 
L 428.0244 425.860179 
L 429.197836 425.656667 
L 430.149425 425.488527 
L 432.27445 425.112852 
L 434.399475 424.738089 
L 436.5245 424.364245 
L 437.450057 424.201333 
L 438.649525 423.986267 
L 440.77455 423.605338 
L 442.899575 423.225396 
L 445.0246 422.846449 
L 445.587159 422.746 
L 447.149625 422.461836 
L 449.27465 422.075862 
L 451.399675 421.69095 
L 453.5247 421.307107 
L 453.615501 421.290667 
L 455.649725 420.915564 
L 457.77475 420.524757 
L 459.899775 420.135086 
L 461.537189 419.835333 
L 462.0248 419.744433 
L 464.149825 419.347803 
L 466.27485 418.952376 
L 468.399875 418.558157 
L 469.360285 418.38 
L 470.5249 418.160031 
L 472.649925 417.758924 
L 474.77495 417.359093 
L 476.899975 416.960539 
L 477.09089 416.924667 
L 479.025 416.554685 
" style="fill:none;stroke:#0000ff;stroke-width:1.5;"/>
   </g>
   <g id="LineCollection_16">
    <path clip-path="url(#pe30f3f0d74)" d="M 54.02 448.223317 
L 77.395275 447.283442 
L 102.142551 446.031333 
L 125.965046 444.576 
L 147.5211 443.04964 
L 173.0214 440.987259 
L 196.396675 438.864061 
L 217.646925 436.731867 
L 241.0222 434.179151 
L 266.5225 431.141281 
L 292.0228 427.847501 
L 315.398075 424.610585 
L 337.982129 421.290667 
L 366.398675 416.843467 
L 372.216777 415.894697 
L 372.216777 415.894697 
" style="fill:none;stroke:#0000ff;stroke-width:1.5;"/>
    <path clip-path="url(#pe30f3f0d74)" d="M 412.15322 409.081956 
L 413.149225 408.904782 
L 415.27425 408.527564 
L 417.163818 408.192667 
L 417.399275 408.150168 
L 419.5243 407.765654 
L 421.649325 407.381995 
L 423.77435 406.99921 
L 425.229103 406.737333 
L 425.899375 406.614472 
L 428.0244 406.224451 
L 430.149425 405.835369 
L 432.27445 405.447243 
L 433.178641 405.282 
L 434.399475 405.054846 
L 436.5245 404.659548 
L 438.649525 404.265273 
L 440.77455 403.872036 
L 441.019197 403.826667 
L 442.899575 403.471678 
L 445.0246 403.071338 
L 447.149625 402.672102 
L 448.752874 402.371333 
L 449.27465 402.271698 
L 451.399675 401.865383 
L 453.5247 401.460236 
L 455.649725 401.056274 
L 456.387148 400.916 
L 457.77475 400.64736 
L 459.899775 400.236395 
L 462.0248 399.826679 
L 463.927916 399.460667 
L 464.149825 399.417236 
L 466.27485 399.000546 
L 468.399875 398.58517 
L 470.5249 398.171123 
L 471.375664 398.005333 
L 472.649925 397.752666 
L 474.77495 397.331727 
L 476.899975 396.912181 
L 478.73921 396.55 
L 479.025 396.492743 
" style="fill:none;stroke:#0000ff;stroke-width:1.5;"/>
   </g>
   <g id="LineCollection_17">
    <path clip-path="url(#pe30f3f0d74)" d="M 54.02 421.897763 
L 75.27025 421.05265 
L 98.645525 419.878878 
L 119.895775 418.58768 
L 141.146025 417.088812 
L 162.396275 415.382212 
L 185.77155 413.262925 
L 207.262468 411.103333 
L 232.5221 408.296587 
L 251.647325 405.983011 
L 272.897575 403.230454 
L 296.27285 399.981435 
L 299.617831 399.500662 
L 299.617831 399.500662 
" style="fill:none;stroke:#0000ff;stroke-width:1.5;"/>
    <path clip-path="url(#pe30f3f0d74)" d="M 339.65524 393.354585 
L 340.898375 393.152485 
L 343.0234 392.806916 
L 345.148425 392.461277 
L 346.851499 392.184 
L 347.27345 392.114153 
L 349.398475 391.761159 
L 351.5235 391.408151 
L 353.648525 391.055154 
L 355.61354 390.728667 
L 355.77355 390.70164 
L 357.898575 390.341326 
L 360.0236 389.981081 
L 362.148625 389.620931 
L 364.199958 389.273333 
L 364.27365 389.260641 
L 366.398675 388.893216 
L 368.5237 388.525944 
L 370.648725 388.15885 
L 372.622306 387.818 
L 372.77375 387.791417 
L 374.898775 387.417097 
L 377.0238 387.043014 
L 379.148825 386.669193 
L 380.891245 386.362667 
L 381.27385 386.294268 
L 383.398875 385.913273 
L 385.5239 385.532601 
L 387.648925 385.152276 
L 389.016636 384.907333 
L 389.77395 384.769524 
L 391.898975 384.382083 
L 394.024 383.995048 
L 396.149025 383.608447 
L 397.007614 383.452 
L 398.27405 383.217553 
L 400.399075 382.823896 
L 402.5241 382.430732 
L 404.649125 382.038086 
L 404.872661 381.996667 
L 406.77415 381.63875 
L 408.899175 381.239113 
L 411.0242 380.840056 
L 412.615456 380.541333 
L 413.149225 380.439554 
L 415.27425 380.033539 
L 417.399275 379.628164 
L 419.5243 379.223454 
L 420.244983 379.086 
L 421.649325 378.81397 
L 423.77435 378.402374 
L 425.899375 377.991504 
L 427.76796 377.630667 
L 428.0244 377.580379 
L 430.149425 377.162662 
L 432.27445 376.745731 
L 434.399475 376.329613 
L 435.18651 376.175333 
L 436.5245 375.909014 
L 438.649525 375.486127 
L 440.77455 375.064112 
L 442.509426 374.72 
L 442.899575 374.641432 
L 445.0246 374.212691 
L 447.149625 373.784885 
L 449.27465 373.358037 
L 449.738749 373.264667 
L 451.399675 372.925438 
L 453.5247 372.491948 
L 455.649725 372.059477 
L 456.879223 371.809333 
L 457.77475 371.624392 
L 459.899775 371.185326 
L 462.0248 370.747341 
L 463.937079 370.354 
L 464.149825 370.309585 
L 466.27485 369.865055 
L 468.399875 369.421668 
L 470.5249 368.979445 
L 470.91249 368.898667 
L 472.649925 368.531182 
L 474.77495 368.082504 
L 476.899975 367.635052 
L 477.81035 367.443333 
L 479.025 367.183761 
" style="fill:none;stroke:#0000ff;stroke-width:1.5;"/>
   </g>
   <g id="LineCollection_18">
    <path clip-path="url(#pe30f3f0d74)" d="M 54.02 378.641808 
L 75.27025 377.778375 
L 94.395475 376.794353 
L 115.645725 375.477123 
L 136.895975 373.923294 
L 158.146225 372.135167 
L 177.27145 370.327469 
L 198.5217 368.094663 
L 219.77195 365.63694 
L 241.0222 362.95434 
L 264.397475 359.744426 
L 285.647725 356.59833 
L 306.897975 353.239631 
L 326.368583 349.979333 
L 351.5235 345.509335 
L 367.760259 342.474343 
L 367.760259 342.474343 
" style="fill:none;stroke:#0000ff;stroke-width:1.5;"/>
    <path clip-path="url(#pe30f3f0d74)" d="M 407.507346 334.56648 
L 408.899175 334.278368 
L 410.384551 333.970667 
L 411.0242 333.836638 
L 413.149225 333.390398 
L 415.27425 332.94436 
L 417.318989 332.515333 
L 417.399275 332.498296 
L 419.5243 332.045955 
L 421.649325 331.593877 
L 423.77435 331.142087 
L 424.159521 331.06 
L 425.899375 330.685005 
L 428.0244 330.227 
L 430.149425 329.769344 
L 430.91282 329.604667 
L 432.27445 329.307635 
L 434.399475 328.843822 
L 436.5245 328.380416 
L 437.583112 328.149333 
L 438.649525 327.913947 
L 440.77455 327.444443 
L 442.899575 326.975406 
L 444.173875 326.694 
L 445.0246 326.504049 
L 447.149625 326.028973 
L 449.27465 325.554425 
L 450.688413 325.238667 
L 451.399675 325.078059 
L 453.5247 324.597533 
L 455.649725 324.117595 
L 457.12986 323.783333 
L 457.77475 323.636103 
L 459.899775 323.15025 
L 462.0248 322.665045 
L 463.501195 322.328 
L 464.149825 322.178316 
L 466.27485 321.68726 
L 468.399875 321.196911 
L 469.805252 320.872667 
L 470.5249 320.70484 
L 472.649925 320.208705 
L 474.77495 319.713339 
L 476.044728 319.417333 
L 476.899975 319.215824 
L 479.025 318.714738 
" style="fill:none;stroke:#0000ff;stroke-width:1.5;"/>
   </g>
   <g id="LineCollection_19">
    <path clip-path="url(#pe30f3f0d74)" d="M 54.02 294.175574 
L 73.145225 293.380063 
L 92.27045 292.34666 
L 111.395675 291.079098 
L 130.5209 289.577293 
L 149.646125 287.842739 
L 168.77135 285.87775 
L 187.896575 283.680327 
L 207.0218 281.257795 
L 226.147025 278.610965 
L 247.397275 275.407632 
L 266.5225 272.294497 
L 285.647725 268.966744 
L 304.77295 265.428374 
L 326.263578 261.204 
L 347.27345 256.825509 
L 368.5237 252.151597 
L 389.77395 247.238796 
L 410.254613 242.284667 
L 424.779201 238.640312 
L 424.779201 238.640312 
" style="fill:none;stroke:#0000ff;stroke-width:1.5;"/>
    <path clip-path="url(#pe30f3f0d74)" d="M 463.997538 228.288326 
L 464.149825 228.246745 
L 466.037303 227.731333 
L 466.27485 227.666022 
L 468.399875 227.080417 
L 470.5249 226.494996 
L 471.318655 226.276 
L 472.649925 225.906204 
L 474.77495 225.315497 
L 476.554959 224.820667 
L 476.899975 224.724106 
L 479.025 224.12816 
" style="fill:none;stroke:#0000ff;stroke-width:1.5;"/>
   </g>
   <g id="patch_3">
    <path d="M 54.02 462.04 
L 54.02 25.44 
" style="fill:none;stroke:#000000;stroke-linecap:square;stroke-linejoin:miter;stroke-width:0.8;"/>
   </g>
   <g id="patch_4">
    <path d="M 479.025 462.04 
L 479.025 25.44 
" style="fill:none;stroke:#000000;stroke-linecap:square;stroke-linejoin:miter;stroke-width:0.8;"/>
   </g>
   <g id="patch_5">
    <path d="M 54.02 462.04 
L 479.025 462.04 
" style="fill:none;stroke:#000000;stroke-linecap:square;stroke-linejoin:miter;stroke-width:0.8;"/>
   </g>
   <g id="patch_6">
    <path d="M 54.02 25.44 
L 479.025 25.44 
" style="fill:none;stroke:#000000;stroke-linecap:square;stroke-linejoin:miter;stroke-width:0.8;"/>
   </g>
   <g id="text_19">
    <g clip-path="url(#pe30f3f0d74)">
     <!-- 0.550 -->
     <g style="fill:#0000ff;" transform="translate(444.091364 463.23089)rotate(-9.261321)scale(0.1 -0.1)">
      <use xlink:href="#DejaVuSans-48"/>
      <use x="63.623047" xlink:href="#DejaVuSans-46"/>
      <use x="95.410156" xlink:href="#DejaVuSans-53"/>
      <use x="159.033203" xlink:href="#DejaVuSans-53"/>
      <use x="222.65625" xlink:href="#DejaVuSans-48"/>
     </g>
    </g>
   </g>
   <g id="text_20">
    <g clip-path="url(#pe30f3f0d74)">
     <!-- 0.600 -->
     <defs>
      <path d="M 33.015625 40.375 
Q 26.375 40.375 22.484375 35.828125 
Q 18.609375 31.296875 18.609375 23.390625 
Q 18.609375 15.53125 22.484375 10.953125 
Q 26.375 6.390625 33.015625 6.390625 
Q 39.65625 6.390625 43.53125 10.953125 
Q 47.40625 15.53125 47.40625 23.390625 
Q 47.40625 31.296875 43.53125 35.828125 
Q 39.65625 40.375 33.015625 40.375 
z
M 52.59375 71.296875 
L 52.59375 62.3125 
Q 48.875 64.0625 45.09375 64.984375 
Q 41.3125 65.921875 37.59375 65.921875 
Q 27.828125 65.921875 22.671875 59.328125 
Q 17.53125 52.734375 16.796875 39.40625 
Q 19.671875 43.65625 24.015625 45.921875 
Q 28.375 48.1875 33.59375 48.1875 
Q 44.578125 48.1875 50.953125 41.515625 
Q 57.328125 34.859375 57.328125 23.390625 
Q 57.328125 12.15625 50.6875 5.359375 
Q 44.046875 -1.421875 33.015625 -1.421875 
Q 20.359375 -1.421875 13.671875 8.265625 
Q 6.984375 17.96875 6.984375 36.375 
Q 6.984375 53.65625 15.1875 63.9375 
Q 23.390625 74.21875 37.203125 74.21875 
Q 40.921875 74.21875 44.703125 73.484375 
Q 48.484375 72.75 52.59375 71.296875 
z
" id="DejaVuSans-54"/>
     </defs>
     <g style="fill:#0000ff;" transform="translate(390.915347 461.419912)rotate(-8.678911)scale(0.1 -0.1)">
      <use xlink:href="#DejaVuSans-48"/>
      <use x="63.623047" xlink:href="#DejaVuSans-46"/>
      <use x="95.410156" xlink:href="#DejaVuSans-54"/>
      <use x="159.033203" xlink:href="#DejaVuSans-48"/>
      <use x="222.65625" xlink:href="#DejaVuSans-48"/>
     </g>
    </g>
   </g>
   <g id="text_21">
    <g clip-path="url(#pe30f3f0d74)">
     <!-- 0.650 -->
     <g style="fill:#0000ff;" transform="translate(303.682833 462.069452)rotate(-7.389751)scale(0.1 -0.1)">
      <use xlink:href="#DejaVuSans-48"/>
      <use x="63.623047" xlink:href="#DejaVuSans-46"/>
      <use x="95.410156" xlink:href="#DejaVuSans-54"/>
      <use x="159.033203" xlink:href="#DejaVuSans-53"/>
      <use x="222.65625" xlink:href="#DejaVuSans-48"/>
     </g>
    </g>
   </g>
   <g id="text_22">
    <g clip-path="url(#pe30f3f0d74)">
     <!-- 0.700 -->
     <g style="fill:#0000ff;" transform="translate(237.722887 455.816291)rotate(-6.305087)scale(0.1 -0.1)">
      <use xlink:href="#DejaVuSans-48"/>
      <use x="63.623047" xlink:href="#DejaVuSans-46"/>
      <use x="95.410156" xlink:href="#DejaVuSans-55"/>
      <use x="159.033203" xlink:href="#DejaVuSans-48"/>
      <use x="222.65625" xlink:href="#DejaVuSans-48"/>
     </g>
    </g>
   </g>
   <g id="text_23">
    <g clip-path="url(#pe30f3f0d74)">
     <!-- 0.750 -->
     <g style="fill:#0000ff;" transform="translate(378.522165 417.61106)rotate(-9.367366)scale(0.1 -0.1)">
      <use xlink:href="#DejaVuSans-48"/>
      <use x="63.623047" xlink:href="#DejaVuSans-46"/>
      <use x="95.410156" xlink:href="#DejaVuSans-55"/>
      <use x="159.033203" xlink:href="#DejaVuSans-53"/>
      <use x="222.65625" xlink:href="#DejaVuSans-48"/>
     </g>
    </g>
   </g>
   <g id="text_24">
    <g clip-path="url(#pe30f3f0d74)">
     <!-- 0.800 -->
     <defs>
      <path d="M 31.78125 34.625 
Q 24.75 34.625 20.71875 30.859375 
Q 16.703125 27.09375 16.703125 20.515625 
Q 16.703125 13.921875 20.71875 10.15625 
Q 24.75 6.390625 31.78125 6.390625 
Q 38.8125 6.390625 42.859375 10.171875 
Q 46.921875 13.96875 46.921875 20.515625 
Q 46.921875 27.09375 42.890625 30.859375 
Q 38.875 34.625 31.78125 34.625 
z
M 21.921875 38.8125 
Q 15.578125 40.375 12.03125 44.71875 
Q 8.5 49.078125 8.5 55.328125 
Q 8.5 64.0625 14.71875 69.140625 
Q 20.953125 74.21875 31.78125 74.21875 
Q 42.671875 74.21875 48.875 69.140625 
Q 55.078125 64.0625 55.078125 55.328125 
Q 55.078125 49.078125 51.53125 44.71875 
Q 48 40.375 41.703125 38.8125 
Q 48.828125 37.15625 52.796875 32.3125 
Q 56.78125 27.484375 56.78125 20.515625 
Q 56.78125 9.90625 50.3125 4.234375 
Q 43.84375 -1.421875 31.78125 -1.421875 
Q 19.734375 -1.421875 13.25 4.234375 
Q 6.78125 9.90625 6.78125 20.515625 
Q 6.78125 27.484375 10.78125 32.3125 
Q 14.796875 37.15625 21.921875 38.8125 
z
M 18.3125 54.390625 
Q 18.3125 48.734375 21.84375 45.5625 
Q 25.390625 42.390625 31.78125 42.390625 
Q 38.140625 42.390625 41.71875 45.5625 
Q 45.3125 48.734375 45.3125 54.390625 
Q 45.3125 60.0625 41.71875 63.234375 
Q 38.140625 66.40625 31.78125 66.40625 
Q 25.390625 66.40625 21.84375 63.234375 
Q 18.3125 60.0625 18.3125 54.390625 
z
" id="DejaVuSans-56"/>
     </defs>
     <g style="fill:#0000ff;" transform="translate(305.89423 401.339146)rotate(-8.441713)scale(0.1 -0.1)">
      <use xlink:href="#DejaVuSans-48"/>
      <use x="63.623047" xlink:href="#DejaVuSans-46"/>
      <use x="95.410156" xlink:href="#DejaVuSans-56"/>
      <use x="159.033203" xlink:href="#DejaVuSans-48"/>
      <use x="222.65625" xlink:href="#DejaVuSans-48"/>
     </g>
    </g>
   </g>
   <g id="text_25">
    <g clip-path="url(#pe30f3f0d74)">
     <!-- 0.850 -->
     <g style="fill:#0000ff;" transform="translate(374.113766 344.015163)rotate(-10.888091)scale(0.1 -0.1)">
      <use xlink:href="#DejaVuSans-48"/>
      <use x="63.623047" xlink:href="#DejaVuSans-46"/>
      <use x="95.410156" xlink:href="#DejaVuSans-56"/>
      <use x="159.033203" xlink:href="#DejaVuSans-53"/>
      <use x="222.65625" xlink:href="#DejaVuSans-48"/>
     </g>
    </g>
   </g>
   <g id="text_26">
    <g clip-path="url(#pe30f3f0d74)">
     <!-- 0.900 -->
     <defs>
      <path d="M 10.984375 1.515625 
L 10.984375 10.5 
Q 14.703125 8.734375 18.5 7.8125 
Q 22.3125 6.890625 25.984375 6.890625 
Q 35.75 6.890625 40.890625 13.453125 
Q 46.046875 20.015625 46.78125 33.40625 
Q 43.953125 29.203125 39.59375 26.953125 
Q 35.25 24.703125 29.984375 24.703125 
Q 19.046875 24.703125 12.671875 31.3125 
Q 6.296875 37.9375 6.296875 49.421875 
Q 6.296875 60.640625 12.9375 67.421875 
Q 19.578125 74.21875 30.609375 74.21875 
Q 43.265625 74.21875 49.921875 64.515625 
Q 56.59375 54.828125 56.59375 36.375 
Q 56.59375 19.140625 48.40625 8.859375 
Q 40.234375 -1.421875 26.421875 -1.421875 
Q 22.703125 -1.421875 18.890625 -0.6875 
Q 15.09375 0.046875 10.984375 1.515625 
z
M 30.609375 32.421875 
Q 37.25 32.421875 41.125 36.953125 
Q 45.015625 41.5 45.015625 49.421875 
Q 45.015625 57.28125 41.125 61.84375 
Q 37.25 66.40625 30.609375 66.40625 
Q 23.96875 66.40625 20.09375 61.84375 
Q 16.21875 57.28125 16.21875 49.421875 
Q 16.21875 41.5 20.09375 36.953125 
Q 23.96875 32.421875 30.609375 32.421875 
z
" id="DejaVuSans-57"/>
     </defs>
     <g style="fill:#0000ff;" transform="translate(431.223559 239.76713)rotate(-14.321837)scale(0.1 -0.1)">
      <use xlink:href="#DejaVuSans-48"/>
      <use x="63.623047" xlink:href="#DejaVuSans-46"/>
      <use x="95.410156" xlink:href="#DejaVuSans-57"/>
      <use x="159.033203" xlink:href="#DejaVuSans-48"/>
      <use x="222.65625" xlink:href="#DejaVuSans-48"/>
     </g>
    </g>
   </g>
   <g id="text_27">
    <!-- Efficiency, geometrical optics, 22 GHz -->
    <defs>
     <path d="M 9.8125 72.90625 
L 55.90625 72.90625 
L 55.90625 64.59375 
L 19.671875 64.59375 
L 19.671875 43.015625 
L 54.390625 43.015625 
L 54.390625 34.71875 
L 19.671875 34.71875 
L 19.671875 8.296875 
L 56.78125 8.296875 
L 56.78125 0 
L 9.8125 0 
z
" id="DejaVuSans-69"/>
     <path d="M 37.109375 75.984375 
L 37.109375 68.5 
L 28.515625 68.5 
Q 23.6875 68.5 21.796875 66.546875 
Q 19.921875 64.59375 19.921875 59.515625 
L 19.921875 54.6875 
L 34.71875 54.6875 
L 34.71875 47.703125 
L 19.921875 47.703125 
L 19.921875 0 
L 10.890625 0 
L 10.890625 47.703125 
L 2.296875 47.703125 
L 2.296875 54.6875 
L 10.890625 54.6875 
L 10.890625 58.5 
Q 10.890625 67.625 15.140625 71.796875 
Q 19.390625 75.984375 28.609375 75.984375 
z
" id="DejaVuSans-102"/>
     <path d="M 9.421875 54.6875 
L 18.40625 54.6875 
L 18.40625 0 
L 9.421875 0 
z
M 9.421875 75.984375 
L 18.40625 75.984375 
L 18.40625 64.59375 
L 9.421875 64.59375 
z
" id="DejaVuSans-105"/>
     <path d="M 48.78125 52.59375 
L 48.78125 44.1875 
Q 44.96875 46.296875 41.140625 47.34375 
Q 37.3125 48.390625 33.40625 48.390625 
Q 24.65625 48.390625 19.8125 42.84375 
Q 14.984375 37.3125 14.984375 27.296875 
Q 14.984375 17.28125 19.8125 11.734375 
Q 24.65625 6.203125 33.40625 6.203125 
Q 37.3125 6.203125 41.140625 7.25 
Q 44.96875 8.296875 48.78125 10.40625 
L 48.78125 2.09375 
Q 45.015625 0.34375 40.984375 -0.53125 
Q 36.96875 -1.421875 32.421875 -1.421875 
Q 20.0625 -1.421875 12.78125 6.34375 
Q 5.515625 14.109375 5.515625 27.296875 
Q 5.515625 40.671875 12.859375 48.328125 
Q 20.21875 56 33.015625 56 
Q 37.15625 56 41.109375 55.140625 
Q 45.0625 54.296875 48.78125 52.59375 
z
" id="DejaVuSans-99"/>
     <path d="M 56.203125 29.59375 
L 56.203125 25.203125 
L 14.890625 25.203125 
Q 15.484375 15.921875 20.484375 11.0625 
Q 25.484375 6.203125 34.421875 6.203125 
Q 39.59375 6.203125 44.453125 7.46875 
Q 49.3125 8.734375 54.109375 11.28125 
L 54.109375 2.78125 
Q 49.265625 0.734375 44.1875 -0.34375 
Q 39.109375 -1.421875 33.890625 -1.421875 
Q 20.796875 -1.421875 13.15625 6.1875 
Q 5.515625 13.8125 5.515625 26.8125 
Q 5.515625 40.234375 12.765625 48.109375 
Q 20.015625 56 32.328125 56 
Q 43.359375 56 49.78125 48.890625 
Q 56.203125 41.796875 56.203125 29.59375 
z
M 47.21875 32.234375 
Q 47.125 39.59375 43.09375 43.984375 
Q 39.0625 48.390625 32.421875 48.390625 
Q 24.90625 48.390625 20.390625 44.140625 
Q 15.875 39.890625 15.1875 32.171875 
z
" id="DejaVuSans-101"/>
     <path d="M 54.890625 33.015625 
L 54.890625 0 
L 45.90625 0 
L 45.90625 32.71875 
Q 45.90625 40.484375 42.875 44.328125 
Q 39.84375 48.1875 33.796875 48.1875 
Q 26.515625 48.1875 22.3125 43.546875 
Q 18.109375 38.921875 18.109375 30.90625 
L 18.109375 0 
L 9.078125 0 
L 9.078125 54.6875 
L 18.109375 54.6875 
L 18.109375 46.1875 
Q 21.34375 51.125 25.703125 53.5625 
Q 30.078125 56 35.796875 56 
Q 45.21875 56 50.046875 50.171875 
Q 54.890625 44.34375 54.890625 33.015625 
z
" id="DejaVuSans-110"/>
     <path d="M 32.171875 -5.078125 
Q 28.375 -14.84375 24.75 -17.8125 
Q 21.140625 -20.796875 15.09375 -20.796875 
L 7.90625 -20.796875 
L 7.90625 -13.28125 
L 13.1875 -13.28125 
Q 16.890625 -13.28125 18.9375 -11.515625 
Q 21 -9.765625 23.484375 -3.21875 
L 25.09375 0.875 
L 2.984375 54.6875 
L 12.5 54.6875 
L 29.59375 11.921875 
L 46.6875 54.6875 
L 56.203125 54.6875 
z
" id="DejaVuSans-121"/>
     <path d="M 11.71875 12.40625 
L 22.015625 12.40625 
L 22.015625 4 
L 14.015625 -11.625 
L 7.71875 -11.625 
L 11.71875 4 
z
" id="DejaVuSans-44"/>
     <path id="DejaVuSans-32"/>
     <path d="M 45.40625 27.984375 
Q 45.40625 37.75 41.375 43.109375 
Q 37.359375 48.484375 30.078125 48.484375 
Q 22.859375 48.484375 18.828125 43.109375 
Q 14.796875 37.75 14.796875 27.984375 
Q 14.796875 18.265625 18.828125 12.890625 
Q 22.859375 7.515625 30.078125 7.515625 
Q 37.359375 7.515625 41.375 12.890625 
Q 45.40625 18.265625 45.40625 27.984375 
z
M 54.390625 6.78125 
Q 54.390625 -7.171875 48.1875 -13.984375 
Q 42 -20.796875 29.203125 -20.796875 
Q 24.46875 -20.796875 20.265625 -20.09375 
Q 16.0625 -19.390625 12.109375 -17.921875 
L 12.109375 -9.1875 
Q 16.0625 -11.328125 19.921875 -12.34375 
Q 23.78125 -13.375 27.78125 -13.375 
Q 36.625 -13.375 41.015625 -8.765625 
Q 45.40625 -4.15625 45.40625 5.171875 
L 45.40625 9.625 
Q 42.625 4.78125 38.28125 2.390625 
Q 33.9375 0 27.875 0 
Q 17.828125 0 11.671875 7.65625 
Q 5.515625 15.328125 5.515625 27.984375 
Q 5.515625 40.671875 11.671875 48.328125 
Q 17.828125 56 27.875 56 
Q 33.9375 56 38.28125 53.609375 
Q 42.625 51.21875 45.40625 46.390625 
L 45.40625 54.6875 
L 54.390625 54.6875 
z
" id="DejaVuSans-103"/>
     <path d="M 30.609375 48.390625 
Q 23.390625 48.390625 19.1875 42.75 
Q 14.984375 37.109375 14.984375 27.296875 
Q 14.984375 17.484375 19.15625 11.84375 
Q 23.34375 6.203125 30.609375 6.203125 
Q 37.796875 6.203125 41.984375 11.859375 
Q 46.1875 17.53125 46.1875 27.296875 
Q 46.1875 37.015625 41.984375 42.703125 
Q 37.796875 48.390625 30.609375 48.390625 
z
M 30.609375 56 
Q 42.328125 56 49.015625 48.375 
Q 55.71875 40.765625 55.71875 27.296875 
Q 55.71875 13.875 49.015625 6.21875 
Q 42.328125 -1.421875 30.609375 -1.421875 
Q 18.84375 -1.421875 12.171875 6.21875 
Q 5.515625 13.875 5.515625 27.296875 
Q 5.515625 40.765625 12.171875 48.375 
Q 18.84375 56 30.609375 56 
z
" id="DejaVuSans-111"/>
     <path d="M 52 44.1875 
Q 55.375 50.25 60.0625 53.125 
Q 64.75 56 71.09375 56 
Q 79.640625 56 84.28125 50.015625 
Q 88.921875 44.046875 88.921875 33.015625 
L 88.921875 0 
L 79.890625 0 
L 79.890625 32.71875 
Q 79.890625 40.578125 77.09375 44.375 
Q 74.3125 48.1875 68.609375 48.1875 
Q 61.625 48.1875 57.5625 43.546875 
Q 53.515625 38.921875 53.515625 30.90625 
L 53.515625 0 
L 44.484375 0 
L 44.484375 32.71875 
Q 44.484375 40.625 41.703125 44.40625 
Q 38.921875 48.1875 33.109375 48.1875 
Q 26.21875 48.1875 22.15625 43.53125 
Q 18.109375 38.875 18.109375 30.90625 
L 18.109375 0 
L 9.078125 0 
L 9.078125 54.6875 
L 18.109375 54.6875 
L 18.109375 46.1875 
Q 21.1875 51.21875 25.484375 53.609375 
Q 29.78125 56 35.6875 56 
Q 41.65625 56 45.828125 52.96875 
Q 50 49.953125 52 44.1875 
z
" id="DejaVuSans-109"/>
     <path d="M 18.3125 70.21875 
L 18.3125 54.6875 
L 36.8125 54.6875 
L 36.8125 47.703125 
L 18.3125 47.703125 
L 18.3125 18.015625 
Q 18.3125 11.328125 20.140625 9.421875 
Q 21.96875 7.515625 27.59375 7.515625 
L 36.8125 7.515625 
L 36.8125 0 
L 27.59375 0 
Q 17.1875 0 13.234375 3.875 
Q 9.28125 7.765625 9.28125 18.015625 
L 9.28125 47.703125 
L 2.6875 47.703125 
L 2.6875 54.6875 
L 9.28125 54.6875 
L 9.28125 70.21875 
z
" id="DejaVuSans-116"/>
     <path d="M 41.109375 46.296875 
Q 39.59375 47.171875 37.8125 47.578125 
Q 36.03125 48 33.890625 48 
Q 26.265625 48 22.1875 43.046875 
Q 18.109375 38.09375 18.109375 28.8125 
L 18.109375 0 
L 9.078125 0 
L 9.078125 54.6875 
L 18.109375 54.6875 
L 18.109375 46.1875 
Q 20.953125 51.171875 25.484375 53.578125 
Q 30.03125 56 36.53125 56 
Q 37.453125 56 38.578125 55.875 
Q 39.703125 55.765625 41.0625 55.515625 
z
" id="DejaVuSans-114"/>
     <path d="M 34.28125 27.484375 
Q 23.390625 27.484375 19.1875 25 
Q 14.984375 22.515625 14.984375 16.5 
Q 14.984375 11.71875 18.140625 8.90625 
Q 21.296875 6.109375 26.703125 6.109375 
Q 34.1875 6.109375 38.703125 11.40625 
Q 43.21875 16.703125 43.21875 25.484375 
L 43.21875 27.484375 
z
M 52.203125 31.203125 
L 52.203125 0 
L 43.21875 0 
L 43.21875 8.296875 
Q 40.140625 3.328125 35.546875 0.953125 
Q 30.953125 -1.421875 24.3125 -1.421875 
Q 15.921875 -1.421875 10.953125 3.296875 
Q 6 8.015625 6 15.921875 
Q 6 25.140625 12.171875 29.828125 
Q 18.359375 34.515625 30.609375 34.515625 
L 43.21875 34.515625 
L 43.21875 35.40625 
Q 43.21875 41.609375 39.140625 45 
Q 35.0625 48.390625 27.6875 48.390625 
Q 23 48.390625 18.546875 47.265625 
Q 14.109375 46.140625 10.015625 43.890625 
L 10.015625 52.203125 
Q 14.9375 54.109375 19.578125 55.046875 
Q 24.21875 56 28.609375 56 
Q 40.484375 56 46.34375 49.84375 
Q 52.203125 43.703125 52.203125 31.203125 
z
" id="DejaVuSans-97"/>
     <path d="M 9.421875 75.984375 
L 18.40625 75.984375 
L 18.40625 0 
L 9.421875 0 
z
" id="DejaVuSans-108"/>
     <path d="M 18.109375 8.203125 
L 18.109375 -20.796875 
L 9.078125 -20.796875 
L 9.078125 54.6875 
L 18.109375 54.6875 
L 18.109375 46.390625 
Q 20.953125 51.265625 25.265625 53.625 
Q 29.59375 56 35.59375 56 
Q 45.5625 56 51.78125 48.09375 
Q 58.015625 40.1875 58.015625 27.296875 
Q 58.015625 14.40625 51.78125 6.484375 
Q 45.5625 -1.421875 35.59375 -1.421875 
Q 29.59375 -1.421875 25.265625 0.953125 
Q 20.953125 3.328125 18.109375 8.203125 
z
M 48.6875 27.296875 
Q 48.6875 37.203125 44.609375 42.84375 
Q 40.53125 48.484375 33.40625 48.484375 
Q 26.265625 48.484375 22.1875 42.84375 
Q 18.109375 37.203125 18.109375 27.296875 
Q 18.109375 17.390625 22.1875 11.75 
Q 26.265625 6.109375 33.40625 6.109375 
Q 40.53125 6.109375 44.609375 11.75 
Q 48.6875 17.390625 48.6875 27.296875 
z
" id="DejaVuSans-112"/>
     <path d="M 44.28125 53.078125 
L 44.28125 44.578125 
Q 40.484375 46.53125 36.375 47.5 
Q 32.28125 48.484375 27.875 48.484375 
Q 21.1875 48.484375 17.84375 46.4375 
Q 14.5 44.390625 14.5 40.28125 
Q 14.5 37.15625 16.890625 35.375 
Q 19.28125 33.59375 26.515625 31.984375 
L 29.59375 31.296875 
Q 39.15625 29.25 43.1875 25.515625 
Q 47.21875 21.78125 47.21875 15.09375 
Q 47.21875 7.46875 41.1875 3.015625 
Q 35.15625 -1.421875 24.609375 -1.421875 
Q 20.21875 -1.421875 15.453125 -0.5625 
Q 10.6875 0.296875 5.421875 2 
L 5.421875 11.28125 
Q 10.40625 8.6875 15.234375 7.390625 
Q 20.0625 6.109375 24.8125 6.109375 
Q 31.15625 6.109375 34.5625 8.28125 
Q 37.984375 10.453125 37.984375 14.40625 
Q 37.984375 18.0625 35.515625 20.015625 
Q 33.0625 21.96875 24.703125 23.78125 
L 21.578125 24.515625 
Q 13.234375 26.265625 9.515625 29.90625 
Q 5.8125 33.546875 5.8125 39.890625 
Q 5.8125 47.609375 11.28125 51.796875 
Q 16.75 56 26.8125 56 
Q 31.78125 56 36.171875 55.265625 
Q 40.578125 54.546875 44.28125 53.078125 
z
" id="DejaVuSans-115"/>
     <path d="M 59.515625 10.40625 
L 59.515625 29.984375 
L 43.40625 29.984375 
L 43.40625 38.09375 
L 69.28125 38.09375 
L 69.28125 6.78125 
Q 63.578125 2.734375 56.6875 0.65625 
Q 49.8125 -1.421875 42 -1.421875 
Q 24.90625 -1.421875 15.25 8.5625 
Q 5.609375 18.5625 5.609375 36.375 
Q 5.609375 54.25 15.25 64.234375 
Q 24.90625 74.21875 42 74.21875 
Q 49.125 74.21875 55.546875 72.453125 
Q 61.96875 70.703125 67.390625 67.28125 
L 67.390625 56.78125 
Q 61.921875 61.421875 55.765625 63.765625 
Q 49.609375 66.109375 42.828125 66.109375 
Q 29.4375 66.109375 22.71875 58.640625 
Q 16.015625 51.171875 16.015625 36.375 
Q 16.015625 21.625 22.71875 14.15625 
Q 29.4375 6.6875 42.828125 6.6875 
Q 48.046875 6.6875 52.140625 7.59375 
Q 56.25 8.5 59.515625 10.40625 
z
" id="DejaVuSans-71"/>
     <path d="M 9.8125 72.90625 
L 19.671875 72.90625 
L 19.671875 43.015625 
L 55.515625 43.015625 
L 55.515625 72.90625 
L 65.375 72.90625 
L 65.375 0 
L 55.515625 0 
L 55.515625 34.71875 
L 19.671875 34.71875 
L 19.671875 0 
L 9.8125 0 
z
" id="DejaVuSans-72"/>
    </defs>
    <g transform="translate(152.381875 19.44)scale(0.12 -0.12)">
     <use xlink:href="#DejaVuSans-69"/>
     <use x="63.183594" xlink:href="#DejaVuSans-102"/>
     <use x="98.388672" xlink:href="#DejaVuSans-102"/>
     <use x="133.59375" xlink:href="#DejaVuSans-105"/>
     <use x="161.376953" xlink:href="#DejaVuSans-99"/>
     <use x="216.357422" xlink:href="#DejaVuSans-105"/>
     <use x="244.140625" xlink:href="#DejaVuSans-101"/>
     <use x="305.664062" xlink:href="#DejaVuSans-110"/>
     <use x="369.042969" xlink:href="#DejaVuSans-99"/>
     <use x="424.023438" xlink:href="#DejaVuSans-121"/>
     <use x="483.203125" xlink:href="#DejaVuSans-44"/>
     <use x="514.990234" xlink:href="#DejaVuSans-32"/>
     <use x="546.777344" xlink:href="#DejaVuSans-103"/>
     <use x="610.253906" xlink:href="#DejaVuSans-101"/>
     <use x="671.777344" xlink:href="#DejaVuSans-111"/>
     <use x="732.958984" xlink:href="#DejaVuSans-109"/>
     <use x="830.371094" xlink:href="#DejaVuSans-101"/>
     <use x="891.894531" xlink:href="#DejaVuSans-116"/>
     <use x="931.103516" xlink:href="#DejaVuSans-114"/>
     <use x="972.216797" xlink:href="#DejaVuSans-105"/>
     <use x="1000" xlink:href="#DejaVuSans-99"/>
     <use x="1054.980469" xlink:href="#DejaVuSans-97"/>
     <use x="1116.259766" xlink:href="#DejaVuSans-108"/>
     <use x="1144.042969" xlink:href="#DejaVuSans-32"/>
     <use x="1175.830078" xlink:href="#DejaVuSans-111"/>
     <use x="1237.011719" xlink:href="#DejaVuSans-112"/>
     <use x="1300.488281" xlink:href="#DejaVuSans-116"/>
     <use x="1339.697266" xlink:href="#DejaVuSans-105"/>
     <use x="1367.480469" xlink:href="#DejaVuSans-99"/>
     <use x="1422.460938" xlink:href="#DejaVuSans-115"/>
     <use x="1474.560547" xlink:href="#DejaVuSans-44"/>
     <use x="1506.347656" xlink:href="#DejaVuSans-32"/>
     <use x="1538.134766" xlink:href="#DejaVuSans-50"/>
     <use x="1601.757812" xlink:href="#DejaVuSans-50"/>
     <use x="1665.380859" xlink:href="#DejaVuSans-32"/>
     <use x="1697.167969" xlink:href="#DejaVuSans-71"/>
     <use x="1774.658203" xlink:href="#DejaVuSans-72"/>
     <use x="1849.853516" xlink:href="#DejaVuSans-122"/>
    </g>
   </g>
  </g>
 </g>
 <defs>
  <clipPath id="pe30f3f0d74">
   <rect height="436.6" width="425.005" x="54.02" y="25.44"/>
  </clipPath>
 </defs>
</svg>
